<?xml version="1.0" encoding="utf-8"?>
<!-- Generator: Adobe Illustrator 22.0.1, SVG Export Plug-In . SVG Version: 6.00 Build 0)  -->
<svg version="1.1" id="Layer_1" xmlns="http://www.w3.org/2000/svg" xmlns:xlink="http://www.w3.org/1999/xlink" x="0px" y="0px"
	 width="841.9px" height="595.3px" viewBox="0 0 841.9 595.3" enable-background="new 0 0 841.9 595.3" xml:space="preserve">
<circle fill="#616160" stroke="#63C2CD" stroke-width="3" stroke-miterlimit="10" cx="196.8" cy="224" r="70"/>
<path fill="#63C2CD" d="M175.7,157.6c0,11.6,9.4,21.1,21.1,21.1s21.1-9.4,21.1-21.1c0,0-6.8-4.1-21.1-3.6S175.7,157.6,175.7,157.6z"
	/>
<circle fill="#63C2CD" cx="196.8" cy="224.2" r="21.1"/>
<path fill="#63C2CD" d="M217.8,290.9c0-11.6-9.4-21.1-21.1-21.1s-21.1,9.4-21.1,21.1c0,0,8.2,3.2,21.1,3.2S217.8,290.9,217.8,290.9z
	"/>
<path fill="#63C2CD" d="M263.6,203c-11.6,0-21.1,9.4-21.1,21.1c0,11.6,9.4,21.1,21.1,21.1c0,0,3.2-8.2,3.2-21.1
	C266.8,211.1,263.6,203,263.6,203z"/>
<path fill="#63C2CD" d="M129.9,245.1c11.6,0,21.1-9.4,21.1-21.1c0-11.6-9.4-21.1-21.1-21.1c0,0-3.2,8.2-3.2,21.1
	C126.8,236.9,129.9,245.1,129.9,245.1z"/>
<line fill="none" stroke="#63C2CD" stroke-width="9" stroke-miterlimit="10" x1="148.3" y1="224" x2="196.8" y2="224"/>
<line fill="none" stroke="#63C2CD" stroke-width="9" stroke-miterlimit="10" x1="196.8" y1="171.2" x2="196.8" y2="224"/>
<line fill="none" stroke="#63C2CD" stroke-width="9" stroke-miterlimit="10" x1="254.7" y1="224" x2="196.8" y2="224"/>
<line fill="none" stroke="#63C2CD" stroke-width="9" stroke-miterlimit="10" x1="196.8" y1="281.9" x2="196.8" y2="224"/>
<path fill="#118084" d="M182.2,159c0,8,6.5,14.6,14.6,14.6s14.6-6.5,14.6-14.6c0,0-4.7-2.8-14.6-2.5
	C186.9,156.9,182.2,159,182.2,159z"/>
<circle fill="#118084" cx="196.8" cy="224" r="14.6"/>
<path fill="#118084" d="M211.4,288.1c0-8-6.5-14.6-14.6-14.6c-8,0-14.6,6.5-14.6,14.6c0,0,5.6,2.2,14.6,2.2S211.4,288.1,211.4,288.1
	z"/>
<path fill="#118084" d="M262.3,209.5c-8,0-14.6,6.5-14.6,14.6c0,8,6.5,14.6,14.6,14.6c0,0,2.2-5.6,2.2-14.6
	C264.5,215.1,262.3,209.5,262.3,209.5z"/>
<path fill="#118084" d="M131.3,238.6c8,0,14.6-6.5,14.6-14.6c0-8-6.5-14.6-14.6-14.6c0,0-2.2,5.6-2.2,14.6S131.3,238.6,131.3,238.6z
	"/>
<line fill="none" stroke="#118084" stroke-width="4" stroke-miterlimit="10" x1="142.1" y1="224" x2="190.6" y2="224"/>
<line fill="none" stroke="#118084" stroke-width="4" stroke-miterlimit="10" x1="208.9" y1="224" x2="257.3" y2="224"/>
<line fill="none" stroke="#118084" stroke-width="4" stroke-miterlimit="10" x1="196.8" y1="233.5" x2="196.8" y2="281.9"/>
<line fill="none" stroke="#118084" stroke-width="4" stroke-miterlimit="10" x1="196.8" y1="163.8" x2="196.8" y2="212.2"/>
<polyline fill="none" stroke="#63C2CD" stroke-width="4" stroke-miterlimit="10" points="148.3,173.6 148.3,194.2 166.3,194.2 
	166.3,250.5 148.3,250.5 148.3,274.6 "/>
<polyline fill="none" stroke="#63C2CD" stroke-width="4" stroke-miterlimit="10" points="247.7,272 247.7,252.4 229.7,252.4 
	229.7,198.8 247.7,198.8 247.7,175.9 "/>
<circle fill="#2C4898" cx="196.8" cy="224.2" r="8.5"/>
<g>
</g>
<g>
</g>
<g>
</g>
<g>
</g>
<g>
</g>
<g>
</g>
</svg>
