<?xml version="1.0" encoding="utf-8"?>
<!-- Generator: Adobe Illustrator 22.0.1, SVG Export Plug-In . SVG Version: 6.00 Build 0)  -->
<svg version="1.1" id="Layer_1" xmlns="http://www.w3.org/2000/svg" xmlns:xlink="http://www.w3.org/1999/xlink" x="0px" y="0px"
	 width="841.9px" height="595.3px" viewBox="0 0 841.9 595.3" enable-background="new 0 0 841.9 595.3" xml:space="preserve">
<polygon fill="#3F3F3F" points="455.6,261.5 428.3,274.7 442,288.4 "/>
<polygon fill="#3F3F3F" points="382.7,261.3 395.9,288.6 409.6,274.9 "/>
<polygon fill="#3F3F3F" points="457.7,336.6 444.5,309.3 430.8,323 "/>
<polygon fill="#3F3F3F" points="382.5,336.5 409.8,323.3 396.1,309.6 "/>
<polygon fill="#3F3F3F" points="419.7,366.1 438,313.5 402.4,313.5 "/>
<polygon fill="#3F3F3F" points="490.6,299.6 438,281.2 438,316.8 "/>
<polygon fill="#3F3F3F" points="350.7,298.5 403.2,316.8 403.2,281.2 "/>
<polygon fill="#3F3F3F" points="420.7,230.3 402.4,282.9 438,282.9 "/>
<circle fill="#61605F" cx="420.6" cy="298.3" r="36.3"/>
<circle fill="#D81718" cx="420.6" cy="298.3" r="24.4"/>
<polygon fill="#3F3F3F" points="428.2,290.6 422,293.6 425.1,296.8 "/>
<polygon fill="#3F3F3F" points="411.5,290.5 414.5,296.8 417.7,293.7 "/>
<polygon fill="#3F3F3F" points="428.7,307.8 425.7,301.6 422.5,304.7 "/>
<polygon fill="#3F3F3F" points="411.4,307.8 417.7,304.8 414.6,301.6 "/>
<polygon fill="#3F3F3F" points="420,314.6 424.2,302.5 416,302.5 "/>
<polygon fill="#3F3F3F" points="436.3,299.3 424.2,295.1 424.2,303.3 "/>
<polygon fill="#3F3F3F" points="404.1,299.1 416.2,303.3 416.2,295.1 "/>
<polygon fill="#3F3F3F" points="420.2,283.4 416,295.5 424.2,295.5 "/>
<rect x="415.1" y="294.3" fill="#3F3F3F" width="9.7" height="9.7"/>
<g>
</g>
<g>
</g>
<g>
</g>
<g>
</g>
<g>
</g>
<g>
</g>
</svg>
