<?xml version="1.0" encoding="utf-8"?>
<!-- Generator: Adobe Illustrator 22.0.1, SVG Export Plug-In . SVG Version: 6.00 Build 0)  -->
<svg version="1.1" xmlns="http://www.w3.org/2000/svg" xmlns:xlink="http://www.w3.org/1999/xlink" x="0px" y="0px" width="841.9px"
	 height="595.3px" viewBox="0 0 841.9 595.3" enable-background="new 0 0 841.9 595.3" xml:space="preserve">
<g id="Layer_3">
	<rect x="0.5" fill="#030303" stroke="#000000" stroke-miterlimit="10" width="841.9" height="595.3"/>
</g>
<g id="Layer_2">
	<g>
		<circle fill="#1F8DC5" cx="420.3" cy="197.6" r="143.3"/>
		<polygon fill="#FAFAFA" points="371.9,332.5 380.8,324.5 390.7,328.5 408.3,328.5 420.3,328.5 432.3,324.5 445,332.5 459.6,328.5 
			468.7,332.5 458.1,335.8 448,338.2 433.2,340.3 423.1,340.9 413.7,340.7 406.1,340.2 395.9,338.8 390.1,337.7 382.9,336 		"/>
		<polygon fill="#41AB3B" points="370.7,316.3 353.9,312.2 353.9,301.6 346.9,293.4 342.1,272 346.9,255.7 338.8,242 323.6,226.6 
			325,219.8 323.6,217.3 323.6,200.2 328.4,194.8 327.7,187 321.5,185.6 318.5,177.7 314.9,172.2 314,167 309.2,159.7 300.5,153.6 
			297,144.7 298.2,132.9 301.9,128.5 300.3,119.2 311.6,104.2 322.9,92.5 335.5,82.1 345,75.7 357.8,68.6 371.8,62.7 383.7,59 
			401.8,55.6 405.3,55.6 405.3,63.7 401.5,70.8 396.2,70.8 391.1,65.5 386.2,69.2 382.7,67.4 377.1,71 370.3,75.8 366.4,80.5 
			368,86.9 372.4,88.7 377.6,86.5 379.6,82.6 384.5,79 386.7,78.8 388,75.5 391.1,73.8 394.1,76.5 399,76.7 397.3,81.5 400.2,87.4 
			402,91.7 400.2,95.4 395.7,97.2 392.4,96.7 390.3,95.8 387.4,96.5 387.4,100.6 386.6,104.4 381.3,104.2 373.4,104.2 368.7,106.7 
			362.6,109.5 357.5,111 357.5,116.1 354.5,117.7 351.2,121.3 346.8,123.1 345.4,126.8 345.4,132.6 341.3,137.4 336.6,137 
			334.5,131 332,125.6 326.3,125.6 320.3,125.4 315.4,127.7 312.8,132.2 309.6,139.5 310.5,144.3 311.4,147 314.5,149 318.9,150 
			319.4,156.5 316.8,160.4 319.2,165.4 322.6,167.4 322.6,171.8 325.6,175.6 327.7,179.3 329.9,181.6 333.8,183.1 338,176.1 
			342,175 349.2,176.1 357.3,178.1 362.6,180.6 368.5,184.8 371.7,186.8 377.3,187.9 379.7,191.1 382.5,191.3 385.2,194.1 
			385.3,197.9 388,199.8 391.1,205.9 397.3,207.9 402.7,212.5 405.3,216.1 415.3,215.9 419.9,220 420.6,223.4 422.3,227.3 
			424.6,237.1 422,240.7 418.1,244.4 415.5,245.2 411.3,249.8 409,255.5 408.1,261.7 403.1,265.1 398.1,265.1 394.1,267.5 
			388.5,269.6 385,272.1 382.2,278.5 379.6,283.9 379.6,289.2 373.8,291.4 372.9,294.8 372.2,298.3 373.6,302.8 370.1,306.4 
			369.9,312.1 372,313.9 		"/>
		<polygon fill="#41AB3B" points="337.3,150.7 339,149.2 330,143.5 323.8,145.1 327,147.1 332.2,150 		"/>
		<polygon fill="#41AB3B" points="332.6,153.6 337.5,155 341.3,153.6 345.3,154.3 350.6,154.3 354,156 352,160.5 346.1,157.1 
			343.3,159.3 337.1,159 335.4,157.1 332.6,158.8 329,156.4 		"/>
		<polygon fill="#41AB3B" points="408.7,58.9 411.5,63.5 408.7,70 411.5,77.4 416.4,79.7 421.9,73.4 428.3,69.3 432.8,69.3 
			436.7,65.1 436.1,58.9 430.5,58.9 427.4,56.8 422.7,59.5 417.1,57.7 412.6,55.6 		"/>
		<polygon fill="#41AB3B" points="508.2,295.1 510.4,287 509.3,281.1 506.1,276.5 513.8,265.1 513.8,257.8 517.7,254.8 517.7,242.5 
			515.3,241 516.6,236.8 520.3,233.3 520.3,215.1 516.6,211.6 516.4,202.4 508.5,198.9 503.5,193.4 499.8,194.7 482.2,197.6 
			467.1,187.9 467.1,179.2 470.8,167.3 469.7,151.3 480,139.7 484.8,130.7 504.4,128.8 513.8,130.5 521.2,135.8 527.6,135.8 
			530.8,133.4 534.9,136 538.2,136.6 538.2,132 535.2,126.8 528.3,125.5 523.5,122.6 519.9,125 515.8,118.7 512.3,121.7 
			507.2,121.3 506.7,114.7 501.3,114.7 499.2,116.5 496.4,114.7 490.6,120.4 481.8,122.6 475.1,119.1 472.9,114.7 473.6,110.3 
			479.4,108.8 484.8,111.7 486.7,105.7 490.1,105.7 492.7,102 491.4,94.8 487.8,89.5 482.2,85.6 479.2,82.3 474.2,83.4 468.2,69.6 
			482.7,68.6 492.5,73.8 502.2,80 512.6,88 526.9,101.8 538.3,116.8 547.4,131.4 556,151.6 560.8,171.7 563.3,188.1 562.8,212.8 
			560.1,221.7 558,226.3 556,235.9 553,249.3 548.5,256.1 540.3,265.7 536.7,271.6 533.9,282.4 526.3,293.6 517.5,296.8 		"/>
		<polygon fill="#41AB3B" points="471.8,99.8 478.7,101.8 482.2,96.3 471.8,86.9 467.1,81.6 464,85.1 467.1,89.8 464,91.7 464,95.7 
			467.1,94.8 470.4,91.7 473.1,95.4 		"/>
	</g>
	<line fill="none" x1="482.4" y1="457.6" x2="474.1" y2="465"/>
</g>
<g id="Layer_1">
	<rect y="520.6" fill="#D88C07" width="841.9" height="74.7"/>
	<g>
		<g>
			<path fill="#FDFDFD" d="M571.1,308.7c3.2,0,3.2-5,0-5C567.9,303.7,567.9,308.7,571.1,308.7L571.1,308.7z"/>
		</g>
	</g>
	<g>
		<g>
			<path fill="#FDFDFD" d="M276.1,277.6c3.2,0,3.2-5,0-5C272.9,272.6,272.9,277.6,276.1,277.6L276.1,277.6z"/>
		</g>
	</g>
	<g>
		<g>
			<path fill="#FDFDFD" d="M287.2,102.4c3.2,0,3.2-5,0-5C284,97.4,284,102.4,287.2,102.4L287.2,102.4z"/>
		</g>
	</g>
	<g>
		<g>
			<path fill="#FDFDFD" d="M116.4,131.2c3.2,0,3.2-5,0-5C113.2,126.2,113.2,131.2,116.4,131.2L116.4,131.2z"/>
		</g>
	</g>
	<g>
		<g>
			<path fill="#FDFDFD" d="M185.2,271c3.2,0,3.2-5,0-5C182,266,182,271,185.2,271L185.2,271z"/>
		</g>
	</g>
	<g>
		<g>
			<path fill="#FDFDFD" d="M114.2,381.8c3.2,0,3.2-5,0-5C111,376.8,111,381.8,114.2,381.8L114.2,381.8z"/>
		</g>
	</g>
	<g>
		<g>
			<path fill="#FDFDFD" d="M282.8,461.7c3.2,0,3.2-5,0-5C279.6,456.7,279.6,461.7,282.8,461.7L282.8,461.7z"/>
		</g>
	</g>
	<g>
		<g>
			<path fill="#FDFDFD" d="M256.2,379.6c3.2,0,3.2-5,0-5C253,374.6,252.9,379.6,256.2,379.6L256.2,379.6z"/>
		</g>
	</g>
	<g>
		<g>
			<path fill="#FDFDFD" d="M132,441.7c3.2,0,3.2-5,0-5C128.8,436.7,128.8,441.7,132,441.7L132,441.7z"/>
		</g>
	</g>
	<g>
		<g>
			<path fill="#FDFDFD" d="M542.3,437.3c3.2,0,3.2-5,0-5C539,432.3,539,437.3,542.3,437.3L542.3,437.3z"/>
		</g>
	</g>
	<g>
		<g>
			<path fill="#FDFDFD" d="M682,200c3.2,0,3.2-5,0-5C678.8,195,678.8,200,682,200L682,200z"/>
		</g>
	</g>
	<g>
		<g>
			<path fill="#FDFDFD" d="M690.9,284.3c3.2,0,3.2-5,0-5C687.6,279.3,687.6,284.3,690.9,284.3L690.9,284.3z"/>
		</g>
	</g>
	<g>
		<g>
			<path fill="#FDFDFD" d="M741.9,206.6c3.2,0,3.2-5,0-5C738.6,201.6,738.6,206.6,741.9,206.6L741.9,206.6z"/>
		</g>
	</g>
	<g>
		<g>
			<path fill="#FDFDFD" d="M781.8,344.1c3.2,0,3.2-5,0-5C778.6,339.1,778.6,344.1,781.8,344.1L781.8,344.1z"/>
		</g>
	</g>
	<g>
		<g>
			<path fill="#FDFDFD" d="M775.1,475c3.2,0,3.2-5,0-5C771.9,470,771.9,475,775.1,475L775.1,475z"/>
		</g>
	</g>
	<g>
		<g>
			<path fill="#FDFDFD" d="M599.9,475c3.2,0,3.2-5,0-5C596.7,470,596.7,475,599.9,475L599.9,475z"/>
		</g>
	</g>
	<g>
		<g>
			<path fill="#FDFDFD" d="M564.4,266.5c3.2,0,3.2-5,0-5C561.2,261.5,561.2,266.5,564.4,266.5L564.4,266.5z"/>
		</g>
	</g>
	<g>
		<g>
			<path fill="#FDFDFD" d="M650.9,104.6c3.2,0,3.2-5,0-5C647.7,99.6,647.7,104.6,650.9,104.6L650.9,104.6z"/>
		</g>
	</g>
	<g>
		<g>
			<path fill="#FDFDFD" d="M739.6,106.8c3.2,0,3.2-5,0-5C736.4,101.8,736.4,106.8,739.6,106.8L739.6,106.8z"/>
		</g>
	</g>
	<g>
		<g>
			<path fill="#FDFDFD" d="M626.5,60.3c3.2,0,3.2-5,0-5C623.3,55.3,623.3,60.3,626.5,60.3L626.5,60.3z"/>
		</g>
	</g>
	<g>
		<g>
			<path fill="#FDFDFD" d="M566.7,224.4c3.2,0,3.2-5,0-5C563.4,219.4,563.4,224.4,566.7,224.4L566.7,224.4z"/>
		</g>
	</g>
	<g>
		<g>
			<path fill="#FDFDFD" d="M207.4,58c3.2,0,3.2-5,0-5C204.2,53,204.2,58,207.4,58L207.4,58z"/>
		</g>
	</g>
	<g>
		<g>
			<path fill="#FDFDFD" d="M167.5,182.2c3.2,0,3.2-5,0-5C164.2,177.2,164.2,182.2,167.5,182.2L167.5,182.2z"/>
		</g>
	</g>
	<g>
		<g>
			<path fill="#FDFDFD" d="M112,277.6c3.2,0,3.2-5,0-5C108.8,272.6,108.8,277.6,112,277.6L112,277.6z"/>
		</g>
	</g>
	<g>
		<g>
			<path fill="#FDFDFD" d="M52.1,237.7c3.2,0,3.2-5,0-5C48.9,232.7,48.9,237.7,52.1,237.7L52.1,237.7z"/>
		</g>
	</g>
	<g>
		<g>
			<path fill="#FDFDFD" d="M54.4,361.9c3.2,0,3.2-5,0-5C51.1,356.9,51.1,361.9,54.4,361.9L54.4,361.9z"/>
		</g>
	</g>
	<g>
		<g>
			<path fill="#FDFDFD" d="M76.5,472.8c3.2,0,3.2-5,0-5C73.3,467.8,73.3,472.8,76.5,472.8L76.5,472.8z"/>
		</g>
	</g>
	<g>
		<g>
			<path fill="#FDFDFD" d="M25.5,466.1c3.2,0,3.2-5,0-5C22.3,461.1,22.3,466.1,25.5,466.1L25.5,466.1z"/>
		</g>
	</g>
	<g>
		<g>
			<path fill="#FDFDFD" d="M54.4,415.1c3.2,0,3.2-5,0-5C51.1,410.1,51.1,415.1,54.4,415.1L54.4,415.1z"/>
		</g>
	</g>
	<g>
		<g>
			<path fill="#FDFDFD" d="M222.9,490.5c3.2,0,3.2-5,0-5C219.7,485.5,219.7,490.5,222.9,490.5L222.9,490.5z"/>
		</g>
	</g>
	<g>
		<g>
			<path fill="#FDFDFD" d="M200.7,361.9c3.2,0,3.2-5,0-5C197.5,356.9,197.5,361.9,200.7,361.9L200.7,361.9z"/>
		</g>
	</g>
	<g>
		<g>
			<path fill="#FDFDFD" d="M369.3,406.2c3.2,0,3.2-5,0-5C366.1,401.2,366.1,406.2,369.3,406.2L369.3,406.2z"/>
		</g>
	</g>
	<g>
		<g>
			<path fill="#FDFDFD" d="M446.9,472.8c3.2,0,3.2-5,0-5C443.7,467.8,443.7,472.8,446.9,472.8L446.9,472.8z"/>
		</g>
	</g>
	<g>
		<g>
			<path fill="#FDFDFD" d="M562.2,497.2c3.2,0,3.2-5,0-5C559,492.2,559,497.2,562.2,497.2L562.2,497.2z"/>
		</g>
	</g>
	<g>
		<g>
			<path fill="#FDFDFD" d="M342.7,472.8c3.2,0,3.2-5,0-5C339.4,467.8,339.4,472.8,342.7,472.8L342.7,472.8z"/>
		</g>
	</g>
	<g>
		<g>
			<path fill="#FDFDFD" d="M400.3,426.2c3.2,0,3.2-5,0-5C397.1,421.2,397.1,426.2,400.3,426.2L400.3,426.2z"/>
		</g>
	</g>
	<g>
		<g>
			<path fill="#FDFDFD" d="M387,335.3c3.2,0,3.2-5,0-5C383.8,330.3,383.8,335.3,387,335.3L387,335.3z"/>
		</g>
	</g>
	<g>
		<g>
			<path fill="#FDFDFD" d="M502.3,373c3.2,0,3.2-5,0-5C499.1,368,499.1,373,502.3,373L502.3,373z"/>
		</g>
	</g>
	<g>
		<g>
			<path fill="#FDFDFD" d="M677.5,448.4c3.2,0,3.2-5,0-5C674.3,443.4,674.3,448.4,677.5,448.4L677.5,448.4z"/>
		</g>
	</g>
	<g>
		<g>
			<path fill="#FDFDFD" d="M624.3,279.8c3.2,0,3.2-5,0-5C621.1,274.8,621.1,279.8,624.3,279.8L624.3,279.8z"/>
		</g>
	</g>
	<g>
		<g>
			<path fill="#FDFDFD" d="M593.3,66.9c3.2,0,3.2-5,0-5C590.1,61.9,590.1,66.9,593.3,66.9L593.3,66.9z"/>
		</g>
	</g>
	<g>
		<g>
			<path fill="#FDFDFD" d="M482.4,66.9c3.2,0,3.2-5,0-5C479.2,61.9,479.2,66.9,482.4,66.9L482.4,66.9z"/>
		</g>
	</g>
	<g>
		<g>
			<path fill="#FDFDFD" d="M23.3,42.5c3.2,0,3.2-5,0-5C20.1,37.5,20.1,42.5,23.3,42.5L23.3,42.5z"/>
		</g>
	</g>
	<g>
		<g>
			<path fill="#FDFDFD" d="M41,91.3c3.2,0,3.2-5,0-5C37.8,86.3,37.8,91.3,41,91.3L41,91.3z"/>
		</g>
	</g>
	<g>
		<g>
			<path fill="#FDFDFD" d="M149.7,47c3.2,0,3.2-5,0-5C146.5,42,146.5,47,149.7,47L149.7,47z"/>
		</g>
	</g>
	<g>
		<g>
			<path fill="#FDFDFD" d="M58.8,29.2c3.2,0,3.2-5,0-5C55.6,24.2,55.6,29.2,58.8,29.2L58.8,29.2z"/>
		</g>
	</g>
	<g>
		<g>
			<path fill="#FDFDFD" d="M132,89.1c3.2,0,3.2-5,0-5C128.8,84.1,128.8,89.1,132,89.1L132,89.1z"/>
		</g>
	</g>
	<g>
		<g>
			<path fill="#FDFDFD" d="M216.2,155.6c3.2,0,3.2-5,0-5C213,150.6,213,155.6,216.2,155.6L216.2,155.6z"/>
		</g>
	</g>
	<g>
		<g>
			<path fill="#FDFDFD" d="M256.2,186.7c3.2,0,3.2-5,0-5C253,181.7,252.9,186.7,256.2,186.7L256.2,186.7z"/>
		</g>
	</g>
	<g>
		<g>
			<path fill="#FDFDFD" d="M737.4,38.1c3.2,0,3.2-5,0-5C734.2,33.1,734.2,38.1,737.4,38.1L737.4,38.1z"/>
		</g>
	</g>
	<g>
		<g>
			<path fill="#FDFDFD" d="M788.4,58c3.2,0,3.2-5,0-5C785.2,53,785.2,58,788.4,58L788.4,58z"/>
		</g>
	</g>
	<g>
		<g>
			<path fill="#FDFDFD" d="M799.5,200c3.2,0,3.2-5,0-5C796.3,195,796.3,200,799.5,200L799.5,200z"/>
		</g>
	</g>
	<g>
		<g>
			<path fill="#FDFDFD" d="M681.6,351.5c3.2,0,3.2-5,0-5C678.4,346.5,678.4,351.5,681.6,351.5L681.6,351.5z"/>
		</g>
	</g>
	<g>
		<g>
			<path fill="#FDFDFD" d="M630.7,384.4c3.2,0,3.2-5,0-5C627.5,379.4,627.5,384.4,630.7,384.4L630.7,384.4z"/>
		</g>
	</g>
	<g>
		<g>
			<path fill="#FDFDFD" d="M717.6,411.4c3.2,0,3.2-5,0-5C714.4,406.4,714.3,411.4,717.6,411.4L717.6,411.4z"/>
		</g>
	</g>
	<g>
		<g>
			<path fill="#FDFDFD" d="M810.4,433.8c3.2,0,3.2-5,0-5C807.2,428.8,807.2,433.8,810.4,433.8L810.4,433.8z"/>
		</g>
	</g>
	<g>
		<g>
			<path fill="#FDFDFD" d="M813.4,270.6c3.2,0,3.2-5,0-5C810.2,265.6,810.2,270.6,813.4,270.6L813.4,270.6z"/>
		</g>
	</g>
	<g>
		<g>
			<path fill="#FDFDFD" d="M762.5,263.1c3.2,0,3.2-5,0-5C759.3,258.1,759.3,263.1,762.5,263.1L762.5,263.1z"/>
		</g>
	</g>
	<rect y="495.7" fill="#D88C07" width="841.9" height="49.8"/>
	<rect y="446.4" fill="#D88C07" width="841.9" height="49.8"/>
	<rect y="398.6" fill="#D88C07" width="841.9" height="49.8"/>
	<polygon fill="#D88C07" points="0,399 24.5,378.3 38.2,388.7 55.8,378.3 75.8,388.7 93.3,388.7 99.6,378.3 129.6,399 149.6,383.3 
		172.2,378.3 192.2,388.7 206,383.3 218.5,378.3 248.5,364.5 253.5,381.8 284.8,381.8 302.3,381.8 314.9,392.1 337.4,370.8 
		359.9,381.8 378.7,381.8 398.7,390.8 420.9,364.5 436.3,372.1 436.3,388.3 466.3,381.8 481.3,364.5 497.6,375.8 532.7,381.8 
		560.2,388.3 575.2,364.5 607.8,387.1 645.3,373.3 654.1,389.6 686.6,388.3 696.6,370.8 715.4,381.8 730.4,387.1 749.2,381.8 
		778,381.8 801.8,390.8 820.6,375.8 835.6,388.3 841.9,393.1 841.9,399 	"/>
	<g>
		<g>
			<path fill="#FDFDFD" d="M331.4,38.1c3.2,0,3.2-5,0-5C328.2,33.1,328.2,38.1,331.4,38.1L331.4,38.1z"/>
		</g>
	</g>
	<polygon fill="#AA6F14" points="41.6,407.7 20,438.5 76.1,438.5 60.9,423.1 100.1,423.1 79.3,407.7 	"/>
	<polygon fill="#AA6F14" points="161.8,432.6 118.6,438.5 125.8,423.1 147.4,423.1 165.9,407.7 185.9,423.1 195.5,444.1 
		215.5,423.1 215.5,452.1 173.9,452.1 	"/>
	<polygon fill="#AA6F14" points="310.9,401.6 270,396 262.8,412.1 269.2,443.3 286.9,429.9 318.1,452.1 330.1,424.1 363,438.5 
		355.8,412.9 322.1,412.9 312.9,424.1 290.9,408.9 	"/>
	<polygon fill="#AA6F14" points="429.2,380.8 410.3,419.3 419.8,441.7 452,441.7 458.4,429.9 480,441.7 497.6,407.7 444.7,406.4 
		429.2,423.1 	"/>
	<path fill="#AA6F14" d="M513.7,390.5c0,0,24,62.5,27.2,61.6c3.2-0.8,52.1,0,52.1,0l-39.7-28h73.3l-37.7-28l-37.6,19.2L513.7,390.5z
		"/>
	<polygon fill="#AA6F14" points="786.3,400.3 783.3,409.7 776.5,431.1 786.3,442.4 807,442.4 820.6,425.9 	"/>
	<polygon fill="#AA6F14" points="629.9,434.5 644.9,468.9 674.2,421.1 653.1,426 673.6,392.6 649.6,402.3 	"/>
	<polygon fill="#AA6F14" points="389.5,482.3 346.3,488.2 353.5,472.8 375.1,472.8 393.6,457.4 413.6,472.8 423.2,493.8 
		443.2,472.8 443.2,501.8 401.6,501.8 	"/>
	<polygon fill="#AA6F14" points="54.6,488.5 13.7,482.9 6.5,499 12.9,530.1 30.6,516.8 61.8,539 73.8,511 106.7,525.3 99.5,499.8 
		65.8,499.8 56.6,511 34.6,495.8 	"/>
	<polygon fill="#AA6F14" points="238,443.5 219.1,482 228.6,504.4 260.8,504.4 267.2,492.6 288.8,504.4 306.4,470.4 253.5,469.1 
		238,485.8 	"/>
	<path fill="#AA6F14" d="M137.5,432c0,0-49.9,44.6-47.9,47.3c1.9,2.7,18.5,48.7,18.5,48.7l12.1-47.1l26,68.5l12.8-45.2l-31.3-28.3
		L137.5,432z"/>
	<polygon fill="#AA6F14" points="746.5,447.5 701,462.9 654.6,508.3 673.7,463.6 737.9,408.9 720.4,401.4 735.9,386.2 755.8,406.5 	
		"/>
	<polygon fill="#AA6F14" points="502.9,452.9 499.9,462.3 493.1,483.7 502.9,495 523.6,495 537.2,478.5 	"/>
	<polygon fill="#AA6F14" points="167.3,546.5 145.7,577.3 201.8,577.3 186.6,561.9 225.8,561.9 205,546.5 	"/>
	<polygon fill="#AA6F14" points="481.4,523.5 438.2,529.4 445.4,514 467,514 485.5,498.6 505.5,514 515.1,535 535.1,514 535.1,543 
		493.5,543 	"/>
	<polygon fill="#AA6F14" points="612.6,469.3 571.7,463.7 564.5,479.8 570.9,511 588.6,497.6 619.8,519.8 631.8,491.8 664.7,506.2 
		657.5,480.6 623.8,480.6 614.6,491.8 592.6,476.6 	"/>
	<path fill="#AA6F14" d="M817.5,571.6c0,0,25.6-61.9,22.7-63.4c-2.9-1.6-37.8-35.9-37.8-35.9l9.5,47.6l-53.2-50.4l8.1,46.3
		l40.5,11.9L817.5,571.6z"/>
	<polygon fill="#AA6F14" points="690.8,581.5 656.7,547.8 595.3,526.7 643.8,523.7 721.4,556.5 720.3,537.6 740.9,544.6 
		731.6,571.5 	"/>
	<polygon fill="#AA6F14" points="705,463.4 702,472.8 695.2,494.2 705,505.5 725.7,505.5 739.3,489 	"/>
	<polygon fill="#AA6F14" points="332.1,532.5 307.5,504 293.7,558.4 312.4,547.5 302.7,585.4 322.8,569.1 	"/>
	<polygon fill="#AA6F14" points="402.5,537.5 361.6,531.9 354.4,548 360.8,579.2 378.5,565.8 409.7,588 421.7,560 454.6,574.4 
		447.4,548.8 413.7,548.8 404.5,560 382.5,544.8 	"/>
	<polygon fill="#AA6F14" points="28.2,595.3 45.9,595 77.7,595.3 53.2,577 73.7,543.6 49.7,553.3 	"/>
	<polygon fill="#AA6F14" points="531.8,553.2 510.2,584 566.3,584 551.1,568.6 590.3,568.6 569.5,553.2 	"/>
	<g>
	</g>
	<g>
	</g>
	<g>
	</g>
	<g>
	</g>
	<g>
	</g>
	<g>
	</g>
</g>
</svg>
