<?xml version="1.0" encoding="utf-8"?>
<!-- Generator: Adobe Illustrator 22.0.1, SVG Export Plug-In . SVG Version: 6.00 Build 0)  -->
<svg version="1.1" id="Layer_1" xmlns="http://www.w3.org/2000/svg" xmlns:xlink="http://www.w3.org/1999/xlink" x="0px" y="0px"
	 width="841.9px" height="595.3px" viewBox="0 0 841.9 595.3" enable-background="new 0 0 841.9 595.3" xml:space="preserve">
<rect x="-2.1" y="-0.8" fill="#030303" stroke="#000000" stroke-miterlimit="10" width="841.9" height="595.3"/>
<line fill="none" x1="333.7" y1="508.5" x2="327" y2="514.6"/>
<g>
	<g>
		<path fill="#FDFDFD" d="M405.9,387.8c3.2,0,3.2-5,0-5C402.7,382.8,402.7,387.8,405.9,387.8L405.9,387.8z"/>
	</g>
</g>
<g>
	<g>
		<path fill="#FDFDFD" d="M197.7,345.8c3.2,0,3.2-5,0-5C194.5,340.8,194.5,345.8,197.7,345.8L197.7,345.8z"/>
	</g>
</g>
<g>
	<g>
		<path fill="#FDFDFD" d="M67.8,226.7c3.2,0,3.2-5,0-5C64.6,221.7,64.6,226.7,67.8,226.7L67.8,226.7z"/>
	</g>
</g>
<g>
	<g>
		<path fill="#FDFDFD" d="M123.7,340.4c3.2,0,3.2-5,0-5C120.5,335.4,120.5,340.4,123.7,340.4L123.7,340.4z"/>
	</g>
</g>
<g>
	<g>
		<path fill="#FDFDFD" d="M203.1,495.6c3.2,0,3.2-5,0-5C199.9,490.6,199.9,495.6,203.1,495.6L203.1,495.6z"/>
	</g>
</g>
<g>
	<g>
		<path fill="#FDFDFD" d="M181.5,428.8c3.2,0,3.2-5,0-5C178.2,423.8,178.2,428.8,181.5,428.8L181.5,428.8z"/>
	</g>
</g>
<g>
	<g>
		<path fill="#FDFDFD" d="M382.4,492.5c3.2,0,3.2-5,0-5C379.2,487.5,379.2,492.5,382.4,492.5L382.4,492.5z"/>
	</g>
</g>
<g>
	<g>
		<path fill="#FDFDFD" d="M496.1,299.4c3.2,0,3.2-5,0-5C492.9,294.4,492.9,299.4,496.1,299.4L496.1,299.4z"/>
	</g>
</g>
<g>
	<g>
		<path fill="#FDFDFD" d="M503.3,367.9c3.2,0,3.2-5,0-5C500.1,362.9,500.1,367.9,503.3,367.9L503.3,367.9z"/>
	</g>
</g>
<g>
	<g>
		<path fill="#FDFDFD" d="M544.8,304.8c3.2,0,3.2-5,0-5C541.6,299.8,541.6,304.8,544.8,304.8L544.8,304.8z"/>
	</g>
</g>
<g>
	<g>
		<path fill="#FDFDFD" d="M577.3,416.7c3.2,0,3.2-5,0-5C574.1,411.7,574.1,416.7,577.3,416.7L577.3,416.7z"/>
	</g>
</g>
<g>
	<g>
		<path fill="#FDFDFD" d="M603.7,506.4c3.2,0,3.2-5,0-5C600.5,501.4,600.5,506.4,603.7,506.4L603.7,506.4z"/>
	</g>
</g>
<g>
	<g>
		<path fill="#FDFDFD" d="M461.2,506.4c3.2,0,3.2-5,0-5C457.9,501.4,457.9,506.4,461.2,506.4L461.2,506.4z"/>
	</g>
</g>
<g>
	<g>
		<path fill="#FDFDFD" d="M401.1,402.4c3.2,0,3.2-5,0-5C397.9,397.4,397.9,402.4,401.1,402.4L401.1,402.4z"/>
	</g>
</g>
<g>
	<g>
		<path fill="#FDFDFD" d="M471.5,270.7c3.2,0,3.2-5,0-5C468.2,265.7,468.2,270.7,471.5,270.7L471.5,270.7z"/>
	</g>
</g>
<g>
	<g>
		<path fill="#FDFDFD" d="M543,223.6c3.2,0,3.2-5,0-5C539.8,218.6,539.8,223.6,543,223.6L543,223.6z"/>
	</g>
</g>
<g>
	<g>
		<path fill="#FDFDFD" d="M451.6,234.6c3.2,0,3.2-5,0-5C448.4,229.6,448.4,234.6,451.6,234.6L451.6,234.6z"/>
	</g>
</g>
<g>
	<g>
		<path fill="#FDFDFD" d="M402.9,368.1c3.2,0,3.2-5,0-5C399.7,363.1,399.7,368.1,402.9,368.1L402.9,368.1z"/>
	</g>
</g>
<g>
	<g>
		<path fill="#FDFDFD" d="M141.8,167.2c3.2,0,3.2-5,0-5C138.5,162.2,138.5,167.2,141.8,167.2L141.8,167.2z"/>
	</g>
</g>
<g>
	<g>
		<path fill="#FDFDFD" d="M109.3,268.2c3.2,0,3.2-5,0-5C106.1,263.2,106.1,268.2,109.3,268.2L109.3,268.2z"/>
	</g>
</g>
<g>
	<g>
		<path fill="#FDFDFD" d="M64.2,345.8c3.2,0,3.2-5,0-5C61,340.8,60.9,345.8,64.2,345.8L64.2,345.8z"/>
	</g>
</g>
<g>
	<g>
		<path fill="#FDFDFD" d="M15.5,313.3c3.2,0,3.2-5,0-5C12.2,308.3,12.2,313.3,15.5,313.3L15.5,313.3z"/>
	</g>
</g>
<g>
	<g>
		<path fill="#FDFDFD" d="M17.3,414.4c3.2,0,3.2-5,0-5C14,409.4,14,414.4,17.3,414.4L17.3,414.4z"/>
	</g>
</g>
<g>
	<g>
		<path fill="#FDFDFD" d="M35.3,504.6c3.2,0,3.2-5,0-5C32.1,499.6,32.1,504.6,35.3,504.6L35.3,504.6z"/>
	</g>
</g>
<g>
	<g>
		<path fill="#FDFDFD" d="M17.5,521.2c3.2,0,3.2-5,0-5C14.3,516.2,14.3,521.2,17.5,521.2L17.5,521.2z"/>
	</g>
</g>
<g>
	<g>
		<path fill="#FDFDFD" d="M17.3,457.7c3.2,0,3.2-5,0-5C14,452.7,14,457.7,17.3,457.7L17.3,457.7z"/>
	</g>
</g>
<g>
	<g>
		<path fill="#FDFDFD" d="M154.4,519.1c3.2,0,3.2-5,0-5C151.2,514.1,151.2,519.1,154.4,519.1L154.4,519.1z"/>
	</g>
</g>
<g>
	<g>
		<path fill="#FDFDFD" d="M136.4,414.4c3.2,0,3.2-5,0-5C133.1,409.4,133.1,414.4,136.4,414.4L136.4,414.4z"/>
	</g>
</g>
<g>
	<g>
		<path fill="#FDFDFD" d="M273.5,450.5c3.2,0,3.2-5,0-5C270.3,445.5,270.3,450.5,273.5,450.5L273.5,450.5z"/>
	</g>
</g>
<g>
	<g>
		<path fill="#FDFDFD" d="M336.7,504.6c3.2,0,3.2-5,0-5C333.4,499.6,333.4,504.6,336.7,504.6L336.7,504.6z"/>
	</g>
</g>
<g>
	<g>
		<path fill="#FDFDFD" d="M561.2,497.2c3.2,0,3.2-5,0-5C558,492.2,558,497.2,561.2,497.2L561.2,497.2z"/>
	</g>
</g>
<g>
	<g>
		<path fill="#FDFDFD" d="M251.8,504.6c3.2,0,3.2-5,0-5C248.6,499.6,248.6,504.6,251.8,504.6L251.8,504.6z"/>
	</g>
</g>
<g>
	<g>
		<path fill="#FDFDFD" d="M298.8,466.7c3.2,0,3.2-5,0-5C295.5,461.7,295.5,466.7,298.8,466.7L298.8,466.7z"/>
	</g>
</g>
<g>
	<g>
		<path fill="#FDFDFD" d="M287.9,392.7c3.2,0,3.2-5,0-5C284.7,387.7,284.7,392.7,287.9,392.7L287.9,392.7z"/>
	</g>
</g>
<g>
	<g>
		<path fill="#FDFDFD" d="M350,440.1c3.2,0,3.2-5,0-5C346.7,435.1,346.7,440.1,350,440.1L350,440.1z"/>
	</g>
</g>
<g>
	<g>
		<path fill="#FDFDFD" d="M492.5,501.5c3.2,0,3.2-5,0-5C489.3,496.5,489.3,501.5,492.5,501.5L492.5,501.5z"/>
	</g>
</g>
<g>
	<g>
		<path fill="#FDFDFD" d="M449.2,364.3c3.2,0,3.2-5,0-5C446,359.3,446,364.3,449.2,364.3L449.2,364.3z"/>
	</g>
</g>
<g>
	<g>
		<path fill="#FDFDFD" d="M424.5,240c3.2,0,3.2-5,0-5C421.3,235,421.3,240,424.5,240L424.5,240z"/>
	</g>
</g>
<g>
	<g>
		<path fill="#FDFDFD" d="M333.7,191.1c3.2,0,3.2-5,0-5C330.5,186.1,330.5,191.1,333.7,191.1L333.7,191.1z"/>
	</g>
</g>
<g>
	<g>
		<path fill="#FDFDFD" d="M22.3,42.5c3.2,0,3.2-5,0-5C19.1,37.5,19.1,42.5,22.3,42.5L22.3,42.5z"/>
	</g>
</g>
<g>
	<g>
		<path fill="#FDFDFD" d="M6.4,194.3c3.2,0,3.2-5,0-5C3.2,189.3,3.2,194.3,6.4,194.3L6.4,194.3z"/>
	</g>
</g>
<g>
	<g>
		<path fill="#FDFDFD" d="M94.8,158.2c3.2,0,3.2-5,0-5C91.6,153.2,91.6,158.2,94.8,158.2L94.8,158.2z"/>
	</g>
</g>
<g>
	<g>
		<path fill="#FDFDFD" d="M57.8,29.2c3.2,0,3.2-5,0-5C54.6,24.2,54.6,29.2,57.8,29.2L57.8,29.2z"/>
	</g>
</g>
<g>
	<g>
		<path fill="#FDFDFD" d="M80.4,192.4c3.2,0,3.2-5,0-5C77.2,187.4,77.2,192.4,80.4,192.4L80.4,192.4z"/>
	</g>
</g>
<g>
	<g>
		<path fill="#FDFDFD" d="M149,246.6c3.2,0,3.2-5,0-5C145.8,241.6,145.8,246.6,149,246.6L149,246.6z"/>
	</g>
</g>
<g>
	<g>
		<path fill="#FDFDFD" d="M181.5,271.8c3.2,0,3.2-5,0-5C178.2,266.8,178.2,271.8,181.5,271.8L181.5,271.8z"/>
	</g>
</g>
<g>
	<g>
		<path fill="#FDFDFD" d="M736.4,38.1c3.2,0,3.2-5,0-5C733.2,33.1,733.2,38.1,736.4,38.1L736.4,38.1z"/>
	</g>
</g>
<g>
	<g>
		<path fill="#FDFDFD" d="M582.7,183.9c3.2,0,3.2-5,0-5C579.5,178.9,579.5,183.9,582.7,183.9L582.7,183.9z"/>
	</g>
</g>
<g>
	<g>
		<path fill="#FDFDFD" d="M591.8,299.4c3.2,0,3.2-5,0-5C588.5,294.4,588.5,299.4,591.8,299.4L591.8,299.4z"/>
	</g>
</g>
<g>
	<g>
		<path fill="#FDFDFD" d="M495.8,422.6c3.2,0,3.2-5,0-5C492.6,417.6,492.6,422.6,495.8,422.6L495.8,422.6z"/>
	</g>
</g>
<g>
	<g>
		<path fill="#FDFDFD" d="M454.4,449.5c3.2,0,3.2-5,0-5C451.2,444.5,451.2,449.5,454.4,449.5L454.4,449.5z"/>
	</g>
</g>
<g>
	<g>
		<path fill="#FDFDFD" d="M525.1,471.4c3.2,0,3.2-5,0-5C521.9,466.4,521.9,471.4,525.1,471.4L525.1,471.4z"/>
	</g>
</g>
<g>
	<g>
		<path fill="#FDFDFD" d="M600.6,489.7c3.2,0,3.2-5,0-5C597.4,484.7,597.4,489.7,600.6,489.7L600.6,489.7z"/>
	</g>
</g>
<g>
	<g>
		<path fill="#FDFDFD" d="M603.1,356.9c3.2,0,3.2-5,0-5C599.8,351.9,599.8,356.9,603.1,356.9L603.1,356.9z"/>
	</g>
</g>
<g>
	<g>
		<path fill="#FDFDFD" d="M561.6,350.8c3.2,0,3.2-5,0-5C558.4,345.8,558.4,350.8,561.6,350.8L561.6,350.8z"/>
	</g>
</g>
<rect x="-0.5" y="545.7" fill="#D88C07" width="841.9" height="49.8"/>
<polygon fill="#D88C07" points="0,546.5 24.5,525.9 38.2,536.2 55.8,525.9 75.8,536.2 93.3,536.2 99.6,525.9 129.6,546.5 
	149.6,530.9 172.2,525.9 192.2,536.2 206,530.9 218.5,525.9 248.5,512.1 253.5,529.3 284.8,529.3 302.3,529.3 314.9,539.6 
	337.4,518.3 359.9,529.3 378.7,529.3 398.7,538.4 420.9,512.1 436.3,519.6 436.3,535.9 466.3,529.3 481.3,512.1 497.6,523.4 
	532.7,529.3 560.2,535.9 575.2,512.1 607.8,534.6 645.3,520.9 654.1,537.1 686.6,535.9 696.6,518.3 715.4,529.3 730.4,534.6 
	749.2,529.3 778,529.3 801.8,538.4 820.6,523.4 835.6,535.9 841.9,540.7 841.9,546.5 "/>
<polygon fill="#AA6F14" points="166.3,546.5 144.7,577.3 200.8,577.3 185.6,561.9 224.8,561.9 204,546.5 "/>
<polygon fill="#AA6F14" points="693.1,591.9 652.5,566.3 588,558.8 634.7,545.5 717.6,560.9 712.5,542.6 734,545.1 730.8,573.3 "/>
<polygon fill="#AA6F14" points="294.9,575.1 312.9,542.1 257.2,548.3 274,561.9 235,566.3 257.4,579.3 "/>
<polygon fill="#AA6F14" points="401.5,537.5 360.6,531.9 353.4,548 359.8,579.2 377.5,565.8 408.7,588 420.7,560 453.6,574.4 
	446.4,548.8 412.7,548.8 403.5,560 381.5,544.8 "/>
<polygon fill="#AA6F14" points="27.2,595.3 44.9,595 76.7,595.3 52.2,577 72.7,543.6 48.7,553.3 "/>
<polygon fill="#AA6F14" points="495.7,542.1 474.1,572.9 530.2,572.9 515,557.5 554.2,557.5 533.4,542.1 "/>
<polygon fill="#AA6F14" points="774.2,546.2 742.9,567.1 795.2,587.4 786.6,567.6 823.2,581.8 809.4,559.9 "/>
<rect x="86.8" y="202.8" fill="#135F77" width="156.9" height="102.2"/>
<g>
	<rect x="95.4" y="212.6" fill="none" width="146.3" height="74.9"/>
	<path fill="#FFFFFF" d="M101.8,212.3l6.1,13.8H105l-0.9-2.1h-4.6l-0.9,2.1h-2.9L101.8,212.3z M103,221.7l-1.2-2.9l-1.2,2.9H103z"/>
	<path fill="#FFFFFF" d="M109,212.6h4.4c1.5,0,2.7,0.6,3.5,1.4c0.8,0.8,1.3,1.6,1.3,3.1v0.4c0,0.9-0.3,1.8-0.8,2.6
		c-0.5,0.7-0.8,0.9-1.6,1.2l3.1,4.9h-3.3l-3.8-6v6H109L109,212.6z M115.4,217.1c0-0.5-0.2-0.9-0.5-1.3c-0.3-0.3-1-0.5-1.7-0.5h-1.5
		v3.7h1v0h0.9C114.6,219,115.4,218.2,115.4,217.1z"/>
	<path fill="#FFFFFF" d="M123.5,212.6c2.1,0,3.7,0.8,4.9,2c1.2,1.2,1.8,2.8,1.8,4.8c0,2-0.6,3.6-1.8,4.8c-1.3,1.3-2.9,2-4.9,2H120
		v-13.5L123.5,212.6L123.5,212.6z M123.5,215.3h-0.9v8.1h0.9c2.4,0,4-1.6,4-4.1C127.5,216.9,125.9,215.3,123.5,215.3z"/>
	<path fill="#FFFFFF" d="M139.4,220.8v-8.2h2.7v8.2c0,1.5-0.5,2.8-1.6,3.9c-1.1,1.1-2.3,1.6-3.8,1.6c-1.5,0-2.8-0.5-3.8-1.6
		c-1.1-1.1-1.6-2.4-1.6-3.9v-8.2h2.7v8.2c0,1.5,1.2,2.7,2.7,2.7C138.2,223.5,139.4,222.3,139.4,220.8z"/>
	<path fill="#FFFFFF" d="M143.7,212.6h2.7v13.5h-2.7V212.6z"/>
	<path fill="#FFFFFF" d="M156.1,220.1v-7.5h2.7v13.8l-8-7.8v7.5h-2.7v-13.8L156.1,220.1z"/>
	<path fill="#FFFFFF" d="M171.5,214.5c1.3,1.3,2,3,2,4.9c0,1.9-0.7,3.5-2,4.9c-1.3,1.3-2.9,2-4.8,2c-1.9,0-3.5-0.7-4.8-2
		c-1.3-1.3-2-3-2-4.9c0-1.9,0.7-3.5,2-4.9c1.3-1.3,2.9-2,4.8-2C168.6,212.5,170.2,213.2,171.5,214.5z M163.8,216.4
		c-0.8,0.8-1.2,1.8-1.2,2.9c0,1.1,0.4,2.1,1.2,2.9c0.8,0.8,1.7,1.2,2.9,1.2c1.1,0,2.1-0.4,2.9-1.2c0.8-0.8,1.2-1.8,1.2-2.9
		c0-1.1-0.4-2.1-1.2-2.9c-0.8-0.8-1.7-1.2-2.9-1.2C165.6,215.2,164.6,215.6,163.8,216.4z"/>
	<path fill="#FFFFFF" d="M187.7,220.8v-8.2h2.7v8.2c0,1.5-0.5,2.8-1.6,3.9c-1.1,1.1-2.3,1.6-3.8,1.6c-1.5,0-2.8-0.5-3.8-1.6
		c-1.1-1.1-1.6-2.4-1.6-3.9v-8.2h2.7v8.2c0,1.5,1.2,2.7,2.7,2.7C186.4,223.5,187.7,222.3,187.7,220.8z"/>
	<path fill="#FFFFFF" d="M200,220.1v-7.5h2.7v13.8l-8-7.8v7.5H192v-13.8L200,220.1z"/>
	<path fill="#FFFFFF" d="M215.4,214.5c1.3,1.3,2,3,2,4.9c0,1.9-0.7,3.5-2,4.9c-1.3,1.3-2.9,2-4.8,2c-1.9,0-3.5-0.7-4.8-2
		c-1.3-1.3-2-3-2-4.9c0-1.9,0.7-3.5,2-4.9c1.3-1.3,2.9-2,4.8-2C212.5,212.5,214.1,213.2,215.4,214.5z M207.8,216.4
		c-0.8,0.8-1.2,1.8-1.2,2.9c0,1.1,0.4,2.1,1.2,2.9c0.8,0.8,1.7,1.2,2.9,1.2c1.1,0,2.1-0.4,2.9-1.2c0.8-0.8,1.2-1.8,1.2-2.9
		c0-1.1-0.4-2.1-1.2-2.9c-0.8-0.8-1.7-1.2-2.9-1.2C209.5,215.2,208.6,215.6,207.8,216.4z"/>
	<path fill="#FFFFFF" d="M103.1,238.8c0.3,0.2,0.8,0.4,1,0.7c0.8,0.8,1.2,1.8,1.2,3c0,1.2-0.4,2.2-1.2,3c-0.8,0.8-1.8,1.3-2.9,1.3
		h-5v-13.5H99h0.9c1,0,1.9,0.4,2.6,1.1c0.7,0.7,1.1,1.6,1.1,2.6C103.6,237.6,103.3,238.3,103.1,238.8z M99.9,235.9h-1.1v2.5
		c0.2,0,0.6,0,1-0.1c0.6-0.1,1.2-0.6,1.2-1.2C101,236.4,100.5,235.9,99.9,235.9z M102.7,242.5c0-0.9-0.7-1.6-1.5-1.7
		c-0.8,0-1.5,0-2.3,0v3.3h0.5h1.8C102,244.1,102.7,243.4,102.7,242.5z"/>
	<path fill="#FFFFFF" d="M117.5,235.1c1.3,1.3,2,3,2,4.9c0,1.9-0.7,3.5-2,4.9c-1.3,1.3-2.9,2-4.8,2c-1.9,0-3.5-0.7-4.8-2
		c-1.3-1.3-2-3-2-4.9c0-1.9,0.7-3.5,2-4.9c1.3-1.3,2.9-2,4.8-2C114.6,233.1,116.2,233.8,117.5,235.1z M109.9,237.1
		c-0.8,0.8-1.2,1.8-1.2,2.9c0,1.1,0.4,2.1,1.2,2.9c0.8,0.8,1.7,1.2,2.9,1.2c1.1,0,2.1-0.4,2.9-1.2c0.8-0.8,1.2-1.8,1.2-2.9
		c0-1.1-0.4-2.1-1.2-2.9c-0.8-0.8-1.7-1.2-2.9-1.2C111.6,235.8,110.6,236.3,109.9,237.1z"/>
	<path fill="#FFFFFF" d="M125,232.9l6.1,13.8h-2.9l-0.9-2.1h-4.6l-0.9,2.1h-2.9L125,232.9z M126.2,242.3l-1.2-2.9l-1.2,2.9H126.2z"
		/>
	<path fill="#FFFFFF" d="M132.2,233.2h4.4c1.5,0,2.7,0.6,3.5,1.4c0.8,0.8,1.3,1.6,1.3,3.1v0.4c0,0.9-0.3,1.8-0.8,2.6
		c-0.5,0.7-0.8,0.9-1.6,1.3l3.1,4.9h-3.3l-3.8-6v6h-2.7L132.2,233.2z M138.6,237.7c0-0.5-0.2-0.9-0.5-1.3c-0.3-0.3-1-0.5-1.7-0.5
		h-1.5v3.7h1v0h0.9C137.8,239.7,138.6,238.8,138.6,237.7z"/>
	<path fill="#FFFFFF" d="M146.7,233.2c2.1,0,3.7,0.8,4.9,2c1.2,1.2,1.8,2.8,1.8,4.8c0,2-0.6,3.6-1.8,4.8c-1.3,1.3-2.9,2-4.9,2h-3.5
		v-13.5L146.7,233.2L146.7,233.2z M146.7,235.9h-0.9v8.1h0.9c2.4,0,4-1.6,4-4.1C150.7,237.5,149.1,235.9,146.7,235.9z"/>
</g>
<rect x="54.2" y="314.6" fill="#D8D8BF" width="226" height="84.4"/>
<rect x="108.2" y="347" fill="#010202" width="14.2" height="14.4"/>
<rect x="130.2" y="347" fill="#010202" width="14.2" height="14.4"/>
<ellipse fill="#72726D" cx="115.3" cy="354.2" rx="2.8" ry="2.9"/>
<ellipse fill="#72726D" cx="137.3" cy="354.2" rx="2.8" ry="2.9"/>
<line fill="none" stroke="#3A3C90" stroke-miterlimit="10" x1="63.4" y1="387.5" x2="280.2" y2="387.5"/>
<line fill="none" x1="69.8" y1="352.3" x2="295.8" y2="352.3"/>
<line fill="none" stroke="#E31913" stroke-miterlimit="10" x1="63.4" y1="396.8" x2="280.2" y2="396.8"/>
<line fill="none" stroke="#E31913" stroke-miterlimit="10" x1="63.4" y1="325.9" x2="280.2" y2="325.9"/>
<line fill="none" stroke="#3A3C90" stroke-miterlimit="10" x1="63.4" y1="317" x2="280.2" y2="317"/>
<line fill="none" stroke="#3A3C90" stroke-miterlimit="10" x1="57" y1="387.5" x2="60.3" y2="387.5"/>
<line fill="none" stroke="#E31913" stroke-miterlimit="10" x1="57" y1="396.8" x2="60.3" y2="396.8"/>
<line fill="none" stroke="#E31913" stroke-miterlimit="10" x1="58.7" y1="395.1" x2="58.7" y2="398.4"/>
<line fill="none" stroke="#3A3C90" stroke-miterlimit="10" x1="56.7" y1="317" x2="60" y2="317"/>
<line fill="none" stroke="#E31913" stroke-miterlimit="10" x1="56.7" y1="325.9" x2="60" y2="325.9"/>
<line fill="none" stroke="#E31913" stroke-miterlimit="10" x1="58.3" y1="324.3" x2="58.3" y2="327.6"/>
<line fill="none" x1="122.4" y1="347" x2="122.4" y2="288.8"/>
<line fill="none" x1="130.2" y1="347" x2="130.2" y2="287.6"/>
<line fill="none" x1="144.4" y1="347" x2="144.4" y2="287.6"/>
<rect x="198.3" y="347" fill="#010202" width="20.2" height="20.5"/>
<path fill="#5F5F5E" d="M208.4,335.1L208.4,335.1c-3.2,0-5.8,2.6-5.8,5.8v18h11.7v-18C214.3,337.7,211.7,335.1,208.4,335.1z"/>
<rect x="203.8" y="340.1" fill="#6E6E6D" width="1" height="18.9"/>
<rect x="211.9" y="340.1" fill="#6E6E6D" width="1" height="18.9"/>
<rect x="209.1" y="340.1" fill="#6E6E6D" width="1" height="18.9"/>
<rect x="206.6" y="340.1" fill="#6E6E6D" width="1" height="18.9"/>
<g>
	<rect x="311.7" y="434.2" fill="#848484" width="257.6" height="39"/>
	<g>
		<rect x="331.4" y="449.9" fill="none" width="281.1" height="20.6"/>
		<path fill="#FFFFFF" d="M334,449.9v7.8h3.9v2H332v-9.8H334z"/>
		<path fill="#FFFFFF" d="M344.5,449.9v2h-3.9v2h2.9v2h-2.9v2h3.9v2h-5.8v-9.8H344.5z"/>
		<path fill="#FFFFFF" d="M349.4,449.7l4.4,10h-2.1l-0.7-1.5h-3.3l-0.7,1.5H345L349.4,449.7z M350.3,456.5l-0.9-2.1l-0.9,2.1H350.3z
			"/>
		<path fill="#FFFFFF" d="M354.6,456.8v-6.9h3.4c0.9,0,1.7,0.3,2.4,1c0.7,0.7,1,1.5,1,2.4c0,1-0.3,1.8-1,2.4c-0.7,0.7-1.5,1-2.4,1
			h-1.4v2.9h-1.9V456.8z M358,451.9h-1.4v3l1.4,0c0.8,0,1.5-0.7,1.5-1.5C359.5,452.6,358.8,451.9,358,451.9z"/>
		<path fill="#FFFFFF" d="M370.6,456.3l4.7-6.6v10h-1.9v-4.1l-2.8,3.9l-2.8-3.9v4.1h-1.9v-10L370.6,456.3z"/>
		<path fill="#FFFFFF" d="M384.5,451.3c1,1,1.4,2.1,1.4,3.5c0,1.4-0.5,2.5-1.4,3.5c-1,1-2.1,1.4-3.5,1.4c-1.4,0-2.5-0.5-3.5-1.4
			c-1-1-1.4-2.1-1.4-3.5c0-1.4,0.5-2.5,1.4-3.5c1-1,2.1-1.5,3.5-1.5S383.5,450.4,384.5,451.3z M378.9,452.7
			c-0.6,0.6-0.9,1.3-0.9,2.1c0,0.8,0.3,1.5,0.9,2.1c0.6,0.6,1.3,0.9,2.1,0.9c0.8,0,1.5-0.3,2.1-0.9c0.6-0.6,0.9-1.3,0.9-2.1
			c0-0.8-0.3-1.5-0.9-2.1c-0.6-0.6-1.3-0.9-2.1-0.9C380.2,451.9,379.5,452.1,378.9,452.7z"/>
		<path fill="#FFFFFF" d="M392.1,449.9v2h-2.4v7.8h-1.9v-7.8h-2.4v-2H392.1z"/>
		<path fill="#FFFFFF" d="M393,449.9h1.9v9.8H393V449.9z"/>
		<path fill="#FFFFFF" d="M404.1,451.3c1,1,1.4,2.1,1.4,3.5c0,1.4-0.5,2.5-1.4,3.5c-1,1-2.1,1.4-3.5,1.4c-1.4,0-2.5-0.5-3.5-1.4
			c-1-1-1.4-2.1-1.4-3.5c0-1.4,0.5-2.5,1.4-3.5c1-1,2.1-1.5,3.5-1.5S403.1,450.4,404.1,451.3z M398.6,452.7
			c-0.6,0.6-0.9,1.3-0.9,2.1c0,0.8,0.3,1.5,0.9,2.1c0.6,0.6,1.3,0.9,2.1,0.9c0.8,0,1.5-0.3,2.1-0.9c0.6-0.6,0.9-1.3,0.9-2.1
			c0-0.8-0.3-1.5-0.9-2.1c-0.6-0.6-1.3-0.9-2.1-0.9C399.8,451.9,399.1,452.1,398.6,452.7z"/>
		<path fill="#FFFFFF" d="M412.2,455.4v-5.4h1.9v10l-5.8-5.6v5.4h-1.9v-10L412.2,455.4z"/>
		<path fill="#FFFFFF" d="M421.6,457.8c0.5,0,1.1-0.5,1.1-1c0-0.9-1.2-1-1.8-1.3c-1.2-0.4-2.2-1.4-2.2-2.7c0-1.7,1.3-3,2.9-3
			c1.5,0,2.7,1.1,2.9,2.6l-1.9,0.4c0-0.5-0.4-1-1-1c-0.5,0-1,0.5-1,1c0,0.9,1.1,1.1,1.8,1.3c1.2,0.4,2.3,1.3,2.3,2.7
			c0,1.7-1.5,3-3.1,3c-1.5,0-2.8-1.1-3.1-2.6l1.9-0.4C420.5,457.4,421.1,457.8,421.6,457.8L421.6,457.8z"/>
		<path fill="#FFFFFF" d="M431.3,449.9v2h-3.9v2h2.9v2h-2.9v2h3.9v2h-5.8v-9.8H431.3z"/>
		<path fill="#FFFFFF" d="M438,455.4v-5.4h1.9v10l-5.8-5.6v5.4h-1.9v-10L438,455.4z"/>
		<path fill="#FFFFFF" d="M443.8,457.8c0.5,0,1.1-0.5,1.1-1c0-0.9-1.2-1-1.8-1.3c-1.2-0.4-2.2-1.4-2.2-2.7c0-1.7,1.3-3,2.9-3
			c1.5,0,2.7,1.1,2.9,2.6l-1.9,0.4c0-0.5-0.4-1-1-1c-0.5,0-1,0.5-1,1c0,0.9,1.1,1.1,1.8,1.3c1.2,0.4,2.3,1.3,2.3,2.7
			c0,1.7-1.5,3-3.1,3c-1.5,0-2.8-1.1-3.1-2.6l1.9-0.4C442.7,457.4,443.3,457.8,443.8,457.8L443.8,457.8z"/>
		<path fill="#FFFFFF" d="M455.8,451.3c1,1,1.4,2.1,1.4,3.5c0,1.4-0.5,2.5-1.4,3.5c-1,1-2.1,1.4-3.5,1.4c-1.4,0-2.5-0.5-3.5-1.4
			c-1-1-1.4-2.1-1.4-3.5c0-1.4,0.5-2.5,1.4-3.5c1-1,2.1-1.5,3.5-1.5S454.8,450.4,455.8,451.3z M450.2,452.7
			c-0.6,0.6-0.9,1.3-0.9,2.1c0,0.8,0.3,1.5,0.9,2.1c0.6,0.6,1.3,0.9,2.1,0.9c0.8,0,1.5-0.3,2.1-0.9c0.6-0.6,0.9-1.3,0.9-2.1
			c0-0.8-0.3-1.5-0.9-2.1c-0.6-0.6-1.3-0.9-2.1-0.9C451.5,451.9,450.8,452.1,450.2,452.7z"/>
		<path fill="#FFFFFF" d="M458,449.9h3.1c1.1,0,1.9,0.4,2.5,1c0.6,0.6,0.9,1.1,0.9,2.2v0.3c0,0.7-0.2,1.3-0.6,1.9
			c-0.3,0.5-0.6,0.7-1.2,0.9l2.2,3.5h-2.4l-2.8-4.3v4.3H458L458,449.9z M462.6,453.2c0-0.4-0.1-0.7-0.4-0.9
			c-0.3-0.2-0.7-0.4-1.2-0.4H460v2.7h0.7v0h0.6C462.1,454.6,462.6,454,462.6,453.2z"/>
	</g>
</g>
<path fill="#E5CD9C" d="M486.7,300c0,49.6-6.7,76.5-26.1,76.5c-19.9,0-26.1-26.8-26.1-76.5s11.7-65.1,26.1-65.1
	C475,234.9,486.7,250.4,486.7,300z"/>
<path fill="#E5CD9C" d="M442,324.8c0,49.6-6,76.5-26.1,76.5c-19.9,0-26.1-26.8-26.1-76.5s11.7-89.8,26.1-89.8c3.6,0,7,2.5,10.2,7.1
	C435.5,255.6,442,287.6,442,324.8z"/>
<rect x="449.8" y="252.3" fill="#E5CD9C" width="31.6" height="31.6"/>
<path fill="#E5CD9C" d="M432.2,234.9h-29.8c-7,0-12.6,5.6-12.6,12.6v70.5h42.4V234.9z"/>
<path fill="#E5CD9C" d="M428.7,234.9h44.4c7,0,12.6,5.6,12.6,12.6v70.5h-57V234.9z"/>
<path fill="none" stroke="#000000" stroke-width="3" stroke-miterlimit="10" d="M439.4,179.5"/>
<path fill="none" stroke="#000000" stroke-width="3" stroke-miterlimit="10" d="M440,379.3"/>
<path fill="#C7AF85" d="M392,325.2c0,0,27.5,5.8,42.5,1.7"/>
<path fill="#C7AF85" d="M396.1,334c0,0,14.2,5.7,26.8,2"/>
<path fill="#C7AF85" d="M403.2,329.9c0,0,16-4.3,23,2"/>
<path fill="#C7AF85" d="M405.5,320.1c0,0,9.8-4.6,20.6,0"/>
<path fill="#C7AF85" d="M434.6,256.8c0,0-27.5-5.8-42.6-1.7"/>
<path fill="#C7AF85" d="M430.5,248c0,0-14.2-5.7-26.8-2"/>
<path fill="#C7AF85" d="M423.4,252.1c0,0-16,4.3-23-2"/>
<path fill="#C7AF85" d="M421,261.9c0,0-9.8,4.6-20.6,0"/>
<path fill="#C7AF85" d="M438.9,308.1c0,0,27.5,5.8,42.5,1.7"/>
<path fill="#C7AF85" d="M442.9,316.9c0,0,14.2,5.7,26.8,2"/>
<path fill="#C7AF85" d="M450,312.8c0,0,16-4.3,23,2"/>
<path fill="#C7AF85" d="M452.4,303c0,0,9.8-4.6,20.6,0"/>
<path fill="#C7AF85" d="M441.5,251.1c0,0,27.5,5.8,42.5,1.7"/>
<path fill="#C7AF85" d="M445.5,259.8c0,0,14.2,5.7,26.8,2"/>
<path fill="#C7AF85" d="M452.6,255.8c0,0,16-4.3,23,2"/>
<path fill="#C7AF85" d="M455,246c0,0,9.8-4.6,20.6,0"/>
<path fill="#C7AF85" d="M440.9,356.6c0-37.6-0.9-121.6-0.9-121.6l-26.7,0l2.7,166.3C416,401.2,437.7,405.8,440.9,356.6z"/>
<ellipse fill="#E5CD9C" cx="416" cy="379.3" rx="15.6" ry="18"/>
<ellipse fill="#DDB380" cx="416" cy="379.8" rx="14.4" ry="17"/>
<path fill="#C7AF85" d="M486.4,338.5c0.3-31.9,0-103.4,0-103.4l-27.5-0.3l1.5,141.4C460.4,376.3,482.8,380.4,486.4,338.5z"/>
<ellipse fill="#E5CD9C" cx="460.6" cy="355.9" rx="15.1" ry="18"/>
<ellipse fill="#DDB380" cx="460.2" cy="356.6" rx="14.4" ry="17"/>
<g>
	<rect x="503.3" y="315" fill="none" width="92.8" height="93.7"/>
	<path fill="#FFFFFF" d="M507.9,325.8c0.7,0,1.6-0.6,1.6-1.4c0-1.2-1.6-1.4-2.6-1.7c-1.6-0.6-3.1-1.9-3.1-3.7c0-2.3,1.8-4.1,4.1-4.1
		c2.1,0,3.8,1.5,4.1,3.5l-2.7,0.6c0-0.7-0.6-1.4-1.4-1.4c-0.8,0-1.4,0.6-1.4,1.4c0,1.2,1.5,1.5,2.5,1.8c1.7,0.5,3.2,1.8,3.2,3.7
		c0,2.3-2,4.1-4.3,4.1c-2.1,0-4-1.5-4.3-3.5l2.7-0.6C506.4,325.2,507.2,325.8,507.9,325.8L507.9,325.8z"/>
	<path fill="#FFFFFF" d="M516.1,315v5.4h4.5V315h2.7v13.5h-2.7v-5.4h-4.5v5.4h-2.7V315H516.1z"/>
	<path fill="#FFFFFF" d="M536.1,316.9c1.3,1.3,2,3,2,4.8c0,1.9-0.7,3.5-2,4.8c-1.3,1.3-2.9,2-4.8,2c-1.9,0-3.5-0.7-4.8-2
		c-1.3-1.3-2-2.9-2-4.8c0-1.9,0.7-3.5,2-4.8c1.3-1.3,2.9-2,4.8-2S534.8,315.6,536.1,316.9z M528.4,318.8c-0.8,0.8-1.2,1.8-1.2,2.9
		c0,1.1,0.4,2.1,1.2,2.9c0.8,0.8,1.8,1.2,2.9,1.2c1.1,0,2.1-0.4,2.9-1.2c0.8-0.8,1.2-1.8,1.2-2.9c0-1.1-0.4-2.1-1.2-2.9
		c-0.8-0.8-1.8-1.2-2.9-1.2C530.1,317.6,529.2,318,528.4,318.8z"/>
	<path fill="#FFFFFF" d="M550.4,316.9c1.3,1.3,2,3,2,4.8c0,1.9-0.7,3.5-2,4.8c-1.3,1.3-2.9,2-4.8,2c-1.9,0-3.5-0.7-4.8-2
		c-1.3-1.3-2-2.9-2-4.8c0-1.9,0.7-3.5,2-4.8c1.3-1.3,2.9-2,4.8-2S549.1,315.6,550.4,316.9z M542.7,318.8c-0.8,0.8-1.2,1.8-1.2,2.9
		c0,1.1,0.4,2.1,1.2,2.9c0.8,0.8,1.8,1.2,2.9,1.2c1.1,0,2.1-0.4,2.9-1.2c0.8-0.8,1.2-1.8,1.2-2.9c0-1.1-0.4-2.1-1.2-2.9
		c-0.8-0.8-1.8-1.2-2.9-1.2C544.5,317.6,543.5,318,542.7,318.8z"/>
	<path fill="#FFFFFF" d="M561.1,315v2.7h-3.3v10.8h-2.7v-10.8h-3.3V315H561.1z"/>
	<path fill="#FFFFFF" d="M513,335.5v2.7h-3.3V349H507v-10.8h-3.3v-2.7H513z"/>
	<path fill="#FFFFFF" d="M516.9,335.5v5.4h4.5v-5.4h2.7V349h-2.7v-5.4h-4.5v5.4h-2.7v-13.5H516.9z"/>
	<path fill="#FFFFFF" d="M533.8,335.5v2.7h-5.4v2.7h4.1v2.7h-4.1v2.7h5.4v2.7h-8.1v-13.5H533.8z"/>
	<path fill="#FFFFFF" d="M510.5,369.6c-1.9,0-3.5-0.7-4.8-2c-1.3-1.3-2-2.9-2-4.8c0-1.9,0.7-3.5,2-4.8c1.3-1.3,2.9-2,4.8-2l0,0
		c2.1,0,3.7,0.9,4.8,2l-1.9,1.9c-0.8-0.8-1.8-1.2-2.9-1.2c-1.1,0-2.1,0.4-2.9,1.2c-0.8,0.8-1.2,1.8-1.2,2.9c0,1.1,0.4,2.1,1.2,2.9
		c0.8,0.8,1.8,1.2,2.9,1.2c1.1,0,2.1-0.4,2.9-1.2l1.9,1.9C514.2,368.7,512.6,369.6,510.5,369.6z"/>
	<path fill="#FFFFFF" d="M521.9,355.7l6.1,13.7h-2.9l-0.9-2h-4.6l-0.9,2h-2.9L521.9,355.7z M523.1,365l-1.2-2.8l-1.2,2.8H523.1z"/>
	<path fill="#FFFFFF" d="M537.3,363.4V356h2.7v13.8l-8.1-7.7v7.5h-2.7v-13.8L537.3,363.4z"/>
	<path fill="#FFFFFF" d="M549.8,363.4V356h2.7v13.8l-8.1-7.7v7.5h-2.7v-13.8L549.8,363.4z"/>
	<path fill="#FFFFFF" d="M565.3,357.9c1.3,1.3,2,3,2,4.8c0,1.9-0.7,3.5-2,4.8c-1.3,1.3-2.9,2-4.8,2c-1.9,0-3.5-0.7-4.8-2
		c-1.3-1.3-2-2.9-2-4.8c0-1.9,0.7-3.5,2-4.8c1.3-1.3,2.9-2,4.8-2S563.9,356.6,565.3,357.9z M557.6,359.8c-0.8,0.8-1.2,1.8-1.2,2.9
		c0,1.1,0.4,2.1,1.2,2.9c0.8,0.8,1.8,1.2,2.9,1.2c1.1,0,2.1-0.4,2.9-1.2c0.8-0.8,1.2-1.8,1.2-2.9c0-1.1-0.4-2.1-1.2-2.9
		c-0.8-0.8-1.8-1.2-2.9-1.2C559.3,358.6,558.4,359,557.6,359.8z"/>
	<path fill="#FFFFFF" d="M576.5,363.4V356h2.7v13.8l-8.1-7.7v7.5h-2.7v-13.8L576.5,363.4z"/>
</g>
<polygon fill="#FDFDFD" points="351.8,343.6 383.3,343.6 367.5,311.6 "/>
<line fill="none" stroke="#FAFAF8" stroke-width="12" stroke-miterlimit="10" x1="367.5" y1="330.6" x2="367.5" y2="405.9"/>
<polygon fill="#FDFDFD" points="356.2,379.3 324.7,379.3 340.5,411.3 "/>
<line fill="none" stroke="#FAFAF8" stroke-width="12" stroke-miterlimit="10" x1="340.5" y1="392.3" x2="340.5" y2="317"/>
<polygon fill="#FDFDFD" points="109.3,399.6 140.8,399.6 125,367.6 "/>
<line fill="none" stroke="#FAFAF8" stroke-width="12" stroke-miterlimit="10" x1="125" y1="386.6" x2="125" y2="433.2"/>
<g>
	<rect x="53" y="426.4" fill="none" width="92.8" height="93.7"/>
	<path fill="#FFFFFF" d="M60.4,435.1l6.6-9v13.8h-2.7v-5.6l-3.9,5.4l-3.9-5.4v5.6h-2.7v-13.8L60.4,435.1z"/>
	<path fill="#FFFFFF" d="M79.8,428.3c1.3,1.3,2,3,2,4.8c0,1.9-0.7,3.5-2,4.8c-1.3,1.3-2.9,2-4.8,2c-1.9,0-3.5-0.7-4.8-2
		c-1.3-1.3-2-2.9-2-4.8c0-1.9,0.7-3.5,2-4.8c1.3-1.3,2.9-2,4.8-2C76.8,426.3,78.4,427,79.8,428.3z M72.1,430.2
		c-0.8,0.8-1.2,1.8-1.2,2.9c0,1.1,0.4,2.1,1.2,2.9c0.8,0.8,1.8,1.2,2.9,1.2c1.1,0,2.1-0.4,2.9-1.2c0.8-0.8,1.2-1.8,1.2-2.9
		c0-1.1-0.4-2.1-1.2-2.9c-0.8-0.8-1.8-1.2-2.9-1.2C73.8,429,72.9,429.4,72.1,430.2z"/>
	<path fill="#FFFFFF" d="M87.3,440.2l-6.1-13.8h2.9l3.2,7.4l3.2-7.4h2.9L87.3,440.2z"/>
	<path fill="#FFFFFF" d="M102.7,426.4v2.7h-5.4v2.7h4.1v2.7h-4.1v2.7h5.4v2.7h-8.1v-13.5H102.7z"/>
	<path fill="#FFFFFF" d="M62.6,446.9v2.7h-3.3v10.8h-2.7v-10.8h-3.3v-2.7H62.6z"/>
	<path fill="#FFFFFF" d="M67.3,446.6l6.1,13.7h-2.9l-0.9-2H65l-0.9,2h-2.9L67.3,446.6z M68.6,455.9l-1.2-2.8l-1.2,2.8H68.6z"/>
	<path fill="#FFFFFF" d="M82.7,454.4v-7.5h2.7v13.8l-8.1-7.7v7.5h-2.7v-13.8L82.7,454.4z"/>
	<path fill="#FFFFFF" d="M89.8,446.9v6l3.4-6h3.1l-4,6.8l4.6,6.6h-3.3l-3.9-5.6v5.6h-2.7v-13.5H89.8z"/>
	<path fill="#FFFFFF" d="M105.9,446.9v10.8h5.4v2.7h-8.1v-13.5H105.9z"/>
	<path fill="#FFFFFF" d="M120.6,446.9v2.7h-5.4v2.7h4.1v2.7h-4.1v2.7h5.4v2.7h-8.1v-13.5H120.6z"/>
	<path fill="#FFFFFF" d="M129.9,446.9v2.7h-5.4v2.7h4.1v2.7h-4.1v5.4h-2.7v-13.5H129.9z"/>
	<path fill="#FFFFFF" d="M139.9,446.9v2.7h-3.3v10.8h-2.7v-10.8h-3.3v-2.7H139.9z"/>
	<path fill="#FFFFFF" d="M64.9,469.3c1.3,1.3,2,3,2,4.8c0,1.9-0.7,3.5-2,4.8c-1.3,1.3-2.9,2-4.8,2c-1.9,0-3.5-0.7-4.8-2
		c-1.3-1.3-2-2.9-2-4.8c0-1.9,0.7-3.5,2-4.8c1.3-1.3,2.9-2,4.8-2C62,467.3,63.6,468,64.9,469.3z M57.2,471.2
		c-0.8,0.8-1.2,1.8-1.2,2.9c0,1.1,0.4,2.1,1.2,2.9c0.8,0.8,1.8,1.2,2.9,1.2c1.1,0,2.1-0.4,2.9-1.2c0.8-0.8,1.2-1.8,1.2-2.9
		c0-1.1-0.4-2.1-1.2-2.9c-0.8-0.8-1.8-1.2-2.9-1.2C59,470,58,470.4,57.2,471.2z"/>
	<path fill="#FFFFFF" d="M68.1,467.4h4.4c1.5,0,2.7,0.6,3.5,1.4c0.8,0.8,1.3,1.6,1.3,3.1v0.4c0,0.9-0.3,1.8-0.9,2.6
		c-0.5,0.7-0.8,0.9-1.6,1.2l3.1,4.9h-3.3l-3.9-6v6h-2.7L68.1,467.4z M74.5,471.9c0-0.5-0.2-0.9-0.5-1.3c-0.4-0.3-1-0.5-1.7-0.5h-1.5
		v3.7h1v0h0.9C73.7,473.8,74.5,473,74.5,471.9z"/>
	<path fill="#FFFFFF" d="M84.1,467.4h4.4c1.5,0,2.7,0.6,3.5,1.4c0.8,0.8,1.3,1.6,1.3,3.1v0.4c0,0.9-0.3,1.8-0.9,2.6
		c-0.5,0.7-0.8,0.9-1.6,1.2l3.1,4.9h-3.3l-3.9-6v6h-2.7L84.1,467.4z M90.6,471.9c0-0.5-0.2-0.9-0.5-1.3c-0.4-0.3-1-0.5-1.7-0.5h-1.5
		v3.7h1v0h0.9C89.8,473.8,90.6,473,90.6,471.9z"/>
	<path fill="#FFFFFF" d="M95.2,467.4h2.7v13.5h-2.7V467.4z"/>
	<path fill="#FFFFFF" d="M105.9,467.3c2.1,0,3.7,0.9,4.8,2l-1.9,1.9c-0.8-0.8-1.8-1.2-2.9-1.2c-1.1,0-2.1,0.4-2.9,1.2
		c-0.8,0.8-1.2,1.8-1.2,2.9c0,1.1,0.4,2.1,1.2,2.9c0.8,0.8,1.8,1.2,2.9,1.2c1.7,0,3.1-1.1,3.7-2.4h-3.8v-2.6h6.9
		c0.2,2.5-0.6,4.3-2,5.7c-1.3,1.3-2.9,2-4.8,2c-1.9,0-3.5-0.7-4.8-2c-1.3-1.3-2-2.9-2-4.8c0-1.9,0.7-3.5,2-4.8
		C102.4,468,104,467.3,105.9,467.3L105.9,467.3z"/>
	<path fill="#FFFFFF" d="M116.5,467.4v5.4h4.5v-5.4h2.7v13.5H121v-5.4h-4.5v5.4h-2.7v-13.5H116.5z"/>
	<path fill="#FFFFFF" d="M134.2,467.4v2.7h-3.3v10.8h-2.7v-10.8h-3.3v-2.7H134.2z"/>
</g>
<path fill="none" stroke="#FAFAF8" stroke-width="6" stroke-miterlimit="10" d="M189.5,366.6c-21.1-17.1,0-29.8,0-29.8"/>
<polygon fill="#FDFDFD" points="191,359.9 181.8,368.3 194.9,373.5 "/>
<path fill="none" stroke="#FAFAF8" stroke-width="7" stroke-miterlimit="10" d="M227.7,340.8c21.1,17.1,0,29.8,0,29.8"/>
<polygon fill="#FDFDFD" points="226.2,347.5 235.4,339.1 222.3,333.9 "/>
<g>
	<rect x="165.3" y="425.6" fill="none" width="95.3" height="68.3"/>
	<path fill="#FDFDFD" d="M169.9,436.4c0.7,0,1.6-0.6,1.6-1.4c0-1.2-1.6-1.4-2.6-1.7c-1.6-0.6-3.1-1.9-3.1-3.7c0-2.3,1.8-4.1,4.1-4.1
		c2.1,0,3.8,1.5,4.1,3.5l-2.7,0.6c0-0.7-0.6-1.4-1.4-1.4c-0.8,0-1.4,0.6-1.4,1.4c0,1.2,1.5,1.5,2.5,1.8c1.7,0.5,3.2,1.8,3.2,3.7
		c0,2.3-2,4.1-4.3,4.1c-2.1,0-4-1.5-4.3-3.5l2.7-0.6C168.3,435.8,169.1,436.5,169.9,436.4L169.9,436.4z"/>
	<path fill="#FDFDFD" d="M175.4,435v-9.4h4.7c1.3,0,2.4,0.5,3.3,1.4c0.9,0.9,1.4,2,1.4,3.3c0,1.3-0.5,2.4-1.4,3.3
		c-0.9,0.9-2,1.4-3.3,1.4h-2v4h-2.7V435z M180.1,428.3h-2v4.1l2,0c1.1,0,2-0.9,2-2C182.1,429.2,181.2,428.3,180.1,428.3z"/>
	<path fill="#FDFDFD" d="M186,425.6h2.7v13.5H186V425.6z"/>
	<path fill="#FDFDFD" d="M198.5,433.1v-7.5h2.7v13.8l-8.1-7.7v7.5h-2.7v-13.8L198.5,433.1z"/>
	<path fill="#FDFDFD" d="M216.7,425.6v2.7h-3.3v10.8h-2.7v-10.8h-3.3v-2.7H216.7z"/>
	<path fill="#FDFDFD" d="M227.7,427.5c1.3,1.3,2,3,2,4.8c0,1.9-0.7,3.5-2,4.8c-1.3,1.3-2.9,2-4.8,2c-1.9,0-3.5-0.7-4.8-2
		c-1.3-1.3-2-2.9-2-4.8c0-1.9,0.7-3.5,2-4.8c1.3-1.3,2.9-2,4.8-2C224.8,425.5,226.4,426.2,227.7,427.5z M220,429.5
		c-0.8,0.8-1.2,1.8-1.2,2.9c0,1.1,0.4,2.1,1.2,2.9c0.8,0.8,1.8,1.2,2.9,1.2c1.1,0,2.1-0.4,2.9-1.2c0.8-0.8,1.2-1.8,1.2-2.9
		c0-1.1-0.4-2.1-1.2-2.9c-0.8-0.8-1.8-1.2-2.9-1.2C221.7,428.3,220.8,428.7,220,429.5z"/>
	<path fill="#FDFDFD" d="M172.7,454.9l6.6-9v13.8h-2.7V454l-3.9,5.4l-3.9-5.4v5.6h-2.7v-13.8L172.7,454.9z"/>
	<path fill="#FDFDFD" d="M192.1,448c1.3,1.3,2,3,2,4.8c0,1.9-0.7,3.5-2,4.8c-1.3,1.3-2.9,2-4.8,2c-1.9,0-3.5-0.7-4.8-2
		c-1.3-1.3-2-2.9-2-4.8c0-1.9,0.7-3.5,2-4.8c1.3-1.3,2.9-2,4.8-2C189.2,446,190.8,446.7,192.1,448z M184.4,450
		c-0.8,0.8-1.2,1.8-1.2,2.9c0,1.1,0.4,2.1,1.2,2.9c0.8,0.8,1.8,1.2,2.9,1.2c1.1,0,2.1-0.4,2.9-1.2c0.8-0.8,1.2-1.8,1.2-2.9
		c0-1.1-0.4-2.1-1.2-2.9c-0.8-0.8-1.8-1.2-2.9-1.2C186.2,448.8,185.2,449.2,184.4,450z"/>
	<path fill="#FDFDFD" d="M199.6,459.9l-6.1-13.8h2.9l3.2,7.4l3.2-7.4h2.9L199.6,459.9z"/>
	<path fill="#FDFDFD" d="M215,446.1v2.7h-5.4v2.7h4.1v2.7h-4.1v2.7h5.4v2.7h-8.1v-13.5H215z"/>
	<path fill="#FDFDFD" d="M230,446.1v2.7h-3.3v10.8H224v-10.8h-3.3v-2.7H230z"/>
	<path fill="#FDFDFD" d="M233.9,446.1v5.4h4.5v-5.4h2.7v13.5h-2.7v-5.4h-4.5v5.4h-2.7v-13.5H233.9z"/>
	<path fill="#FDFDFD" d="M250.8,446.1v2.7h-5.4v2.7h4.1v2.7h-4.1v2.7h5.4v2.7h-8.1v-13.5H250.8z"/>
	<path fill="#FDFDFD" d="M172.5,480.2c-1.9,0-3.5-0.7-4.8-2c-1.3-1.3-2-2.9-2-4.8c0-1.9,0.7-3.5,2-4.8c1.3-1.3,2.9-2,4.8-2l0,0
		c2.1,0,3.7,0.9,4.8,2l-1.9,1.9c-0.8-0.8-1.8-1.2-2.9-1.2c-1.1,0-2.1,0.4-2.9,1.2c-0.8,0.8-1.2,1.8-1.2,2.9c0,1.1,0.4,2.1,1.2,2.9
		c0.8,0.8,1.8,1.2,2.9,1.2c1.1,0,2.1-0.4,2.9-1.2l1.9,1.9C176.2,479.3,174.6,480.2,172.5,480.2z"/>
	<path fill="#FDFDFD" d="M183.8,466.4l6.1,13.7H187l-0.9-2h-4.6l-0.9,2h-2.9L183.8,466.4z M185.1,475.7l-1.2-2.8l-1.2,2.8H185.1z"/>
	<path fill="#FDFDFD" d="M199.2,474.1v-7.5h2.7v13.8l-8.1-7.7v7.5h-2.7v-13.8L199.2,474.1z"/>
	<path fill="#FDFDFD" d="M211.7,474.1v-7.5h2.7v13.8l-8.1-7.7v7.5h-2.7v-13.8L211.7,474.1z"/>
	<path fill="#FDFDFD" d="M227.2,468.5c1.3,1.3,2,3,2,4.8c0,1.9-0.7,3.5-2,4.8c-1.3,1.3-2.9,2-4.8,2c-1.9,0-3.5-0.7-4.8-2
		c-1.3-1.3-2-2.9-2-4.8c0-1.9,0.7-3.5,2-4.8c1.3-1.3,2.9-2,4.8-2C224.3,466.5,225.9,467.2,227.2,468.5z M219.5,470.5
		c-0.8,0.8-1.2,1.8-1.2,2.9c0,1.1,0.4,2.1,1.2,2.9c0.8,0.8,1.8,1.2,2.9,1.2c1.1,0,2.1-0.4,2.9-1.2c0.8-0.8,1.2-1.8,1.2-2.9
		c0-1.1-0.4-2.1-1.2-2.9c-0.8-0.8-1.8-1.2-2.9-1.2C221.3,469.3,220.3,469.7,219.5,470.5z"/>
	<path fill="#FDFDFD" d="M238.5,474.1v-7.5h2.7v13.8l-8.1-7.7v7.5h-2.7v-13.8L238.5,474.1z"/>
</g>
<path fill="#919193" d="M773.1,226.7c0,0-29.6,0.6-45.6-11c-15.8,11.3-45.8,11-45.8,11s-15.3,70.1,45.8,96.3
	C784.9,302.6,773.1,226.7,773.1,226.7z"/>
<path fill="#3F96D2" d="M767.3,231.7c0,0-25.9,0.5-39.9-9.7c-13.8,10-40,9.7-40,9.7s-13.4,61.7,40,84.9
	C777.7,298.6,767.3,231.7,767.3,231.7z"/>
<path fill="#104597" d="M727.4,222.1c8.1,41.1,0,94.6,0,94.6s46.1-9.4,39.9-84.9C740.9,229.1,727.4,222.1,727.4,222.1z"/>
<g>
	<rect x="653.5" y="333.4" fill="none" width="151.8" height="173.5"/>
	<path fill="#FAFAFA" d="M662.3,350.1c-2.3,0-4.3-0.8-5.9-2.4c-1.6-1.6-2.5-3.6-2.5-5.9c0-2.3,0.8-4.3,2.5-5.9
		c1.6-1.6,3.6-2.5,5.9-2.5l0,0c2.6,0,4.6,1.1,5.9,2.5l-2.4,2.4c-1-1-2.2-1.5-3.6-1.5c-1.4,0-2.6,0.5-3.5,1.5c-1,1-1.5,2.2-1.5,3.6
		c0,1.4,0.5,2.6,1.5,3.6c1,1,2.2,1.5,3.5,1.5c1.4,0,2.6-0.5,3.6-1.5l2.4,2.4C666.9,349,664.9,350.1,662.3,350.1z"/>
	<path fill="#FAFAFA" d="M682.1,335.8c1.6,1.6,2.5,3.6,2.5,5.9c0,2.3-0.8,4.3-2.5,5.9c-1.6,1.6-3.6,2.4-5.9,2.4
		c-2.3,0-4.3-0.8-5.9-2.4c-1.6-1.6-2.5-3.6-2.5-5.9c0-2.3,0.8-4.3,2.5-5.9c1.6-1.6,3.6-2.5,5.9-2.5S680.5,334.1,682.1,335.8z
		 M672.7,338.1c-1,1-1.5,2.2-1.5,3.6c0,1.4,0.5,2.6,1.5,3.6c1,1,2.2,1.5,3.6,1.5c1.4,0,2.6-0.5,3.5-1.5s1.5-2.2,1.5-3.6
		c0-1.4-0.5-2.6-1.5-3.6c-1-1-2.2-1.5-3.5-1.5C674.8,336.6,673.6,337.1,672.7,338.1z"/>
	<path fill="#FAFAFA" d="M689.4,333.4v13.2h6.6v3.3h-10v-16.5H689.4z"/>
	<path fill="#FAFAFA" d="M700.8,333.4v13.2h6.6v3.3h-10v-16.5H700.8z"/>
	<path fill="#FAFAFA" d="M718.8,333.4v3.3h-6.6v3.3h5v3.3h-5v3.3h6.6v3.3h-10v-16.6H718.8z"/>
	<path fill="#FAFAFA" d="M728,350.1c-2.3,0-4.3-0.8-5.9-2.4c-1.6-1.6-2.5-3.6-2.5-5.9c0-2.3,0.8-4.3,2.5-5.9
		c1.6-1.6,3.6-2.5,5.9-2.5l0,0c2.6,0,4.6,1.1,5.9,2.5l-2.4,2.4c-1-1-2.2-1.5-3.6-1.5c-1.4,0-2.6,0.5-3.5,1.5c-1,1-1.5,2.2-1.5,3.6
		c0,1.4,0.5,2.6,1.5,3.6c1,1,2.2,1.5,3.5,1.5c1.4,0,2.6-0.5,3.6-1.5l2.4,2.4C732.6,349,730.6,350.1,728,350.1z"/>
	<path fill="#FAFAFA" d="M746.2,333.4v3.3h-4.1v13.2h-3.3v-13.2h-4.1v-3.3H746.2z"/>
	<path fill="#FAFAFA" d="M664.5,358.6v3.3h-6.6v3.3h5v3.3h-5v6.6h-3.3v-16.6H664.5z"/>
	<path fill="#FAFAFA" d="M679.3,361c1.6,1.6,2.5,3.6,2.5,5.9c0,2.3-0.8,4.3-2.5,5.9c-1.6,1.6-3.6,2.4-5.9,2.4
		c-2.3,0-4.3-0.8-5.9-2.4c-1.6-1.6-2.5-3.6-2.5-5.9c0-2.3,0.8-4.3,2.5-5.9c1.6-1.6,3.6-2.5,5.9-2.5S677.7,359.3,679.3,361z
		 M669.8,363.3c-1,1-1.5,2.2-1.5,3.6c0,1.4,0.5,2.6,1.5,3.6c1,1,2.2,1.5,3.6,1.5c1.4,0,2.6-0.5,3.5-1.5s1.5-2.2,1.5-3.6
		c0-1.4-0.5-2.6-1.5-3.6c-1-1-2.2-1.5-3.5-1.5C672,361.8,670.8,362.3,669.8,363.3z"/>
	<path fill="#FAFAFA" d="M683.2,358.6h5.4c1.8,0,3.3,0.7,4.3,1.7c1,1,1.6,1.9,1.6,3.8v0.4c0,1.1-0.3,2.2-1,3.1c-0.6,0.8-1,1.2-2,1.5
		l3.8,6h-4.1l-4.7-7.3v7.3h-3.3L683.2,358.6z M691.1,364.2c0-0.6-0.2-1.1-0.7-1.6c-0.4-0.4-1.2-0.7-2.1-0.7h-1.9v4.6h1.3v0h1.1
		C690.1,366.5,691.1,365.4,691.1,364.2z"/>
	<path fill="#FAFAFA" d="M712.9,358.6v3.3h-6.6v3.3h5v3.3h-5v3.3h6.6v3.3h-10v-16.6H712.9z"/>
	<path fill="#FAFAFA" d="M717.5,358.6l2.8,4.9l2.8-4.9h3.8l-4.7,8.3l4.7,8.3h-3.8l-2.8-4.9l-2.8,4.9l-3.8,0l4.7-8.3l-4.7-8.3H717.5z
		"/>
	<path fill="#FAFAFA" d="M739.3,358.6v3.3h-4.1v13.2h-3.3v-13.2h-4.1v-3.3H739.3z"/>
	<path fill="#FAFAFA" d="M740.7,358.6h5.4c1.8,0,3.3,0.7,4.3,1.7c1,1,1.6,1.9,1.6,3.8v0.4c0,1.1-0.3,2.2-1,3.1c-0.6,0.8-1,1.2-2,1.5
		l3.8,6h-4.1l-4.7-7.3v7.3h-3.3L740.7,358.6z M748.6,364.2c0-0.6-0.2-1.1-0.7-1.6c-0.4-0.4-1.2-0.7-2.1-0.7H744v4.6h1.3v0h1.1
		C747.6,366.5,748.6,365.4,748.6,364.2z"/>
	<path fill="#FAFAFA" d="M761.2,358.3l7.5,16.9h-3.6l-1.1-2.5h-5.7l-1.1,2.5h-3.6L761.2,358.3z M762.7,369.7l-1.5-3.5l-1.5,3.5
		H762.7z"/>
	<path fill="#FAFAFA" d="M659.2,397.1c0.9,0,1.9-0.8,1.9-1.7c0-1.5-2-1.7-3.2-2.1c-2-0.7-3.8-2.3-3.8-4.6c0-2.8,2.3-5,5-5
		c2.5,0,4.6,1.9,5,4.3l-3.3,0.7c0-0.9-0.8-1.7-1.7-1.7c-0.9,0-1.7,0.8-1.7,1.7c0,1.5,1.9,1.9,3,2.2c2.1,0.6,3.9,2.2,3.9,4.5
		c0,2.8-2.5,5-5.3,5c-2.6,0-4.9-1.9-5.2-4.3l3.3-0.7C657.3,396.4,658.3,397.1,659.2,397.1L659.2,397.1z"/>
	<path fill="#FAFAFA" d="M669.2,383.8v6.6h5.5v-6.6h3.3v16.5h-3.3v-6.6h-5.5v6.6h-3.3v-16.5H669.2z"/>
	<path fill="#FAFAFA" d="M680.1,383.8h3.3v16.5h-3.3V383.8z"/>
	<path fill="#FAFAFA" d="M695.5,383.8v3.3h-6.6v3.3h5v3.3h-5v3.3h6.6v3.3h-10v-16.6H695.5z"/>
	<path fill="#FAFAFA" d="M700.2,383.8V397h6.6v3.3h-10v-16.5H700.2z"/>
	<path fill="#FAFAFA" d="M712.7,383.8c2.6,0,4.6,1,6,2.4c1.5,1.5,2.2,3.4,2.2,5.9c0,2.4-0.7,4.4-2.2,5.8c-1.6,1.6-3.6,2.4-6,2.4
		h-4.4v-16.5L712.7,383.8L712.7,383.8z M712.7,387.1h-1.1v9.9h1.1c3,0,4.9-2,4.9-5C717.6,389.1,715.7,387.1,712.7,387.1z"/>
</g>
<g>
	<g>
		<path fill="#FDFDFD" d="M536,429.6c3.2,0,3.2-5,0-5C532.8,424.6,532.8,429.6,536,429.6L536,429.6z"/>
	</g>
</g>
<g>
	<g>
		<path fill="#FDFDFD" d="M703.3,456.7c3.2,0,3.2-5,0-5C700.1,451.7,700.1,456.7,703.3,456.7L703.3,456.7z"/>
	</g>
</g>
<g>
	<g>
		<path fill="#FDFDFD" d="M791.9,445.5c3.2,0,3.2-5,0-5C788.6,440.5,788.6,445.5,791.9,445.5L791.9,445.5z"/>
	</g>
</g>
<g>
	<g>
		<path fill="#FDFDFD" d="M772.1,508.2c3.2,0,3.2-5,0-5C768.9,503.2,768.9,508.2,772.1,508.2L772.1,508.2z"/>
	</g>
</g>
<g>
	<g>
		<path fill="#FDFDFD" d="M690.5,473.8c3.2,0,3.2-5,0-5C687.3,468.8,687.3,473.8,690.5,473.8L690.5,473.8z"/>
	</g>
</g>
<g>
	<g>
		<path fill="#FDFDFD" d="M752.4,503c3.2,0,3.2-5,0-5C749.2,498,749.2,503,752.4,503L752.4,503z"/>
	</g>
</g>
<g>
	<g>
		<path fill="#FDFDFD" d="M697.3,480.7c3.2,0,3.2-5,0-5C694.1,475.7,694.1,480.7,697.3,480.7L697.3,480.7z"/>
	</g>
</g>
<g>
	<g>
		<path fill="#FDFDFD" d="M613.9,454.9c3.2,0,3.2-5,0-5C610.7,449.9,610.7,454.9,613.9,454.9L613.9,454.9z"/>
	</g>
</g>
<g>
	<g>
		<path fill="#FDFDFD" d="M655.2,485c3.2,0,3.2-5,0-5C652,480,652,485,655.2,485L655.2,485z"/>
	</g>
</g>
<g>
	<g>
		<path fill="#FDFDFD" d="M662.1,257.2c3.2,0,3.2-5,0-5C658.8,252.2,658.8,257.2,662.1,257.2L662.1,257.2z"/>
	</g>
</g>
<g>
	<g>
		<path fill="#FDFDFD" d="M619.9,249.5c3.2,0,3.2-5,0-5C616.7,244.5,616.7,249.5,619.9,249.5L619.9,249.5z"/>
	</g>
</g>
<g>
	<g>
		<path fill="#FDFDFD" d="M791,184.2c3.2,0,3.2-5,0-5C787.8,179.2,787.8,184.2,791,184.2L791,184.2z"/>
	</g>
</g>
<g>
	<g>
		<path fill="#FDFDFD" d="M533.1,179c3.2,0,3.2-5,0-5C529.9,174,529.9,179,533.1,179L533.1,179z"/>
	</g>
</g>
<g>
	<g>
		<path fill="#FDFDFD" d="M466.9,179c3.2,0,3.2-5,0-5C463.7,174,463.7,179,466.9,179L466.9,179z"/>
	</g>
</g>
<g>
	<g>
		<path fill="#FDFDFD" d="M350,245.2c3.2,0,3.2-5,0-5C346.8,240.2,346.8,245.2,350,245.2L350,245.2z"/>
	</g>
</g>
<g>
	<g>
		<path fill="#FDFDFD" d="M327.7,224.6c3.2,0,3.2-5,0-5C324.5,219.6,324.5,224.6,327.7,224.6L327.7,224.6z"/>
	</g>
</g>
<g>
	<g>
		<path fill="#FDFDFD" d="M284.7,216c3.2,0,3.2-5,0-5C281.5,211,281.5,216,284.7,216L284.7,216z"/>
	</g>
</g>
<g>
	<g>
		<path fill="#FDFDFD" d="M298.5,291.6c3.2,0,3.2-5,0-5C295.3,286.6,295.2,291.6,298.5,291.6L298.5,291.6z"/>
	</g>
</g>
<g>
	<g>
		<path fill="#FDFDFD" d="M145.6,22.5c3.2,0,3.2-5,0-5C142.4,17.5,142.4,22.5,145.6,22.5L145.6,22.5z"/>
	</g>
</g>
<g>
	<g>
		<path fill="#FDFDFD" d="M94,73.2c3.2,0,3.2-5,0-5C90.8,68.2,90.8,73.2,94,73.2L94,73.2z"/>
	</g>
</g>
<g>
	<g>
		<path fill="#FDFDFD" d="M30.4,71.5c3.2,0,3.2-5,0-5C27.2,66.5,27.2,71.5,30.4,71.5L30.4,71.5z"/>
	</g>
</g>
<g>
	<g>
		<path fill="#FDFDFD" d="M58.7,200.5c3.2,0,3.2-5,0-5C55.4,195.5,55.4,200.5,58.7,200.5L58.7,200.5z"/>
	</g>
</g>
<g>
	<g>
		<path fill="#FDFDFD" d="M21.7,258.1c3.2,0,3.2-5,0-5C18.5,253.1,18.5,258.1,21.7,258.1L21.7,258.1z"/>
	</g>
</g>
<g>
	<g>
		<path fill="#FDFDFD" d="M42.3,280.5c3.2,0,3.2-5,0-5C39.1,275.5,39.1,280.5,42.3,280.5L42.3,280.5z"/>
	</g>
</g>
<g>
	<g>
		<path fill="#FDFDFD" d="M269.4,501.3c3.2,0,3.2-5,0-5C266.2,496.3,266.1,501.3,269.4,501.3L269.4,501.3z"/>
	</g>
</g>
<g>
	<g>
		<path fill="#FDFDFD" d="M192.9,499.6c3.2,0,3.2-5,0-5C189.7,494.6,189.6,499.6,192.9,499.6L192.9,499.6z"/>
	</g>
</g>
<g>
	<g>
		<path fill="#FDFDFD" d="M119.8,489.2c3.2,0,3.2-5,0-5C116.6,484.2,116.6,489.2,119.8,489.2L119.8,489.2z"/>
	</g>
</g>
<g>
	<g>
		<path fill="#FDFDFD" d="M63.1,504.7c3.2,0,3.2-5,0-5C59.9,499.7,59.9,504.7,63.1,504.7L63.1,504.7z"/>
	</g>
</g>
<g>
	<g>
		<path fill="#FDFDFD" d="M755,83.5c3.2,0,3.2-5,0-5C751.8,78.5,751.8,83.5,755,83.5L755,83.5z"/>
	</g>
</g>
<g>
	<g>
		<path fill="#FDFDFD" d="M697.3,173.9c3.2,0,3.2-5,0-5C694.1,168.9,694.1,173.9,697.3,173.9L697.3,173.9z"/>
	</g>
</g>
<g>
	<g>
		<path fill="#FDFDFD" d="M816.9,23.4c3.2,0,3.2-5,0-5C813.7,18.4,813.7,23.4,816.9,23.4L816.9,23.4z"/>
	</g>
</g>
<g>
	<g>
		<path fill="#FDFDFD" d="M819.4,339.8c3.2,0,3.2-5,0-5C816.1,334.8,816.1,339.8,819.4,339.8L819.4,339.8z"/>
	</g>
</g>
<g>
	<g>
		<path fill="#FDFDFD" d="M797.9,271c3.2,0,3.2-5,0-5C794.7,266,794.6,271,797.9,271L797.9,271z"/>
	</g>
</g>
<g>
	<g>
		<path fill="#FDFDFD" d="M812.6,480.7c3.2,0,3.2-5,0-5C809.4,475.7,809.4,480.7,812.6,480.7L812.6,480.7z"/>
	</g>
</g>
<g>
	<g>
		<path fill="#FDFDFD" d="M760,436.9c3.2,0,3.2-5,0-5C756.8,431.9,756.8,436.9,760,436.9L760,436.9z"/>
	</g>
</g>
<g>
	<rect x="128.6" y="65.6" fill="none" width="574.8" height="211.6"/>
	<path fill="#FDFDFD" d="M170.5,68.4c2,2,2.9,4.3,2.9,7.1c0,2.8-1,5.1-2.9,7.1c-2,1.9-4.3,2.9-7.1,2.9c-2.8,0-5.1-1-7.1-2.9
		c-2-2-2.9-4.3-2.9-7.1c0-2.7,1-5.1,2.9-7.1c2-2,4.3-2.9,7.1-2.9S168.5,66.4,170.5,68.4z M159.2,71.2c-1.2,1.2-1.8,2.6-1.8,4.2
		c0,1.7,0.6,3.1,1.8,4.2c1.2,1.2,2.6,1.7,4.2,1.7c1.6,0,3-0.6,4.2-1.7s1.8-2.6,1.8-4.2c0-1.6-0.6-3.1-1.8-4.2
		c-1.2-1.2-2.6-1.8-4.2-1.8C161.8,69.4,160.4,70,159.2,71.2z"/>
	<path fill="#FDFDFD" d="M185.3,73.7c0.5,0.2,1.1,0.6,1.5,1c1.2,1.2,1.8,2.7,1.8,4.4c0,1.7-0.6,3.2-1.8,4.4
		c-1.2,1.2-2.6,1.8-4.3,1.8h-7.3V65.6h4.1h1.4c1.5,0,2.8,0.5,3.9,1.6c1,1.1,1.6,2.3,1.6,3.7C186.1,71.9,185.6,73,185.3,73.7z
		 M180.6,69.4h-1.6V73c0.4,0,0.8,0,1.5-0.1c0.9-0.1,1.7-0.8,1.7-1.8C182.3,70.2,181.5,69.4,180.6,69.4z M184.7,79.1
		c0-1.3-1.1-2.3-2.3-2.4c-1.2-0.1-2.2,0-3.4,0v4.8h0.8h2.6C183.7,81.4,184.7,80.4,184.7,79.1z"/>
	<path fill="#FDFDFD" d="M197.2,77.6v-4l-0.1-8l4,0l0.1,7.9v4c0,2.2-0.8,4.1-2.3,5.6c-1.5,1.5-3.4,2.3-5.5,2.3h-0.1
		c-1.7,0-3.1-0.5-4.4-1.4l2-3.5c0.7,0.6,1.4,0.9,2.4,0.9h0.1C195.5,81.5,197.2,79.7,197.2,77.6z"/>
	<path fill="#FDFDFD" d="M215.5,65.5v3.9h-7.9v4h5.9v3.9h-5.9v4h7.9v3.9h-11.9V65.5H215.5z"/>
	<path fill="#FDFDFD" d="M226.4,85.4c-2.8,0-5.1-1-7-2.9c-2-2-2.9-4.3-2.9-7.1c0-2.7,1-5.1,2.9-7.1c2-2,4.3-2.9,7-2.9l0,0
		c3,0,5.5,1.3,7.1,2.9l-2.8,2.8c-1.2-1.2-2.6-1.8-4.2-1.8c-1.7,0-3.1,0.6-4.2,1.8c-1.2,1.2-1.8,2.6-1.8,4.2c0,1.7,0.6,3.1,1.8,4.2
		c1.2,1.2,2.6,1.7,4.2,1.7c1.7,0,3.1-0.6,4.2-1.8l2.8,2.8C231.9,84.1,229.5,85.4,226.4,85.4z"/>
	<path fill="#FDFDFD" d="M248.1,65.6v3.9h-4.8v15.8h-4V69.5h-4.8v-3.9H248.1z"/>
	<path fill="#FDFDFD" d="M249.9,65.6h4v19.7h-4V65.6z"/>
	<path fill="#FDFDFD" d="M264.4,85.7l-8.9-20.1h4.2l4.7,10.8l4.7-10.8h4.2L264.4,85.7z"/>
	<path fill="#FDFDFD" d="M286.9,65.5v3.9H279v4h5.9v3.9H279v4h7.9v3.9H275V65.5H286.9z"/>
	<path fill="#FDFDFD" d="M295.9,65.6h4v19.7h-4V65.6z"/>
	<path fill="#FDFDFD" d="M307.8,81.4c1.1,0,2.3-0.9,2.3-2c0-1.8-2.4-2-3.8-2.5c-2.4-0.8-4.5-2.8-4.5-5.5c0-3.3,2.7-6,6-6
		c3,0,5.5,2.2,5.9,5.2l-3.9,0.8c0-1.1-0.9-2-2-2c-1.1,0-2,0.9-2,2c0,1.8,2.2,2.2,3.6,2.6c2.5,0.7,4.7,2.6,4.7,5.3c0,3.3-3,6-6.3,6
		c-3,0-5.8-2.2-6.2-5.2l3.9-0.8C305.5,80.5,306.7,81.4,307.8,81.4L307.8,81.4z"/>
	<path fill="#FDFDFD" d="M336.1,65.6v3.9h-4.8v15.8h-4V69.5h-4.8v-3.9H336.1z"/>
	<path fill="#FDFDFD" d="M352.2,68.4c2,2,2.9,4.3,2.9,7.1c0,2.8-1,5.1-2.9,7.1c-2,1.9-4.3,2.9-7.1,2.9c-2.8,0-5.1-1-7.1-2.9
		c-2-2-2.9-4.3-2.9-7.1c0-2.7,1-5.1,2.9-7.1c2-2,4.3-2.9,7.1-2.9S350.2,66.4,352.2,68.4z M340.9,71.2c-1.2,1.2-1.8,2.6-1.8,4.2
		c0,1.7,0.6,3.1,1.8,4.2c1.2,1.2,2.6,1.7,4.2,1.7c1.6,0,3-0.6,4.2-1.7s1.8-2.6,1.8-4.2c0-1.6-0.6-3.1-1.8-4.2
		c-1.2-1.2-2.6-1.8-4.2-1.8C343.4,69.4,342,70,340.9,71.2z"/>
	<path fill="#FDFDFD" d="M364.1,65.6h6.4c2.2,0,4,0.8,5.2,2c1.2,1.2,1.9,2.3,1.9,4.5v0.5c0,1.3-0.4,2.6-1.2,3.7
		c-0.7,1-1.2,1.4-2.4,1.8l4.6,7.1h-4.8l-5.7-8.7v8.7h-4L364.1,65.6z M373.5,72.2c0-0.7-0.3-1.3-0.8-1.9c-0.5-0.5-1.5-0.8-2.4-0.8
		h-2.2v5.4h1.5v0h1.3C372.4,75,373.5,73.7,373.5,72.2z"/>
	<path fill="#FDFDFD" d="M392.1,65.5v3.9h-7.9v4h5.9v3.9h-5.9v4h7.9v3.9h-11.9V65.5H392.1z"/>
	<path fill="#FDFDFD" d="M402.1,65.2l9,20.1h-4.3l-1.3-3h-6.7l-1.3,3h-4.3L402.1,65.2z M403.9,78.8l-1.8-4.2l-1.8,4.2H403.9z"/>
	<path fill="#FDFDFD" d="M420.2,85.4c-2.8,0-5.1-1-7-2.9c-2-2-2.9-4.3-2.9-7.1c0-2.7,1-5.1,2.9-7.1c2-2,4.3-2.9,7-2.9l0,0
		c3,0,5.5,1.3,7.1,2.9l-2.8,2.8c-1.2-1.2-2.6-1.8-4.2-1.8c-1.7,0-3.1,0.6-4.2,1.8c-1.2,1.2-1.8,2.6-1.8,4.2c0,1.7,0.6,3.1,1.8,4.2
		c1.2,1.2,2.6,1.7,4.2,1.7c1.7,0,3.1-0.6,4.2-1.8l2.8,2.8C425.6,84.1,423.2,85.4,420.2,85.4z"/>
	<path fill="#FDFDFD" d="M432.9,65.6v7.9h6.6v-7.9h3.9v19.7h-3.9v-7.9h-6.6v7.9H429V65.6H432.9z"/>
	<path fill="#FDFDFD" d="M458.5,65.5v19.8h-4V70.7l-2,0.6v-4.1L458.5,65.5z"/>
	<path fill="#FDFDFD" d="M468,65.5c2.3,0,4.2,1,5.6,3c1.4,1.9,2,4.2,2,7c0,2.8-0.7,5.1-2,7c-1.4,2-3.3,3-5.6,3
		c-4.9,0-7.7-4.7-7.7-9.9C460.4,70.1,463.2,65.5,468,65.5z M468,69.5c-1,0-1.8,0.4-2.4,1.3c-0.9,1.2-1.3,2.8-1.3,4.7
		c0,1.9,0.4,3.5,1.3,4.7c0.6,0.9,1.4,1.3,2.4,1.3c1,0,1.8-0.4,2.4-1.3c0.9-1.2,1.3-2.8,1.3-4.7c0-1.9-0.4-3.5-1.3-4.7
		C469.8,69.9,469,69.5,468,69.5z"/>
	<path fill="#FDFDFD" d="M484.6,65.5c2.3,0,4.2,1,5.6,3c1.4,1.9,2,4.2,2,7c0,2.8-0.7,5.1-2,7c-1.4,2-3.3,3-5.6,3
		c-4.9,0-7.7-4.7-7.7-9.9C476.9,70.1,479.7,65.5,484.6,65.5z M484.6,69.5c-1,0-1.8,0.4-2.4,1.3c-0.9,1.2-1.3,2.8-1.3,4.7
		c0,1.9,0.4,3.5,1.3,4.7c0.6,0.9,1.4,1.3,2.4,1.3c1,0,1.8-0.4,2.4-1.3c0.9-1.2,1.3-2.8,1.3-4.7c0-1.9-0.4-3.5-1.3-4.7
		C486.4,69.9,485.6,69.5,484.6,69.5z"/>
	<path fill="#FDFDFD" d="M501.1,65.5c2.3,0,4.2,1,5.6,3c1.4,1.9,2,4.2,2,7c0,2.8-0.7,5.1-2,7c-1.4,2-3.3,3-5.6,3
		c-4.9,0-7.7-4.7-7.7-9.9C493.5,70.1,496.3,65.5,501.1,65.5z M501.1,69.5c-1,0-1.8,0.4-2.4,1.3c-0.9,1.2-1.3,2.8-1.3,4.7
		c0,1.9,0.4,3.5,1.3,4.7c0.6,0.9,1.4,1.3,2.4,1.3c1,0,1.8-0.4,2.4-1.3c0.9-1.2,1.3-2.8,1.3-4.7c0-1.9-0.4-3.5-1.3-4.7
		C502.9,69.9,502.1,69.5,501.1,69.5z"/>
	<path fill="#FDFDFD" d="M518,79.4V65.6h6.9c1.9,0,3.5,0.7,4.9,2c1.4,1.4,2,3,2,4.9c0,1.9-0.7,3.5-2,4.9c-1.4,1.3-3,2-4.9,2h-3v5.9
		h-4V79.4z M524.9,69.5h-3v5.9l3,0c1.6,0,3-1.4,3-3C527.8,70.9,526.5,69.5,524.9,69.5z"/>
	<path fill="#FDFDFD" d="M549.8,68.4c2,2,2.9,4.3,2.9,7.1c0,2.8-1,5.1-2.9,7.1c-2,1.9-4.3,2.9-7.1,2.9c-2.8,0-5.1-1-7.1-2.9
		c-2-2-2.9-4.3-2.9-7.1c0-2.7,1-5.1,2.9-7.1c2-2,4.3-2.9,7.1-2.9C545.5,65.4,547.8,66.4,549.8,68.4z M538.5,71.2
		c-1.2,1.2-1.8,2.6-1.8,4.2c0,1.7,0.6,3.1,1.8,4.2c1.2,1.2,2.6,1.7,4.2,1.7c1.6,0,3-0.6,4.2-1.7c1.2-1.2,1.8-2.6,1.8-4.2
		c0-1.6-0.6-3.1-1.8-4.2c-1.2-1.2-2.6-1.8-4.2-1.8C541.1,69.4,539.7,70,538.5,71.2z"/>
	<path fill="#FDFDFD" d="M554.4,65.6h4v19.7h-4V65.6z"/>
	<path fill="#FDFDFD" d="M572.7,76.5V65.5h4v20.1l-11.9-11.3v10.9h-4V65.2L572.7,76.5z"/>
	<path fill="#FDFDFD" d="M592,65.6v3.9h-4.8v15.8h-4V69.5h-4.8v-3.9H592z"/>
	<path fill="#FDFDFD" d="M599.2,81.4c1.1,0,2.3-0.9,2.3-2c0-1.8-2.4-2-3.8-2.5c-2.4-0.8-4.5-2.8-4.5-5.5c0-3.3,2.7-6,6-6
		c3,0,5.5,2.2,5.9,5.2l-3.9,0.8c0-1.1-0.9-2-2-2c-1.1,0-2,0.9-2,2c0,1.8,2.2,2.2,3.6,2.6c2.5,0.7,4.7,2.6,4.7,5.3c0,3.3-3,6-6.3,6
		c-3,0-5.8-2.2-6.2-5.2l3.9-0.8C596.9,80.5,598.1,81.4,599.2,81.4L599.2,81.4z"/>
	<path fill="#FDFDFD" d="M626.4,65.5v3.9h-7.9v4h5.9v3.9h-5.9v4h7.9v3.9h-11.9V65.5H626.4z"/>
	<path fill="#FDFDFD" d="M636.4,65.2l9,20.1h-4.3l-1.3-3H633l-1.3,3h-4.3L636.4,65.2z M638.2,78.8l-1.8-4.2l-1.8,4.2H638.2z"/>
	<path fill="#FDFDFD" d="M654.5,85.4c-2.8,0-5.1-1-7-2.9c-2-2-2.9-4.3-2.9-7.1c0-2.7,1-5.1,2.9-7.1c2-2,4.3-2.9,7-2.9l0,0
		c3,0,5.5,1.3,7.1,2.9l-2.8,2.8c-1.2-1.2-2.6-1.8-4.2-1.8c-1.7,0-3.1,0.6-4.2,1.8c-1.2,1.2-1.8,2.6-1.8,4.2c0,1.7,0.6,3.1,1.8,4.2
		c1.2,1.2,2.6,1.7,4.2,1.7c1.7,0,3.1-0.6,4.2-1.8l2.8,2.8C659.9,84.1,657.5,85.4,654.5,85.4z"/>
	<path fill="#FDFDFD" d="M667.2,65.6v7.9h6.6v-7.9h3.9v19.7h-3.9v-7.9h-6.6v7.9h-3.9V65.6H667.2z"/>
	<path fill="#FDFDFD" d="M141.4,95.6h6.4c2.2,0,4,0.8,5.2,2c1.2,1.2,1.9,2.3,1.9,4.5v0.5c0,1.3-0.4,2.6-1.2,3.7
		c-0.7,1-1.2,1.4-2.4,1.8l4.6,7.1H151l-5.7-8.7v8.7h-4L141.4,95.6z M150.8,102.2c0-0.7-0.3-1.3-0.8-1.9c-0.5-0.5-1.5-0.8-2.4-0.8
		h-2.2v5.4h1.5v0h1.3C149.7,105,150.8,103.7,150.8,102.2z"/>
	<path fill="#FDFDFD" d="M173.9,98.4c2,2,2.9,4.3,2.9,7.1c0,2.8-1,5.1-2.9,7.1c-2,1.9-4.3,2.9-7.1,2.9c-2.8,0-5.1-1-7.1-2.9
		c-2-2-2.9-4.3-2.9-7.1c0-2.7,1-5.1,2.9-7.1c2-2,4.3-2.9,7.1-2.9S171.9,96.4,173.9,98.4z M162.6,101.2c-1.2,1.2-1.8,2.6-1.8,4.2
		c0,1.7,0.6,3.1,1.8,4.2c1.2,1.2,2.6,1.7,4.2,1.7c1.6,0,3-0.6,4.2-1.7s1.8-2.6,1.8-4.2c0-1.6-0.6-3.1-1.8-4.2
		c-1.2-1.2-2.6-1.8-4.2-1.8C165.2,99.4,163.7,100,162.6,101.2z"/>
	<path fill="#FDFDFD" d="M190.4,107.5V95.6h4v11.9c0,2.2-0.8,4.1-2.3,5.6c-1.6,1.5-3.4,2.3-5.6,2.3c-2.2,0-4.1-0.8-5.6-2.3
		c-1.6-1.6-2.3-3.4-2.3-5.6V95.6h4v11.9c0,2.1,1.8,4,4,4C188.6,111.4,190.4,109.6,190.4,107.5z"/>
	<path fill="#FDFDFD" d="M208.7,106.5V95.5h4v20.1l-11.9-11.3v10.9h-4V95.2L208.7,106.5z"/>
	<path fill="#FDFDFD" d="M220.4,95.6c3.1,0,5.5,1.2,7.2,2.9c1.8,1.8,2.6,4.1,2.6,7c0,2.9-0.9,5.2-2.6,6.9c-1.9,1.9-4.3,2.9-7.2,2.9
		h-5.2V95.6L220.4,95.6L220.4,95.6z M220.4,99.5h-1.3v11.8h1.3c3.5,0,5.9-2.4,5.9-5.9C226.3,101.9,223.9,99.5,220.4,99.5z"/>
	<path fill="#FDFDFD" d="M249.4,103.7c0.5,0.2,1.1,0.6,1.5,1c1.2,1.2,1.8,2.7,1.8,4.4c0,1.7-0.6,3.2-1.8,4.4
		c-1.2,1.2-2.6,1.8-4.3,1.8h-7.3V95.6h4.1h1.4c1.5,0,2.8,0.5,3.9,1.6c1,1.1,1.6,2.3,1.6,3.7C250.2,101.9,249.7,103,249.4,103.7z
		 M244.7,99.4h-1.6v3.6c0.4,0,0.8,0,1.5-0.1c0.9-0.1,1.7-0.8,1.7-1.8C246.4,100.2,245.6,99.4,244.7,99.4z M248.8,109.1
		c0-1.3-1.1-2.3-2.3-2.4c-1.2-0.1-2.2,0-3.4,0v4.8h0.8h2.6C247.8,111.4,248.8,110.4,248.8,109.1z"/>
	<path fill="#FDFDFD" d="M254.9,95.6l3.6,6.8l3.6-6.8h4.5l-6.1,11.2v8.4h-3.9v-8.4l-6.1-11.2H254.9z"/>
	<path fill="#FDFDFD" d="M280.9,95.6c3.1,0,5.5,1.2,7.2,2.9c1.8,1.8,2.6,4.1,2.6,7c0,2.9-0.9,5.2-2.6,6.9c-1.9,1.9-4.3,2.9-7.2,2.9
		h-5.2V95.6L280.9,95.6L280.9,95.6z M280.8,99.5h-1.3v11.8h1.3c3.5,0,5.9-2.4,5.9-5.9C286.7,101.9,284.4,99.5,280.8,99.5z"/>
	<path fill="#FDFDFD" d="M304.3,95.5v3.9h-7.9v4h5.9v3.9h-5.9v4h7.9v3.9h-11.9V95.5H304.3z"/>
	<path fill="#FDFDFD" d="M311.4,111.4c1.1,0,2.3-0.9,2.3-2c0-1.8-2.4-2-3.8-2.5c-2.4-0.8-4.5-2.8-4.5-5.5c0-3.3,2.7-6,6-6
		c3,0,5.5,2.2,5.9,5.2l-3.9,0.8c0-1.1-0.9-2-2-2c-1.1,0-2,0.9-2,2c0,1.8,2.2,2.2,3.6,2.6c2.5,0.7,4.7,2.6,4.7,5.3c0,3.3-3,6-6.3,6
		c-3,0-5.8-2.2-6.2-5.2l3.9-0.8C309.2,110.5,310.4,111.4,311.4,111.4L311.4,111.4z"/>
	<path fill="#FDFDFD" d="M332.4,95.6v3.9h-4.8v15.8h-4V99.5h-4.8v-3.9H332.4z"/>
	<path fill="#FDFDFD" d="M334.1,95.6h6.4c2.2,0,4,0.8,5.2,2c1.2,1.2,1.9,2.3,1.9,4.5v0.5c0,1.3-0.4,2.6-1.2,3.7
		c-0.7,1-1.2,1.4-2.4,1.8l4.6,7.1h-4.8l-5.7-8.7v8.7h-4L334.1,95.6z M343.5,102.2c0-0.7-0.3-1.3-0.8-1.9c-0.5-0.5-1.5-0.8-2.4-0.8
		h-2.2v5.4h1.5v0h1.3C342.3,105,343.5,103.7,343.5,102.2z"/>
	<path fill="#FDFDFD" d="M366.6,98.4c2,2,2.9,4.3,2.9,7.1c0,2.8-1,5.1-2.9,7.1c-2,1.9-4.3,2.9-7.1,2.9c-2.8,0-5.1-1-7.1-2.9
		c-2-2-2.9-4.3-2.9-7.1c0-2.7,1-5.1,2.9-7.1c2-2,4.3-2.9,7.1-2.9S364.6,96.4,366.6,98.4z M355.3,101.2c-1.2,1.2-1.8,2.6-1.8,4.2
		c0,1.7,0.6,3.1,1.8,4.2c1.2,1.2,2.6,1.7,4.2,1.7c1.6,0,3-0.6,4.2-1.7s1.8-2.6,1.8-4.2c0-1.6-0.6-3.1-1.8-4.2
		c-1.2-1.2-2.6-1.8-4.2-1.8C357.8,99.4,356.4,100,355.3,101.2z"/>
	<path fill="#FDFDFD" d="M372.5,95.6l3.6,6.8l3.6-6.8h4.5l-6.1,11.2v8.4h-3.9v-8.4L368,95.6H372.5z"/>
	<path fill="#FDFDFD" d="M385.9,95.6h4v19.7h-4V95.6z"/>
	<path fill="#FDFDFD" d="M404.1,106.5V95.5h4v20.1l-11.9-11.3v10.9h-4V95.2L404.1,106.5z"/>
	<path fill="#FDFDFD" d="M419.8,95.5c3,0,5.5,1.3,7.1,2.9l-2.8,2.8c-1.2-1.2-2.6-1.8-4.2-1.8c-1.7,0-3.1,0.6-4.2,1.8
		c-1.2,1.2-1.8,2.6-1.8,4.2s0.6,3.1,1.8,4.2c1.2,1.2,2.6,1.8,4.2,1.8c2.6,0,4.5-1.6,5.4-3.4h-5.6v-3.8h10.1c0.3,3.7-0.9,6.3-2.9,8.3
		c-2,1.9-4.3,2.9-7.1,2.9c-2.8,0-5.1-1-7-2.9c-2-1.9-2.9-4.3-2.9-7.1c0-2.7,1-5.1,2.9-7.1C414.7,96.4,417,95.4,419.8,95.5
		L419.8,95.5z"/>
	<path fill="#FDFDFD" d="M450.6,95.5v3.9h-7.9v4h5.9v3.9h-5.9v4h7.9v3.9h-11.9V95.5H450.6z"/>
	<path fill="#FDFDFD" d="M464.2,106.5V95.5h4v20.1l-11.9-11.3v10.9h-4V95.2L464.2,106.5z"/>
	<path fill="#FDFDFD" d="M482.5,95.5v3.9h-7.9v4h5.9v3.9h-5.9v4h7.9v3.9h-11.9V95.5H482.5z"/>
	<path fill="#FDFDFD" d="M493.8,108.3l9.6-13.2v20.1h-4v-8.2l-5.7,7.8l-5.7-7.8v8.2h-4V95.1L493.8,108.3z"/>
	<path fill="#FDFDFD" d="M509.6,95.6l3.6,6.8l3.6-6.8h4.5l-6.1,11.2v8.4h-3.9v-8.4l-6.1-11.2H509.6z"/>
	<path fill="#FDFDFD" d="M535.8,111.4c1.1,0,2.3-0.9,2.3-2c0-1.8-2.4-2-3.8-2.5c-2.4-0.8-4.5-2.8-4.5-5.5c0-3.3,2.7-6,6-6
		c3,0,5.5,2.2,5.9,5.2l-3.9,0.8c0-1.1-0.9-2-2-2c-1.1,0-2,0.9-2,2c0,1.8,2.2,2.2,3.6,2.6c2.5,0.7,4.7,2.6,4.7,5.3c0,3.3-3,6-6.3,6
		c-3,0-5.8-2.2-6.2-5.2l3.9-0.8C533.5,110.5,534.7,111.4,535.8,111.4L535.8,111.4z"/>
	<path fill="#FDFDFD" d="M547.8,95.6v7.9h6.6v-7.9h3.9v19.7h-3.9v-7.9h-6.6v7.9h-3.9V95.6H547.8z"/>
	<path fill="#FDFDFD" d="M560.7,95.6h4v19.7h-4V95.6z"/>
	<path fill="#FDFDFD" d="M567.1,109.4V95.6h6.9c1.9,0,3.5,0.7,4.9,2c1.4,1.4,2,3,2,4.9c0,1.9-0.7,3.5-2,4.9c-1.4,1.3-3,2-4.9,2h-3
		v5.9h-4V109.4z M574,99.5h-3v5.9l3,0c1.6,0,3-1.4,3-3C577,100.9,575.6,99.5,574,99.5z"/>
	<path fill="#FDFDFD" d="M588.1,111.4c1.1,0,2.3-0.9,2.3-2c0-1.8-2.4-2-3.8-2.5c-2.4-0.8-4.5-2.8-4.5-5.5c0-3.3,2.7-6,6-6
		c3,0,5.5,2.2,5.9,5.2l-3.9,0.8c0-1.1-0.9-2-2-2c-1.1,0-2,0.9-2,2c0,1.8,2.2,2.2,3.6,2.6c2.5,0.7,4.7,2.6,4.7,5.3c0,3.3-3,6-6.3,6
		c-3,0-5.8-2.2-6.2-5.2l3.9-0.8C585.9,110.5,587.1,111.4,588.1,111.4L588.1,111.4z"/>
	<path fill="#FDFDFD" d="M596.1,113.4c0-1.4,1.1-2.5,2.5-2.5c1.4,0,2.5,1.2,2.5,2.5c0,1.4-1.1,2.5-2.5,2.5
		C597.2,115.9,596.1,114.8,596.1,113.4z"/>
	<path fill="#FDFDFD" d="M614.3,95.6l3.6,9.3l3.6-9.3l3.6,9.3l3.6-9.3h4.3l-7.9,20.1l-3.7-9.8l-3.6,9.8L610,95.6H614.3z"/>
	<path fill="#FDFDFD" d="M637.6,95.2l9,20.1h-4.3l-1.3-3h-6.7l-1.3,3h-4.3L637.6,95.2z M639.4,108.8l-1.8-4.2l-1.8,4.2H639.4z"/>
	<path fill="#FDFDFD" d="M658.2,95.6v3.9h-4.8v15.8h-4V99.5h-4.8v-3.9H658.2z"/>
	<path fill="#FDFDFD" d="M667.2,115.4c-2.8,0-5.1-1-7-2.9c-2-2-2.9-4.3-2.9-7.1c0-2.7,1-5.1,2.9-7.1c2-2,4.3-2.9,7-2.9l0,0
		c3,0,5.5,1.3,7.1,2.9l-2.8,2.8c-1.2-1.2-2.6-1.8-4.2-1.8c-1.7,0-3.1,0.6-4.2,1.8c-1.2,1.2-1.8,2.6-1.8,4.2c0,1.7,0.6,3.1,1.8,4.2
		c1.2,1.2,2.6,1.7,4.2,1.7c1.7,0,3.1-0.6,4.2-1.8l2.8,2.8C672.7,114.1,670.3,115.4,667.2,115.4z"/>
	<path fill="#FDFDFD" d="M680,95.6v7.9h6.6v-7.9h3.9v19.7h-3.9v-7.9H680v7.9H676V95.6H680z"/>
	<path fill="#FDFDFD" d="M162.5,128.4c2,2,2.9,4.3,2.9,7.1c0,2.8-1,5.1-2.9,7.1c-2,1.9-4.3,2.9-7.1,2.9c-2.8,0-5.1-1-7.1-2.9
		c-2-2-2.9-4.3-2.9-7.1c0-2.7,1-5.1,2.9-7.1c2-2,4.3-2.9,7.1-2.9S160.6,126.4,162.5,128.4z M151.3,131.2c-1.2,1.2-1.8,2.6-1.8,4.2
		c0,1.7,0.6,3.1,1.8,4.2c1.2,1.2,2.6,1.7,4.2,1.7c1.6,0,3-0.6,4.2-1.7s1.8-2.6,1.8-4.2c0-1.6-0.6-3.1-1.8-4.2
		c-1.2-1.2-2.6-1.8-4.2-1.8C153.8,129.4,152.4,130,151.3,131.2z"/>
	<path fill="#FDFDFD" d="M179.1,137.5v-11.9h4v11.9c0,2.2-0.8,4.1-2.3,5.6c-1.6,1.5-3.4,2.3-5.6,2.3c-2.2,0-4.1-0.8-5.6-2.3
		c-1.6-1.6-2.3-3.4-2.3-5.6v-11.9h4v11.9c0,2.1,1.8,4,4,4C177.3,141.4,179.1,139.6,179.1,137.5z"/>
	<path fill="#FDFDFD" d="M198.5,125.6v3.9h-4.8v15.8h-4v-15.8h-4.8v-3.9H198.5z"/>
	<path fill="#FDFDFD" d="M219.3,125.5v3.9h-7.9v4h5.9v3.9h-5.9v7.9h-4v-19.8H219.3z"/>
	<path fill="#FDFDFD" d="M237,128.4c2,2,2.9,4.3,2.9,7.1c0,2.8-1,5.1-2.9,7.1c-2,1.9-4.3,2.9-7.1,2.9c-2.8,0-5.1-1-7.1-2.9
		c-2-2-2.9-4.3-2.9-7.1c0-2.7,1-5.1,2.9-7.1c2-2,4.3-2.9,7.1-2.9S235,126.4,237,128.4z M225.7,131.2c-1.2,1.2-1.8,2.6-1.8,4.2
		c0,1.7,0.6,3.1,1.8,4.2c1.2,1.2,2.6,1.7,4.2,1.7c1.6,0,3-0.6,4.2-1.7s1.8-2.6,1.8-4.2c0-1.6-0.6-3.1-1.8-4.2
		c-1.2-1.2-2.6-1.8-4.2-1.8C228.2,129.4,226.8,130,225.7,131.2z"/>
	<path fill="#FDFDFD" d="M241.6,125.6h6.4c2.2,0,4,0.8,5.2,2c1.2,1.2,1.9,2.3,1.9,4.5v0.5c0,1.3-0.4,2.6-1.2,3.7
		c-0.7,1-1.2,1.4-2.4,1.8l4.6,7.1h-4.8l-5.7-8.7v8.7h-4L241.6,125.6z M251,132.2c0-0.7-0.3-1.3-0.8-1.9c-0.5-0.5-1.5-0.8-2.4-0.8
		h-2.2v5.4h1.5v0h1.3C249.8,135,251,133.7,251,132.2z"/>
	<path fill="#FDFDFD" d="M275.2,133.7c0.5,0.2,1.1,0.6,1.5,1c1.2,1.2,1.8,2.7,1.8,4.4c0,1.7-0.6,3.2-1.8,4.4
		c-1.2,1.2-2.6,1.8-4.3,1.8h-7.3v-19.7h4.1h1.4c1.5,0,2.8,0.5,3.9,1.6c1,1.1,1.6,2.3,1.6,3.7C276,131.9,275.6,133,275.2,133.7z
		 M270.5,129.4H269v3.6c0.4,0,0.8,0,1.5-0.1c0.9-0.1,1.7-0.8,1.7-1.8C272.2,130.2,271.5,129.4,270.5,129.4z M274.6,139.1
		c0-1.3-1.1-2.3-2.3-2.4c-1.2-0.1-2.2,0-3.4,0v4.8h0.8h2.6C273.6,141.4,274.6,140.4,274.6,139.1z"/>
	<path fill="#FDFDFD" d="M296.5,128.4c2,2,2.9,4.3,2.9,7.1c0,2.8-1,5.1-2.9,7.1c-2,1.9-4.3,2.9-7.1,2.9c-2.8,0-5.1-1-7.1-2.9
		c-2-2-2.9-4.3-2.9-7.1c0-2.7,1-5.1,2.9-7.1c2-2,4.3-2.9,7.1-2.9S294.6,126.4,296.5,128.4z M285.2,131.2c-1.2,1.2-1.8,2.6-1.8,4.2
		c0,1.7,0.6,3.1,1.8,4.2c1.2,1.2,2.6,1.7,4.2,1.7c1.6,0,3-0.6,4.2-1.7s1.8-2.6,1.8-4.2c0-1.6-0.6-3.1-1.8-4.2
		c-1.2-1.2-2.6-1.8-4.2-1.8C287.8,129.4,286.4,130,285.2,131.2z"/>
	<path fill="#FDFDFD" d="M310.8,138.3l9.6-13.2v20.1h-4v-8.2l-5.7,7.8l-5.7-7.8v8.2h-4v-20.1L310.8,138.3z"/>
	<path fill="#FDFDFD" d="M333,133.7c0.5,0.2,1.1,0.6,1.5,1c1.2,1.2,1.8,2.7,1.8,4.4c0,1.7-0.6,3.2-1.8,4.4c-1.2,1.2-2.6,1.8-4.3,1.8
		h-7.3v-19.7h4.1h1.4c1.5,0,2.8,0.5,3.9,1.6c1,1.1,1.6,2.3,1.6,3.7C333.8,131.9,333.4,133,333,133.7z M328.4,129.4h-1.6v3.6
		c0.4,0,0.8,0,1.5-0.1c0.9-0.1,1.7-0.8,1.7-1.8C330,130.2,329.3,129.4,328.4,129.4z M332.5,139.1c0-1.3-1.1-2.3-2.3-2.4
		c-1.2-0.1-2.2,0-3.4,0v4.8h0.8h2.6C331.5,141.4,332.5,140.4,332.5,139.1z"/>
	<path fill="#FDFDFD" d="M343.5,141.4c1.1,0,2.3-0.9,2.3-2c0-1.8-2.4-2-3.8-2.5c-2.4-0.8-4.5-2.8-4.5-5.5c0-3.3,2.7-6,6-6
		c3,0,5.5,2.2,5.9,5.2l-3.9,0.8c0-1.1-0.9-2-2-2c-1.1,0-2,0.9-2,2c0,1.8,2.2,2.2,3.6,2.6c2.5,0.7,4.7,2.6,4.7,5.3c0,3.3-3,6-6.3,6
		c-3,0-5.8-2.2-6.2-5.2l3.9-0.8C341.2,140.5,342.4,141.4,343.5,141.4L343.5,141.4z"/>
	<path fill="#FDFDFD" d="M364.3,141.4c1.1,0,2.3-0.9,2.3-2c0-1.8-2.4-2-3.8-2.5c-2.4-0.8-4.5-2.8-4.5-5.5c0-3.3,2.7-6,6-6
		c3,0,5.5,2.2,5.9,5.2l-3.9,0.8c0-1.1-0.9-2-2-2c-1.1,0-2,0.9-2,2c0,1.8,2.2,2.2,3.6,2.6c2.5,0.7,4.7,2.6,4.7,5.3c0,3.3-3,6-6.3,6
		c-3,0-5.8-2.2-6.2-5.2l3.9-0.8C362.1,140.5,363.3,141.4,364.3,141.4L364.3,141.4z"/>
	<path fill="#FDFDFD" d="M372.4,125.6h4v19.7h-4V125.6z"/>
	<path fill="#FDFDFD" d="M390.6,136.5v-10.9h4v20.1l-11.9-11.3v10.9h-4v-20.1L390.6,136.5z"/>
	<path fill="#FDFDFD" d="M406.3,145.4c-2.8,0-5.1-1-7-2.9c-2-2-2.9-4.3-2.9-7.1c0-2.7,1-5.1,2.9-7.1c2-2,4.3-2.9,7-2.9l0,0
		c3,0,5.5,1.3,7.1,2.9l-2.8,2.8c-1.2-1.2-2.6-1.8-4.2-1.8c-1.7,0-3.1,0.6-4.2,1.8c-1.2,1.2-1.8,2.6-1.8,4.2c0,1.7,0.6,3.1,1.8,4.2
		c1.2,1.2,2.6,1.7,4.2,1.7c1.7,0,3.1-0.6,4.2-1.8l2.8,2.8C411.7,144.1,409.3,145.4,406.3,145.4z"/>
	<path fill="#FDFDFD" d="M426.9,125.5v3.9H419v4h5.9v3.9H419v4h7.9v3.9h-11.9v-19.8H426.9z"/>
	<path fill="#FDFDFD" d="M439.7,125.6l3.6,6.8l3.6-6.8h4.5l-6.1,11.2v8.4h-3.9v-8.4l-6.1-11.2H439.7z"/>
	<path fill="#FDFDFD" d="M466.9,128.4c2,2,2.9,4.3,2.9,7.1c0,2.8-1,5.1-2.9,7.1c-2,1.9-4.3,2.9-7.1,2.9c-2.8,0-5.1-1-7.1-2.9
		c-2-2-2.9-4.3-2.9-7.1c0-2.7,1-5.1,2.9-7.1c2-2,4.3-2.9,7.1-2.9C462.6,125.4,465,126.4,466.9,128.4z M455.6,131.2
		c-1.2,1.2-1.8,2.6-1.8,4.2c0,1.7,0.6,3.1,1.8,4.2c1.2,1.2,2.6,1.7,4.2,1.7c1.6,0,3-0.6,4.2-1.7c1.2-1.2,1.8-2.6,1.8-4.2
		c0-1.6-0.6-3.1-1.8-4.2c-1.2-1.2-2.6-1.8-4.2-1.8C458.2,129.4,456.8,130,455.6,131.2z"/>
	<path fill="#FDFDFD" d="M483.5,137.5v-11.9h4v11.9c0,2.2-0.8,4.1-2.3,5.6c-1.6,1.5-3.4,2.3-5.6,2.3c-2.2,0-4.1-0.8-5.6-2.3
		c-1.6-1.6-2.3-3.4-2.3-5.6v-11.9h4v11.9c0,2.1,1.8,4,4,4C481.6,141.4,483.5,139.6,483.5,137.5z"/>
	<path fill="#FDFDFD" d="M489.9,125.6h6.4c2.2,0,4,0.8,5.2,2c1.2,1.2,1.9,2.3,1.9,4.5v0.5c0,1.3-0.4,2.6-1.2,3.7
		c-0.7,1-1.2,1.4-2.4,1.8l4.6,7.1h-4.8l-5.7-8.7v8.7h-4L489.9,125.6z M499.3,132.2c0-0.7-0.3-1.3-0.8-1.9c-0.5-0.5-1.5-0.8-2.4-0.8
		h-2.2v5.4h1.5v0h1.3C498.1,135,499.3,133.7,499.3,132.2z"/>
	<path fill="#FDFDFD" d="M517.3,125.6v15.7h7.9v3.9h-11.9v-19.7H517.3z"/>
	<path fill="#FDFDFD" d="M527,125.6h4v19.7h-4V125.6z"/>
	<path fill="#FDFDFD" d="M545.2,125.5v3.9h-7.9v4h5.9v3.9h-5.9v7.9h-4v-19.8H545.2z"/>
	<path fill="#FDFDFD" d="M558.8,125.5v3.9h-7.9v4h5.9v3.9h-5.9v4h7.9v3.9h-11.9v-19.8H558.8z"/>
	<path fill="#FDFDFD" d="M567.8,125.6h4v19.7h-4V125.6z"/>
	<path fill="#FDFDFD" d="M579.7,141.4c1.1,0,2.3-0.9,2.3-2c0-1.8-2.4-2-3.8-2.5c-2.4-0.8-4.5-2.8-4.5-5.5c0-3.3,2.7-6,6-6
		c3,0,5.5,2.2,5.9,5.2l-3.9,0.8c0-1.1-0.9-2-2-2c-1.1,0-2,0.9-2,2c0,1.8,2.2,2.2,3.6,2.6c2.5,0.7,4.7,2.6,4.7,5.3c0,3.3-3,6-6.3,6
		c-3,0-5.8-2.2-6.2-5.2l3.9-0.8C577.4,140.5,578.6,141.4,579.7,141.4L579.7,141.4z"/>
	<path fill="#FDFDFD" d="M599,125.6v15.7h7.9v3.9h-11.9v-19.7H599z"/>
	<path fill="#FDFDFD" d="M608.6,125.6h4v19.7h-4V125.6z"/>
	<path fill="#FDFDFD" d="M624.7,138.3l9.6-13.2v20.1h-4v-8.2l-5.7,7.8l-5.7-7.8v8.2h-4v-20.1L624.7,138.3z"/>
	<path fill="#FDFDFD" d="M636.7,125.6h4v19.7h-4V125.6z"/>
	<path fill="#FDFDFD" d="M656.1,125.6v3.9h-4.8v15.8h-4v-15.8h-4.8v-3.9H656.1z"/>
	<path fill="#FDFDFD" d="M669.6,125.5v3.9h-7.9v4h5.9v3.9h-5.9v4h7.9v3.9h-11.9v-19.8H669.6z"/>
	<path fill="#FDFDFD" d="M676.6,125.6c3.1,0,5.5,1.2,7.2,2.9c1.8,1.8,2.6,4.1,2.6,7c0,2.9-0.9,5.2-2.6,6.9c-1.9,1.9-4.3,2.9-7.2,2.9
		h-5.2v-19.7L676.6,125.6L676.6,125.6z M676.6,129.5h-1.3v11.8h1.3c3.5,0,5.9-2.4,5.9-5.9C682.5,131.9,680.1,129.5,676.6,129.5z"/>
</g>
<g>
	<g>
		<path fill="#FDFDFD" d="M283.3,27.6c3.2,0,3.2-5,0-5C280.1,22.6,280.1,27.6,283.3,27.6L283.3,27.6z"/>
	</g>
</g>
<g>
	<g>
		<path fill="#FDFDFD" d="M517,27.6c3.2,0,3.2-5,0-5C513.8,22.6,513.8,27.6,517,27.6L517,27.6z"/>
	</g>
</g>
<g>
	<g>
		<path fill="#FDFDFD" d="M416.6,18c3.2,0,3.2-5,0-5C413.3,13,413.3,18,416.6,18L416.6,18z"/>
	</g>
</g>
<g>
	<g>
		<path fill="#FDFDFD" d="M658,43.1c3.2,0,3.2-5,0-5C654.7,38.1,654.7,43.1,658,43.1L658,43.1z"/>
	</g>
</g>
<g>
</g>
<g>
</g>
<g>
</g>
<g>
</g>
<g>
</g>
<g>
</g>
</svg>
