<?xml version="1.0" encoding="utf-8"?>
<!-- Generator: Adobe Illustrator 22.0.1, SVG Export Plug-In . SVG Version: 6.00 Build 0)  -->
<svg version="1.1" id="Layer_1" xmlns="http://www.w3.org/2000/svg" xmlns:xlink="http://www.w3.org/1999/xlink" x="0px" y="0px"
	 width="841.9px" height="595.3px" viewBox="0 0 841.9 595.3" enable-background="new 0 0 841.9 595.3" xml:space="preserve">
<path fill="#3491CF" d="M449.8,266c0,79.2-13.1,143.3-29.3,143.3s-29.3-64.2-29.3-143.3"/>
<polygon fill="#504F4F" points="391.2,287.9 449.8,287.9 449.8,256.8 420.5,215 391.2,256.8 "/>
<path fill="#E99001" d="M440.5,287.9c0,53.9-8.9,97.5-19.9,97.5s-19.9-43.7-19.9-97.5"/>
<path fill="#E84926" d="M430.5,287.9c0,37.5-4.5,68-10,68s-10-30.4-10-68"/>
<rect x="391.2" y="275.6" fill="#8D8D8E" width="58.6" height="12.3"/>
<circle fill="#504F4F" cx="408.8" cy="281.7" r="2.4"/>
<circle fill="#504F4F" cx="420.5" cy="281.7" r="2.4"/>
<circle fill="#504F4F" cx="397.2" cy="281.7" r="2.4"/>
<circle fill="#504F4F" cx="444.8" cy="281.7" r="2.4"/>
<circle fill="#504F4F" cx="433.2" cy="281.7" r="2.4"/>
<g>
</g>
<g>
</g>
<g>
</g>
<g>
</g>
<g>
</g>
<g>
</g>
</svg>
