<?xml version="1.0" encoding="utf-8"?>
<!-- Generator: Adobe Illustrator 22.0.1, SVG Export Plug-In . SVG Version: 6.00 Build 0)  -->
<svg version="1.1" xmlns="http://www.w3.org/2000/svg" xmlns:xlink="http://www.w3.org/1999/xlink" x="0px" y="0px" width="841.9px"
	 height="595.3px" viewBox="0 0 841.9 595.3" enable-background="new 0 0 841.9 595.3" xml:space="preserve">
<g id="Layer_3">
	<rect fill="#010202" stroke="#000000" stroke-miterlimit="10" width="841.9" height="595.3"/>
</g>
<g id="Layer_2">
	<g>
		<polygon fill="#3A3A3A" stroke="#000000" stroke-miterlimit="10" points="664.5,151.8 677.4,166.1 746.9,151.5 754.4,133 		"/>
		<polygon fill="#5F5F5E" stroke="#000000" stroke-miterlimit="10" points="664.5,151.8 687.8,136.4 740.7,125.4 754.4,133 		"/>
		<polygon fill="#5F5F5E" stroke="#000000" stroke-miterlimit="10" points="687.8,136.4 692.5,122.6 722.2,116.4 740.7,125.4 		"/>
		<path fill="#FFFFFF" stroke="#000000" stroke-miterlimit="10" d="M711.7,118.6"/>
		<polygon fill="#5F5F5E" stroke="#000000" stroke-miterlimit="10" points="714.6,118 703.6,99.5 688.8,102.6 692.5,122.6 		"/>
		<polygon fill="#4D4C4C" stroke="#000000" stroke-miterlimit="10" points="716.8,119.4 713.1,113.2 720.9,111.3 720.8,113.6 
			716.8,114.5 719.5,118.9 		"/>
		<path fill="#4D4C4C" stroke="#000000" stroke-miterlimit="10" d="M705.3,157.8l-10.2,2.1c-1.3,0.3-2.5-0.6-2.8-1.8l0,0
			c-0.9-4.4,1.9-8.8,6.3-9.7l4.5-0.9L705.3,157.8z"/>
		
			<rect x="718.1" y="145.6" transform="matrix(-0.9788 0.2049 -0.2049 -0.9788 1454.4313 147.3656)" fill="#4D4C4C" stroke="#000000" stroke-miterlimit="10" width="3" height="6.8"/>
		
			<ellipse transform="matrix(0.9788 -0.2049 0.2049 0.9788 -13.5024 156.134)" fill="#4D4C4C" stroke="#000000" stroke-miterlimit="10" cx="747" cy="143.3" rx="23" ry="2.1"/>
		
			<rect x="720.9" y="146.2" transform="matrix(-0.9788 0.2049 -0.2049 -0.9788 1466.5292 143.2668)" fill="#4D4C4C" stroke="#000000" stroke-miterlimit="10" width="9.8" height="2.7"/>
		
			<rect x="699.8" y="92.7" transform="matrix(-0.9788 0.2049 -0.2049 -0.9788 1406.3053 47.0663)" fill="#5F5F5E" stroke="#000000" stroke-miterlimit="10" width="1.8" height="7.3"/>
		
			<rect x="701.1" y="92.9" transform="matrix(-0.9788 0.2049 -0.2049 -0.9788 1411.6733 40.8899)" fill="#5F5F5E" stroke="#000000" stroke-miterlimit="10" width="5.3" height="1.4"/>
		
			<rect x="692.9" y="94.2" transform="matrix(-0.9788 0.2049 -0.2049 -0.9788 1392.6962 51.4197)" fill="#5F5F5E" stroke="#000000" stroke-miterlimit="10" width="1.6" height="7.3"/>
		
			<rect x="690" y="94.2" transform="matrix(-0.9788 0.2049 -0.2049 -0.9788 1391.4235 45.7846)" fill="#5F5F5E" stroke="#000000" stroke-miterlimit="10" width="6.6" height="1.5"/>
		
			<rect x="683.1" y="103" transform="matrix(-0.9788 0.2049 -0.2049 -0.9788 1380.4918 63.9748)" fill="#5F5F5E" stroke="#000000" stroke-miterlimit="10" width="7.7" height="1"/>
		
			<rect x="685.4" y="100.9" transform="matrix(-0.9788 0.2049 -0.2049 -0.9788 1377.7662 61.4032)" fill="#5F5F5E" stroke="#000000" stroke-miterlimit="10" width="0.5" height="2.3"/>
		
			<rect x="683.2" y="102.5" transform="matrix(-0.9788 0.2049 -0.2049 -0.9788 1374.2255 63.7446)" fill="#5F5F5E" stroke="#000000" stroke-miterlimit="10" width="1.2" height="1.2"/>
		<polygon fill="#BDD3E4" stroke="#000000" stroke-miterlimit="10" points="701.1,120.8 702.8,116.7 694.9,118.4 694.5,116.8 
			703.7,114.9 707.6,106.2 703.6,99.5 688.8,102.6 692.5,122.6 		"/>
		<polygon fill="#BDD3E4" stroke="#000000" stroke-miterlimit="10" points="691.9,124.6 708.3,121.2 706.1,132.6 687.8,136.4 		"/>
		<polygon fill="#4D4C4C" stroke="#000000" stroke-miterlimit="10" points="724.6,128.7 720,126.7 747.5,120.9 753.2,122.7 		"/>
		
			<rect x="677.3" y="138.1" transform="matrix(-0.9788 0.2049 -0.2049 -0.9788 1374.9606 139.6907)" fill="#4D4C4C" stroke="#000000" stroke-miterlimit="10" width="5.9" height="5.9"/>
		
			<rect x="683.3" y="139.3" transform="matrix(-0.9788 0.2049 -0.2049 -0.9788 1384.0037 139.0854)" fill="#4D4C4C" stroke="#000000" stroke-miterlimit="10" width="2.9" height="3.7"/>
		<polygon fill="#4D4C4C" stroke="#000000" stroke-miterlimit="10" points="733.9,136 728.2,134.5 764.6,126.9 771.9,128.1 		"/>
		
			<rect x="711.2" y="133.5" transform="matrix(-0.9788 0.2049 -0.2049 -0.9788 1445.1738 119.5125)" fill="#BDD3E4" stroke="#000000" stroke-miterlimit="10" width="10.4" height="2.2"/>
		
			<rect x="707.4" y="136.8" transform="matrix(-0.9788 0.2049 -0.2049 -0.9788 1435.1121 126.2822)" fill="#BDD3E4" stroke="#000000" stroke-miterlimit="10" width="7.2" height="1.2"/>
		
			<rect x="704.1" y="134.1" transform="matrix(-0.9788 0.2049 -0.2049 -0.9788 1422.189 122.3009)" fill="#BDD3E4" stroke="#000000" stroke-miterlimit="10" width="1.3" height="1.3"/>
		
			<rect x="701.5" y="134.7" transform="matrix(-0.9788 0.2049 -0.2049 -0.9788 1417.3198 123.7147)" fill="#BDD3E4" stroke="#000000" stroke-miterlimit="10" width="1.6" height="1.2"/>
		<polygon fill="#BDD3E4" stroke="#000000" stroke-miterlimit="10" points="701.9,137.6 700.7,141.6 691.4,143.6 		"/>
	</g>
	<g>
		<polygon fill="#3A3A3A" stroke="#000000" stroke-miterlimit="10" points="505.1,97.7 517.9,111.9 587.4,97.4 594.9,78.9 		"/>
		<polygon fill="#5F5F5E" stroke="#000000" stroke-miterlimit="10" points="505.1,97.7 528.3,82.3 581.2,71.2 594.9,78.9 		"/>
		<polygon fill="#5F5F5E" stroke="#000000" stroke-miterlimit="10" points="528.3,82.3 533,68.5 562.7,62.3 581.2,71.2 		"/>
		<path fill="#FFFFFF" stroke="#000000" stroke-miterlimit="10" d="M552.2,64.5"/>
		<polygon fill="#5F5F5E" stroke="#000000" stroke-miterlimit="10" points="555.2,63.8 544.1,45.4 529.3,48.5 533,68.5 		"/>
		<polygon fill="#4D4C4C" stroke="#000000" stroke-miterlimit="10" points="557.4,65.3 553.6,59.1 561.4,57.2 561.4,59.4 
			557.4,60.3 560,64.7 		"/>
		<path fill="#4D4C4C" stroke="#000000" stroke-miterlimit="10" d="M545.9,103.6l-10.2,2.1c-1.3,0.3-2.5-0.6-2.8-1.8v0
			c-0.9-4.4,1.9-8.8,6.3-9.7l4.5-0.9L545.9,103.6z"/>
		
			<rect x="558.6" y="91.5" transform="matrix(-0.9788 0.2049 -0.2049 -0.9788 1127.7701 72.9594)" fill="#4D4C4C" stroke="#000000" stroke-miterlimit="10" width="3" height="6.8"/>
		
			<ellipse transform="matrix(0.9788 -0.2049 0.2049 0.9788 -5.7963 122.3024)" fill="#4D4C4C" stroke="#000000" stroke-miterlimit="10" cx="587.5" cy="89.1" rx="23" ry="2.1"/>
		
			<rect x="561.5" y="92.1" transform="matrix(-0.9788 0.2049 -0.2049 -0.9788 1139.868 68.8606)" fill="#4D4C4C" stroke="#000000" stroke-miterlimit="10" width="9.8" height="2.7"/>
		
			<rect x="540.4" y="38.6" transform="matrix(-0.9788 0.2049 -0.2049 -0.9788 1079.6442 -27.3399)" fill="#5F5F5E" stroke="#000000" stroke-miterlimit="10" width="1.8" height="7.3"/>
		
			<rect x="541.6" y="38.7" transform="matrix(-0.9788 0.2049 -0.2049 -0.9788 1085.0122 -33.5163)" fill="#5F5F5E" stroke="#000000" stroke-miterlimit="10" width="5.3" height="1.4"/>
		
			<rect x="533.4" y="40.1" transform="matrix(-0.9788 0.2049 -0.2049 -0.9788 1066.035 -22.9865)" fill="#5F5F5E" stroke="#000000" stroke-miterlimit="10" width="1.6" height="7.3"/>
		
			<rect x="530.6" y="40.1" transform="matrix(-0.9788 0.2049 -0.2049 -0.9788 1064.7623 -28.6215)" fill="#5F5F5E" stroke="#000000" stroke-miterlimit="10" width="6.6" height="1.5"/>
		
			<rect x="523.6" y="48.9" transform="matrix(-0.9788 0.2049 -0.2049 -0.9788 1053.8307 -10.4314)" fill="#5F5F5E" stroke="#000000" stroke-miterlimit="10" width="7.7" height="1"/>
		
			<rect x="526" y="46.8" transform="matrix(-0.9788 0.2049 -0.2049 -0.9788 1051.1051 -13.003)" fill="#5F5F5E" stroke="#000000" stroke-miterlimit="10" width="0.5" height="2.3"/>
		
			<rect x="523.8" y="48.3" transform="matrix(-0.9788 0.2049 -0.2049 -0.9788 1047.5643 -10.6616)" fill="#5F5F5E" stroke="#000000" stroke-miterlimit="10" width="1.2" height="1.2"/>
		<polygon fill="#BDD3E4" stroke="#000000" stroke-miterlimit="10" points="541.6,66.7 543.3,62.6 535.4,64.2 535.1,62.7 
			544.2,60.8 548.2,52.1 544.1,45.4 529.3,48.5 533,68.5 		"/>
		<polygon fill="#BDD3E4" stroke="#000000" stroke-miterlimit="10" points="532.4,70.5 548.8,67.1 546.7,78.5 528.3,82.3 		"/>
		<polygon fill="#4D4C4C" stroke="#000000" stroke-miterlimit="10" points="565.1,74.6 560.6,72.5 588,66.8 593.7,68.6 		"/>
		
			<rect x="517.8" y="84" transform="matrix(-0.9788 0.2049 -0.2049 -0.9788 1048.2994 65.2845)" fill="#4D4C4C" stroke="#000000" stroke-miterlimit="10" width="5.9" height="5.9"/>
		
			<rect x="523.9" y="85.2" transform="matrix(-0.9788 0.2049 -0.2049 -0.9788 1057.3425 64.6792)" fill="#4D4C4C" stroke="#000000" stroke-miterlimit="10" width="2.9" height="3.7"/>
		<polygon fill="#4D4C4C" stroke="#000000" stroke-miterlimit="10" points="574.5,81.9 568.7,80.4 605.1,72.7 612.4,73.9 		"/>
		
			<rect x="551.7" y="79.4" transform="matrix(-0.9788 0.2049 -0.2049 -0.9788 1118.5127 45.1063)" fill="#BDD3E4" stroke="#000000" stroke-miterlimit="10" width="10.4" height="2.2"/>
		
			<rect x="547.9" y="82.7" transform="matrix(-0.9788 0.2049 -0.2049 -0.9788 1108.4509 51.876)" fill="#BDD3E4" stroke="#000000" stroke-miterlimit="10" width="7.2" height="1.2"/>
		
			<rect x="544.6" y="80" transform="matrix(-0.9788 0.2049 -0.2049 -0.9788 1095.5278 47.8947)" fill="#BDD3E4" stroke="#000000" stroke-miterlimit="10" width="1.3" height="1.3"/>
		
			<rect x="542" y="80.5" transform="matrix(-0.9788 0.2049 -0.2049 -0.9788 1090.6587 49.3085)" fill="#BDD3E4" stroke="#000000" stroke-miterlimit="10" width="1.6" height="1.2"/>
		<polygon fill="#BDD3E4" stroke="#000000" stroke-miterlimit="10" points="542.5,83.5 541.2,87.5 531.9,89.4 		"/>
	</g>
	<g>
		<polygon fill="#3A3A3A" stroke="#000000" stroke-miterlimit="10" points="566.5,409.1 579.3,423.3 648.8,408.7 656.3,390.3 		"/>
		<polygon fill="#5F5F5E" stroke="#000000" stroke-miterlimit="10" points="566.5,409.1 589.7,393.7 642.6,382.6 656.3,390.3 		"/>
		<polygon fill="#5F5F5E" stroke="#000000" stroke-miterlimit="10" points="589.7,393.7 594.4,379.8 624.1,373.6 642.6,382.6 		"/>
		<path fill="#FFFFFF" stroke="#000000" stroke-miterlimit="10" d="M613.6,375.8"/>
		<polygon fill="#5F5F5E" stroke="#000000" stroke-miterlimit="10" points="616.6,375.2 605.5,356.7 590.7,359.8 594.4,379.8 		"/>
		<polygon fill="#4D4C4C" stroke="#000000" stroke-miterlimit="10" points="618.8,376.7 615,370.4 622.8,368.5 622.8,370.8 
			618.8,371.7 621.4,376.1 		"/>
		<path fill="#4D4C4C" stroke="#000000" stroke-miterlimit="10" d="M607.3,415l-10.2,2.1c-1.3,0.3-2.5-0.6-2.8-1.8l0,0
			c-0.9-4.4,1.9-8.8,6.3-9.7l4.5-0.9L607.3,415z"/>
		
			<rect x="620" y="402.9" transform="matrix(-0.9788 0.2049 -0.2049 -0.9788 1313.0856 676.4925)" fill="#4D4C4C" stroke="#000000" stroke-miterlimit="10" width="3" height="6.8"/>
		
			<ellipse transform="matrix(0.9788 -0.2049 0.2049 0.9788 -68.3029 141.4951)" fill="#4D4C4C" stroke="#000000" stroke-miterlimit="10" cx="649" cy="400.5" rx="23" ry="2.1"/>
		
			<rect x="622.9" y="403.5" transform="matrix(-0.9788 0.2049 -0.2049 -0.9788 1325.1835 672.3936)" fill="#4D4C4C" stroke="#000000" stroke-miterlimit="10" width="9.8" height="2.7"/>
		
			<rect x="601.8" y="350" transform="matrix(-0.9788 0.2049 -0.2049 -0.9788 1264.9596 576.1932)" fill="#5F5F5E" stroke="#000000" stroke-miterlimit="10" width="1.8" height="7.3"/>
		
			<rect x="603" y="350.1" transform="matrix(-0.9788 0.2049 -0.2049 -0.9788 1270.3276 570.0167)" fill="#5F5F5E" stroke="#000000" stroke-miterlimit="10" width="5.3" height="1.4"/>
		
			<rect x="594.8" y="351.4" transform="matrix(-0.9788 0.2049 -0.2049 -0.9788 1251.3505 580.5466)" fill="#5F5F5E" stroke="#000000" stroke-miterlimit="10" width="1.6" height="7.3"/>
		
			<rect x="592" y="351.4" transform="matrix(-0.9788 0.2049 -0.2049 -0.9788 1250.0778 574.9115)" fill="#5F5F5E" stroke="#000000" stroke-miterlimit="10" width="6.6" height="1.5"/>
		
			<rect x="585" y="360.2" transform="matrix(-0.9788 0.2049 -0.2049 -0.9788 1239.1461 593.1016)" fill="#5F5F5E" stroke="#000000" stroke-miterlimit="10" width="7.7" height="1"/>
		
			<rect x="587.4" y="358.1" transform="matrix(-0.9788 0.2049 -0.2049 -0.9788 1236.4205 590.53)" fill="#5F5F5E" stroke="#000000" stroke-miterlimit="10" width="0.5" height="2.3"/>
		
			<rect x="585.2" y="359.7" transform="matrix(-0.9788 0.2049 -0.2049 -0.9788 1232.8798 592.8714)" fill="#5F5F5E" stroke="#000000" stroke-miterlimit="10" width="1.2" height="1.2"/>
		<polygon fill="#BDD3E4" stroke="#000000" stroke-miterlimit="10" points="603,378 604.7,373.9 596.8,375.6 596.5,374 605.6,372.1 
			609.6,363.5 605.5,356.7 590.7,359.8 594.4,379.8 		"/>
		<polygon fill="#BDD3E4" stroke="#000000" stroke-miterlimit="10" points="593.8,381.9 610.2,378.4 608.1,389.8 589.7,393.7 		"/>
		<polygon fill="#4D4C4C" stroke="#000000" stroke-miterlimit="10" points="626.5,386 622,383.9 649.4,378.2 655.1,380 		"/>
		
			<rect x="579.2" y="395.3" transform="matrix(-0.9788 0.2049 -0.2049 -0.9788 1233.6149 668.8176)" fill="#4D4C4C" stroke="#000000" stroke-miterlimit="10" width="5.9" height="5.9"/>
		
			<rect x="585.3" y="396.6" transform="matrix(-0.9788 0.2049 -0.2049 -0.9788 1242.658 668.2122)" fill="#4D4C4C" stroke="#000000" stroke-miterlimit="10" width="2.9" height="3.7"/>
		<polygon fill="#4D4C4C" stroke="#000000" stroke-miterlimit="10" points="635.9,393.2 630.1,391.7 666.5,384.1 673.8,385.3 		"/>
		
			<rect x="613.1" y="390.7" transform="matrix(-0.9788 0.2049 -0.2049 -0.9788 1303.8281 648.6394)" fill="#BDD3E4" stroke="#000000" stroke-miterlimit="10" width="10.4" height="2.2"/>
		
			<rect x="609.3" y="394.1" transform="matrix(-0.9788 0.2049 -0.2049 -0.9788 1293.7664 655.4091)" fill="#BDD3E4" stroke="#000000" stroke-miterlimit="10" width="7.2" height="1.2"/>
		
			<rect x="606" y="391.4" transform="matrix(-0.9788 0.2049 -0.2049 -0.9788 1280.8433 651.4277)" fill="#BDD3E4" stroke="#000000" stroke-miterlimit="10" width="1.3" height="1.3"/>
		
			<rect x="603.4" y="391.9" transform="matrix(-0.9788 0.2049 -0.2049 -0.9788 1275.9741 652.8415)" fill="#BDD3E4" stroke="#000000" stroke-miterlimit="10" width="1.6" height="1.2"/>
		<polygon fill="#BDD3E4" stroke="#000000" stroke-miterlimit="10" points="603.9,394.9 602.6,398.8 593.3,400.8 		"/>
	</g>
	<g>
		<polygon fill="#3A3A3A" stroke="#000000" stroke-miterlimit="10" points="423.6,222.8 436.4,237 505.9,222.4 513.4,203.9 		"/>
		<polygon fill="#5F5F5E" stroke="#000000" stroke-miterlimit="10" points="423.6,222.8 446.8,207.4 499.7,196.3 513.4,203.9 		"/>
		<polygon fill="#5F5F5E" stroke="#000000" stroke-miterlimit="10" points="446.8,207.4 451.5,193.5 481.2,187.3 499.7,196.3 		"/>
		<path fill="#FFFFFF" stroke="#000000" stroke-miterlimit="10" d="M470.7,189.5"/>
		<polygon fill="#5F5F5E" stroke="#000000" stroke-miterlimit="10" points="473.7,188.9 462.6,170.4 447.8,173.5 451.5,193.5 		"/>
		<polygon fill="#4D4C4C" stroke="#000000" stroke-miterlimit="10" points="475.9,190.3 472.1,184.1 479.9,182.2 479.9,184.5 
			475.9,185.4 478.5,189.8 		"/>
		<path fill="#4D4C4C" stroke="#000000" stroke-miterlimit="10" d="M464.4,228.7l-10.2,2.1c-1.3,0.3-2.5-0.6-2.8-1.8l0,0
			c-0.9-4.4,1.9-8.8,6.3-9.7l4.5-0.9L464.4,228.7z"/>
		
			<rect x="477.1" y="216.5" transform="matrix(-0.9788 0.2049 -0.2049 -0.9788 992.1295 337.1066)" fill="#4D4C4C" stroke="#000000" stroke-miterlimit="10" width="3" height="6.8"/>
		
			<ellipse transform="matrix(0.9788 -0.2049 0.2049 0.9788 -33.1535 108.2544)" fill="#4D4C4C" stroke="#000000" stroke-miterlimit="10" cx="506" cy="214.2" rx="23" ry="2.1"/>
		
			<rect x="480" y="217.2" transform="matrix(-0.9788 0.2049 -0.2049 -0.9788 1004.2274 333.0078)" fill="#4D4C4C" stroke="#000000" stroke-miterlimit="10" width="9.8" height="2.7"/>
		
			<rect x="458.9" y="163.6" transform="matrix(-0.9788 0.2049 -0.2049 -0.9788 944.0035 236.8073)" fill="#5F5F5E" stroke="#000000" stroke-miterlimit="10" width="1.8" height="7.3"/>
		
			<rect x="460.1" y="163.8" transform="matrix(-0.9788 0.2049 -0.2049 -0.9788 949.3715 230.6309)" fill="#5F5F5E" stroke="#000000" stroke-miterlimit="10" width="5.3" height="1.4"/>
		
			<rect x="451.9" y="165.1" transform="matrix(-0.9788 0.2049 -0.2049 -0.9788 930.3943 241.1607)" fill="#5F5F5E" stroke="#000000" stroke-miterlimit="10" width="1.6" height="7.3"/>
		
			<rect x="449.1" y="165.1" transform="matrix(-0.9788 0.2049 -0.2049 -0.9788 929.1217 235.5256)" fill="#5F5F5E" stroke="#000000" stroke-miterlimit="10" width="6.6" height="1.5"/>
		
			<rect x="442.1" y="173.9" transform="matrix(-0.9788 0.2049 -0.2049 -0.9788 918.19 253.7158)" fill="#5F5F5E" stroke="#000000" stroke-miterlimit="10" width="7.7" height="1"/>
		
			<rect x="444.5" y="171.8" transform="matrix(-0.9788 0.2049 -0.2049 -0.9788 915.4644 251.1442)" fill="#5F5F5E" stroke="#000000" stroke-miterlimit="10" width="0.5" height="2.3"/>
		
			<rect x="442.3" y="173.4" transform="matrix(-0.9788 0.2049 -0.2049 -0.9788 911.9236 253.4855)" fill="#5F5F5E" stroke="#000000" stroke-miterlimit="10" width="1.2" height="1.2"/>
		<polygon fill="#BDD3E4" stroke="#000000" stroke-miterlimit="10" points="460.1,191.7 461.8,187.6 453.9,189.3 453.6,187.7 
			462.7,185.8 466.7,177.2 462.6,170.4 447.8,173.5 451.5,193.5 		"/>
		<polygon fill="#BDD3E4" stroke="#000000" stroke-miterlimit="10" points="450.9,195.6 467.3,192.1 465.2,203.5 446.8,207.4 		"/>
		<polygon fill="#4D4C4C" stroke="#000000" stroke-miterlimit="10" points="483.6,199.7 479.1,197.6 506.5,191.8 512.2,193.7 		"/>
		
			<rect x="436.3" y="209" transform="matrix(-0.9788 0.2049 -0.2049 -0.9788 912.6588 329.4317)" fill="#4D4C4C" stroke="#000000" stroke-miterlimit="10" width="5.9" height="5.9"/>
		
			<rect x="442.4" y="210.3" transform="matrix(-0.9788 0.2049 -0.2049 -0.9788 921.7019 328.8264)" fill="#4D4C4C" stroke="#000000" stroke-miterlimit="10" width="2.9" height="3.7"/>
		<polygon fill="#4D4C4C" stroke="#000000" stroke-miterlimit="10" points="493,206.9 487.2,205.4 523.6,197.8 530.9,199 		"/>
		
			<rect x="470.2" y="204.4" transform="matrix(-0.9788 0.2049 -0.2049 -0.9788 982.872 309.2535)" fill="#BDD3E4" stroke="#000000" stroke-miterlimit="10" width="10.4" height="2.2"/>
		
			<rect x="466.4" y="207.8" transform="matrix(-0.9788 0.2049 -0.2049 -0.9788 972.8103 316.0232)" fill="#BDD3E4" stroke="#000000" stroke-miterlimit="10" width="7.2" height="1.2"/>
		
			<rect x="463.1" y="205.1" transform="matrix(-0.9788 0.2049 -0.2049 -0.9788 959.8871 312.0419)" fill="#BDD3E4" stroke="#000000" stroke-miterlimit="10" width="1.3" height="1.3"/>
		
			<rect x="460.5" y="205.6" transform="matrix(-0.9788 0.2049 -0.2049 -0.9788 955.018 313.4557)" fill="#BDD3E4" stroke="#000000" stroke-miterlimit="10" width="1.6" height="1.2"/>
		<polygon fill="#BDD3E4" stroke="#000000" stroke-miterlimit="10" points="461,208.6 459.7,212.5 450.4,214.5 		"/>
	</g>
	<g>
		<polygon fill="#3A3A3A" stroke="#000000" stroke-miterlimit="10" points="695.9,371.2 708.7,385.4 778.2,370.8 785.7,352.4 		"/>
		<polygon fill="#5F5F5E" stroke="#000000" stroke-miterlimit="10" points="695.9,371.2 719.1,355.8 772,344.7 785.7,352.4 		"/>
		<polygon fill="#5F5F5E" stroke="#000000" stroke-miterlimit="10" points="719.1,355.8 723.8,342 753.5,335.7 772,344.7 		"/>
		<path fill="#FFFFFF" stroke="#000000" stroke-miterlimit="10" d="M743,337.9"/>
		<polygon fill="#5F5F5E" stroke="#000000" stroke-miterlimit="10" points="746,337.3 734.9,318.8 720.1,321.9 723.8,342 		"/>
		<polygon fill="#4D4C4C" stroke="#000000" stroke-miterlimit="10" points="748.1,338.8 744.4,332.6 752.2,330.6 752.1,332.9 
			748.2,333.8 750.8,338.2 		"/>
		<path fill="#4D4C4C" stroke="#000000" stroke-miterlimit="10" d="M736.6,377.1l-10.2,2.1c-1.3,0.3-2.5-0.6-2.8-1.8l0,0
			c-0.9-4.4,1.9-8.8,6.3-9.7l4.5-0.9L736.6,377.1z"/>
		
			<rect x="749.4" y="365" transform="matrix(-0.9788 0.2049 -0.2049 -0.9788 1561.3411 575.0082)" fill="#4D4C4C" stroke="#000000" stroke-miterlimit="10" width="3" height="6.8"/>
		
			<ellipse transform="matrix(0.9788 -0.2049 0.2049 0.9788 -57.7924 167.2064)" fill="#4D4C4C" stroke="#000000" stroke-miterlimit="10" cx="778.3" cy="362.6" rx="23" ry="2.1"/>
		
			<rect x="752.3" y="365.6" transform="matrix(-0.9788 0.2049 -0.2049 -0.9788 1573.439 570.9094)" fill="#4D4C4C" stroke="#000000" stroke-miterlimit="10" width="9.8" height="2.7"/>
		
			<rect x="731.1" y="312.1" transform="matrix(-0.9788 0.2049 -0.2049 -0.9788 1513.2151 474.709)" fill="#5F5F5E" stroke="#000000" stroke-miterlimit="10" width="1.8" height="7.3"/>
		
			<rect x="732.4" y="312.2" transform="matrix(-0.9788 0.2049 -0.2049 -0.9788 1518.5831 468.5325)" fill="#5F5F5E" stroke="#000000" stroke-miterlimit="10" width="5.3" height="1.4"/>
		
			<rect x="724.2" y="313.5" transform="matrix(-0.9788 0.2049 -0.2049 -0.9788 1499.606 479.0624)" fill="#5F5F5E" stroke="#000000" stroke-miterlimit="10" width="1.6" height="7.3"/>
		
			<rect x="721.4" y="313.5" transform="matrix(-0.9788 0.2049 -0.2049 -0.9788 1498.3333 473.4273)" fill="#5F5F5E" stroke="#000000" stroke-miterlimit="10" width="6.6" height="1.5"/>
		
			<rect x="714.4" y="322.3" transform="matrix(-0.9788 0.2049 -0.2049 -0.9788 1487.4016 491.6174)" fill="#5F5F5E" stroke="#000000" stroke-miterlimit="10" width="7.7" height="1"/>
		
			<rect x="716.8" y="320.2" transform="matrix(-0.9788 0.2049 -0.2049 -0.9788 1484.676 489.0458)" fill="#5F5F5E" stroke="#000000" stroke-miterlimit="10" width="0.5" height="2.3"/>
		
			<rect x="714.5" y="321.8" transform="matrix(-0.9788 0.2049 -0.2049 -0.9788 1481.1353 491.3872)" fill="#5F5F5E" stroke="#000000" stroke-miterlimit="10" width="1.2" height="1.2"/>
		<polygon fill="#BDD3E4" stroke="#000000" stroke-miterlimit="10" points="732.4,340.1 734.1,336.1 726.2,337.7 725.9,336.2 
			735,334.2 738.9,325.6 734.9,318.8 720.1,321.9 723.8,342 		"/>
		<polygon fill="#BDD3E4" stroke="#000000" stroke-miterlimit="10" points="723.2,344 739.6,340.6 737.4,352 719.1,355.8 		"/>
		<polygon fill="#4D4C4C" stroke="#000000" stroke-miterlimit="10" points="755.9,348.1 751.3,346 778.8,340.3 784.5,342.1 		"/>
		
			<rect x="708.6" y="357.4" transform="matrix(-0.9788 0.2049 -0.2049 -0.9788 1481.8704 567.3334)" fill="#4D4C4C" stroke="#000000" stroke-miterlimit="10" width="5.9" height="5.9"/>
		
			<rect x="714.7" y="358.7" transform="matrix(-0.9788 0.2049 -0.2049 -0.9788 1490.9135 566.728)" fill="#4D4C4C" stroke="#000000" stroke-miterlimit="10" width="2.9" height="3.7"/>
		<polygon fill="#4D4C4C" stroke="#000000" stroke-miterlimit="10" points="765.2,355.4 759.5,353.8 795.9,346.2 803.2,347.4 		"/>
		
			<rect x="742.5" y="352.9" transform="matrix(-0.9788 0.2049 -0.2049 -0.9788 1552.0836 547.1552)" fill="#BDD3E4" stroke="#000000" stroke-miterlimit="10" width="10.4" height="2.2"/>
		
			<rect x="738.7" y="356.2" transform="matrix(-0.9788 0.2049 -0.2049 -0.9788 1542.0219 553.9249)" fill="#BDD3E4" stroke="#000000" stroke-miterlimit="10" width="7.2" height="1.2"/>
		
			<rect x="735.4" y="353.5" transform="matrix(-0.9788 0.2049 -0.2049 -0.9788 1529.0988 549.9435)" fill="#BDD3E4" stroke="#000000" stroke-miterlimit="10" width="1.3" height="1.3"/>
		
			<rect x="732.8" y="354" transform="matrix(-0.9788 0.2049 -0.2049 -0.9788 1524.2296 551.3573)" fill="#BDD3E4" stroke="#000000" stroke-miterlimit="10" width="1.6" height="1.2"/>
		<polygon fill="#BDD3E4" stroke="#000000" stroke-miterlimit="10" points="733.3,357 732,361 722.7,362.9 		"/>
	</g>
	<g>
		<polygon fill="#3A3A3A" stroke="#000000" stroke-miterlimit="10" points="604.4,258.4 617.2,272.6 686.8,258.1 694.3,239.6 		"/>
		<polygon fill="#5F5F5E" stroke="#000000" stroke-miterlimit="10" points="604.4,258.4 627.7,243 680.6,231.9 694.3,239.6 		"/>
		<polygon fill="#5F5F5E" stroke="#000000" stroke-miterlimit="10" points="627.7,243 632.3,229.2 662.1,223 680.6,231.9 		"/>
		<path fill="#FFFFFF" stroke="#000000" stroke-miterlimit="10" d="M651.5,225.2"/>
		<polygon fill="#5F5F5E" stroke="#000000" stroke-miterlimit="10" points="654.5,224.5 643.5,206.1 628.7,209.2 632.3,229.2 		"/>
		<polygon fill="#4D4C4C" stroke="#000000" stroke-miterlimit="10" points="656.7,226 653,219.8 660.8,217.9 660.7,220.1 656.7,221 
			659.4,225.4 		"/>
		<path fill="#4D4C4C" stroke="#000000" stroke-miterlimit="10" d="M645.2,264.3l-10.2,2.1c-1.3,0.3-2.5-0.6-2.8-1.8l0,0
			c-0.9-4.4,1.9-8.8,6.3-9.7l4.5-0.9L645.2,264.3z"/>
		
			<rect x="657.9" y="252.2" transform="matrix(-0.9788 0.2049 -0.2049 -0.9788 1357.322 370.5694)" fill="#4D4C4C" stroke="#000000" stroke-miterlimit="10" width="3" height="6.8"/>
		
			<ellipse transform="matrix(0.9788 -0.2049 0.2049 0.9788 -36.6191 146.0766)" fill="#4D4C4C" stroke="#000000" stroke-miterlimit="10" cx="686.9" cy="249.8" rx="23" ry="2.1"/>
		
			<rect x="660.8" y="252.8" transform="matrix(-0.9788 0.2049 -0.2049 -0.9788 1369.4199 366.4705)" fill="#4D4C4C" stroke="#000000" stroke-miterlimit="10" width="9.8" height="2.7"/>
		
			<rect x="639.7" y="199.3" transform="matrix(-0.9788 0.2049 -0.2049 -0.9788 1309.196 270.2701)" fill="#5F5F5E" stroke="#000000" stroke-miterlimit="10" width="1.8" height="7.3"/>
		
			<rect x="641" y="199.4" transform="matrix(-0.9788 0.2049 -0.2049 -0.9788 1314.564 264.0936)" fill="#5F5F5E" stroke="#000000" stroke-miterlimit="10" width="5.3" height="1.4"/>
		
			<rect x="632.8" y="200.8" transform="matrix(-0.9788 0.2049 -0.2049 -0.9788 1295.5868 274.6235)" fill="#5F5F5E" stroke="#000000" stroke-miterlimit="10" width="1.6" height="7.3"/>
		
			<rect x="629.9" y="200.8" transform="matrix(-0.9788 0.2049 -0.2049 -0.9788 1294.3142 268.9884)" fill="#5F5F5E" stroke="#000000" stroke-miterlimit="10" width="6.6" height="1.5"/>
		
			<rect x="623" y="209.6" transform="matrix(-0.9788 0.2049 -0.2049 -0.9788 1283.3824 287.1785)" fill="#5F5F5E" stroke="#000000" stroke-miterlimit="10" width="7.7" height="1"/>
		
			<rect x="625.3" y="207.5" transform="matrix(-0.9788 0.2049 -0.2049 -0.9788 1280.6569 284.6069)" fill="#5F5F5E" stroke="#000000" stroke-miterlimit="10" width="0.5" height="2.3"/>
		
			<rect x="623.1" y="209" transform="matrix(-0.9788 0.2049 -0.2049 -0.9788 1277.1161 286.9483)" fill="#5F5F5E" stroke="#000000" stroke-miterlimit="10" width="1.2" height="1.2"/>
		<polygon fill="#BDD3E4" stroke="#000000" stroke-miterlimit="10" points="641,227.4 642.7,223.3 634.8,224.9 634.4,223.4 
			643.6,221.5 647.5,212.8 643.5,206.1 628.7,209.2 632.3,229.2 		"/>
		<polygon fill="#BDD3E4" stroke="#000000" stroke-miterlimit="10" points="631.7,231.2 648.2,227.8 646,239.2 627.7,243 		"/>
		<polygon fill="#4D4C4C" stroke="#000000" stroke-miterlimit="10" points="664.5,235.3 659.9,233.2 687.4,227.5 693.1,229.3 		"/>
		
			<rect x="617.2" y="244.7" transform="matrix(-0.9788 0.2049 -0.2049 -0.9788 1277.8513 362.8944)" fill="#4D4C4C" stroke="#000000" stroke-miterlimit="10" width="5.9" height="5.9"/>
		
			<rect x="623.2" y="245.9" transform="matrix(-0.9788 0.2049 -0.2049 -0.9788 1286.8944 362.2891)" fill="#4D4C4C" stroke="#000000" stroke-miterlimit="10" width="2.9" height="3.7"/>
		<polygon fill="#4D4C4C" stroke="#000000" stroke-miterlimit="10" points="673.8,242.6 668.1,241.1 704.5,233.4 711.8,234.6 		"/>
		
			<rect x="651.1" y="240.1" transform="matrix(-0.9788 0.2049 -0.2049 -0.9788 1348.0645 342.7162)" fill="#BDD3E4" stroke="#000000" stroke-miterlimit="10" width="10.4" height="2.2"/>
		
			<rect x="647.3" y="243.4" transform="matrix(-0.9788 0.2049 -0.2049 -0.9788 1338.0028 349.486)" fill="#BDD3E4" stroke="#000000" stroke-miterlimit="10" width="7.2" height="1.2"/>
		
			<rect x="644" y="240.7" transform="matrix(-0.9788 0.2049 -0.2049 -0.9788 1325.0796 345.5046)" fill="#BDD3E4" stroke="#000000" stroke-miterlimit="10" width="1.3" height="1.3"/>
		
			<rect x="641.3" y="241.2" transform="matrix(-0.9788 0.2049 -0.2049 -0.9788 1320.2104 346.9184)" fill="#BDD3E4" stroke="#000000" stroke-miterlimit="10" width="1.6" height="1.2"/>
		<polygon fill="#BDD3E4" stroke="#000000" stroke-miterlimit="10" points="641.8,244.2 640.6,248.2 631.3,250.1 		"/>
	</g>
	<path fill="#D88C07" stroke="#000000" stroke-miterlimit="10" d="M241.7,595.3C241.7,457.7,137.6,358,0,358v237.3H241.7z"/>
	<polyline fill="#AA6E14" stroke="#000000" stroke-miterlimit="10" points="0,595.3 0.2,539.9 0,447 0,395.9 0,358 30.5,359.9 
		35.2,395.8 95.4,418 48.5,491.6 77,525.1 117.1,526.7 138.8,595.3 170.6,571.9 192.4,526.7 205.7,545.1 241.7,595.3 217,595 	"/>
	<g>
		<g>
			<g>
				<circle fill="#727270" stroke="#020304" stroke-miterlimit="10" cx="86.2" cy="511.6" r="15.3"/>
				<circle fill="#7F7F80" stroke="#020304" stroke-miterlimit="10" cx="86.1" cy="511.9" r="16.7"/>
				<path fill="#5A5A5A" stroke="#020304" stroke-miterlimit="10" d="M101.2,504.7l-15.1,7.2L79,496.8
					C79,496.8,93,490.1,101.2,504.7z"/>
			</g>
			<path fill="#5A5A5A" stroke="#020304" stroke-miterlimit="10" d="M71,519.1l15.1-7.2l7.2,15.1C93.3,527,79.3,533.7,71,519.1z"/>
		</g>
		<g>
			<g>
				<circle fill="#727270" stroke="#020304" stroke-miterlimit="10" cx="57.3" cy="449.5" r="15.3"/>
				<circle fill="#7F7F80" stroke="#020304" stroke-miterlimit="10" cx="57.2" cy="449.8" r="16.7"/>
				<path fill="#5A5A5A" stroke="#020304" stroke-miterlimit="10" d="M72.3,442.6l-15.1,7.2L50,434.7C50,434.7,64,428,72.3,442.6z"
					/>
			</g>
			<path fill="#5A5A5A" stroke="#020304" stroke-miterlimit="10" d="M42.1,457l15.1-7.2l7.2,15.1C64.4,464.9,50.3,471.6,42.1,457z"
				/>
		</g>
		<polygon fill="#64705E" stroke="#020304" stroke-miterlimit="10" points="96.7,496.8 75.1,451.3 97.7,440.5 97.5,458.4 105.4,475 
			119.4,486 		"/>
		<polygon fill="#64705E" stroke="#020304" stroke-miterlimit="10" points="69.6,439.8 73.8,431.9 79.1,429.3 113.5,418.8 
			119,430.4 108.3,435.5 75.1,451.3 		"/>
		
			<rect x="43.1" y="483.1" transform="matrix(0.4296 0.903 -0.903 0.4296 474.126 220.1956)" fill="#C3BE9E" stroke="#020304" stroke-miterlimit="10" width="39.3" height="4.7"/>
		<polygon fill="#64705E" stroke="#020304" stroke-miterlimit="10" points="102.2,508.4 111,510.1 116.3,507.5 146.2,487.4 
			140.7,475.9 130,481 96.7,496.8 		"/>
		<polygon fill="#C3BE9E" stroke="#020304" stroke-miterlimit="10" points="115.4,432.1 111.4,423.6 80.9,433.3 76.1,435.5 
			72,444.9 75.1,451.3 		"/>
		<polygon fill="#C3BE9E" stroke="#020304" stroke-miterlimit="10" points="137.1,477.6 141.1,486.1 114.4,503.6 109.6,505.9 
			99.8,503.3 96.7,496.8 		"/>
		<path fill="#FFFFFF" stroke="#020304" stroke-miterlimit="10" d="M93.4,442.6"/>
		<polygon fill="#C3BE9E" stroke="#020304" stroke-miterlimit="10" points="91.2,499.4 69.6,453.9 92.2,443.1 92,461 99.9,477.6 
			113.9,488.7 		"/>
		
			<rect x="48.1" y="467.5" transform="matrix(0.4296 0.903 -0.903 0.4296 475.7278 205.2639)" fill="#C3BE9E" stroke="#020304" stroke-miterlimit="10" width="54.6" height="23.4"/>
		
			<rect x="64.5" y="459" transform="matrix(0.4296 0.903 -0.903 0.4296 476.6201 197.8349)" fill="#64705E" stroke="#020304" stroke-miterlimit="10" width="34.5" height="34.5"/>
		
			<rect x="108.6" y="432.3" transform="matrix(0.4296 0.903 -0.903 0.4296 456.0246 149.816)" fill="#64705E" stroke="#020304" stroke-miterlimit="10" width="1.7" height="7.1"/>
		
			<rect x="129.5" y="476.2" transform="matrix(0.4296 0.903 -0.903 0.4296 507.5787 155.9942)" fill="#64705E" stroke="#020304" stroke-miterlimit="10" width="1.7" height="7.1"/>
		<polygon fill="#64705E" stroke="#020304" stroke-miterlimit="10" points="79.8,505.8 92,492.5 94.9,498.6 		"/>
		<polygon fill="#64705E" stroke="#020304" stroke-miterlimit="10" points="57.6,459.2 75.7,458.1 72.8,452 		"/>
		<path fill="#C3BE9E" stroke="#020304" stroke-miterlimit="10" d="M65,466.1"/>
		<g>
			<polygon fill="#5A5A5A" stroke="#020304" stroke-miterlimit="10" points="77.9,486.4 91.6,483.4 101.9,478.5 162.1,446.3 
				158.8,439.4 138.3,449.1 74.6,479.5 			"/>
			<polygon fill="#5A5A5A" stroke="#020304" stroke-miterlimit="10" points="71.3,472.5 82.3,463.7 92.5,458.8 155.5,432.4 
				158.8,439.4 138.3,449.1 74.6,479.5 			"/>
			<line fill="none" stroke="#020304" stroke-miterlimit="10" x1="153.9" y1="441.7" x2="150.8" y2="452.3"/>
			<line fill="none" stroke="#020304" stroke-miterlimit="10" x1="146.6" y1="445.2" x2="143.3" y2="456.4"/>
			<line fill="none" stroke="#020304" stroke-miterlimit="10" x1="154" y1="441.8" x2="143.8" y2="437.5"/>
			<line fill="none" stroke="#020304" stroke-miterlimit="10" x1="146.6" y1="445.2" x2="135.8" y2="440.7"/>
		</g>
	</g>
</g>
<g id="Layer_1">
	<g>
		<rect x="176.1" y="118.8" fill="none" width="496.2" height="155.7"/>
		<path fill="#D88C07" stroke="#000000" stroke-miterlimit="10" d="M223.1,124.2l23.5-4.4c-9.5,36.6-15.7,68.2-18.6,95l-21.7,6
			L223.1,124.2z"/>
		<path fill="#D88C07" stroke="#000000" stroke-miterlimit="10" d="M252.3,124.6l23.7-4.8c-0.2,2.8-0.3,6.8-0.3,12
			c0,12.4,0.4,23.3,1.2,32.7c0.5,5.4,1.1,9.7,2.1,13l9.3-53.3l23.5-4.4c-9.5,36.6-15.7,68.2-18.6,95l-21.6,6
			c-0.1-0.2-0.7-1.8-1.8-4.8l-7.1-20.2c-1.2-3.3-1.9-5.4-2.1-6.3c-1.9,10.8-3.4,21.2-4.5,31.3l-21.9,6.6L252.3,124.6z"/>
		<path fill="#D88C07" stroke="#000000" stroke-miterlimit="10" d="M371.2,119.8c-10.8,29.7-20.6,61.6-29.1,95.6l-36.4,6.6
			c2.3-12.9,3.7-28.7,4.2-47.3c0.3-15.9,0.5-31.7,0.8-47.6l27.3-6.2l-11.8,87.2h0.1l20-83.8L371.2,119.8z"/>
		<path fill="#D88C07" stroke="#000000" stroke-miterlimit="10" d="M341.7,222.5c13.4-34.2,24.2-67.1,32.5-98.8l41.6-7
			c-4.7,27.6-6.9,60.3-6.4,98l-29,6.7l2.1-17.1l-9.2,1.8l-2.9,12L341.7,222.5z M384.6,185.9l6.3-51.6h-0.1l-12.9,52.9L384.6,185.9z"
			/>
		<path fill="#D88C07" stroke="#000000" stroke-miterlimit="10" d="M423.4,124.1c10.5-3.5,19.4-5.2,26.7-5.2
			c8.2,0,14.4,2.1,18.7,6.4c5.9,6.1,8.9,13.5,8.9,22.3c0,3.2-0.4,6.6-1.2,10.1c-3.6,16-11.9,30.1-25.2,42
			c-13.2,12-27.9,19-44.2,21.1c0.2-2,1.1-8,2.9-17.9L421,140C422.5,130.7,423.3,125.3,423.4,124.1z M443,146.6
			c-4.2,17.9-7.4,34.8-9.6,50.7c5.5-5.2,10.3-11.2,14.6-18c5.3-8.4,7.9-15.6,7.9-21.6C456,149.9,451.6,146.2,443,146.6z"/>
		<path fill="#D88C07" stroke="#000000" stroke-miterlimit="10" d="M501.2,144.5c-0.7,2.7-1.4,5.3-1.9,7.8l-1.5,7.5l21.9-4.6
			l-1.2,18.9c-10.4,1.8-18.5,3.4-24.4,4.8c-0.4,1.8-0.7,3.6-1,5.5l-1,5.3l25.4-3.7l-1.8,25.4c-13.1,1.1-29.8,4.2-49.9,9.4l16.3-98
			l45.5-6.7l-1.8,25.4C516.9,142.3,508.7,143.3,501.2,144.5z"/>
		<path fill="#D88C07" stroke="#000000" stroke-miterlimit="10" d="M532.9,124.1c14.3-4.3,26-6.4,35.1-6.4
			c12.3,0,18.4,4.3,18.3,12.9c-0.1,12.3-7.8,24.7-23.2,37.1c1.3,3.5,6.6,14.4,15.9,32.7c-4.7,4.4-11.8,10.8-21.4,19.3l-14.6-37.7
			l-0.1,0l-0.2,0c-2.2,11.9-3.8,23-4.9,33.1l-21.6,6c0.2-2,1.2-8.1,3-18.2L532.9,124.1z M550.2,145.7c-0.8,3.1-1.6,6.2-2.2,9.3
			l-1.9,9.3c3.2-1.6,6.3-3.8,9.4-6.4c3.6-3.1,5.9-6.1,7.1-8.9c0.5-0.8,0.7-1.6,0.7-2.3c0-2-1.3-3-4-3
			C557.2,143.6,554.2,144.3,550.2,145.7z"/>
		<path fill="#D88C07" stroke="#000000" stroke-miterlimit="10" d="M638.4,148.4c-2.9,1.1-6.4,2.4-10.4,4l-10.3,4
			c0-4.3-1.2-6.4-3.6-6.4c-3.4,0-6.7,1.9-10.1,5.7c-2.4,2.8-3.4,5.6-3,8.2c0.3,1.7,2,2.6,5.2,2.6c1.7,0,4-0.3,6.8-0.8
			c3.9-0.8,7.4-1.2,10.4-1.2c7.7,0,12.1,2.6,13.4,7.9c0.4,1.6,0.5,3.4,0.5,5.2c0,5.8-2.2,12.1-6.6,18.9
			c-5.7,8.8-13.6,16.3-23.8,22.3c-5.4,3.2-10.7,4.8-15.9,4.8c-4.7,0-9.4-1.3-13.9-4c2.3-5.5,5.9-13.5,10.9-24.2c2.9,2,6,3,9.3,3
			c1.5,0,3-0.2,4.5-0.7c2.8-0.7,5.5-1.8,8.1-3.1c3.6-2,5.5-4.1,5.5-6.2c0-2.3-1.9-3.4-5.6-3.4c-2.6,0-6.3,0.5-11.1,1.6
			c-4.9,1-8.6,1.6-11.1,1.6c-3.4,0-6-0.6-7.8-1.9c-3.6-2.4-5-6.1-4.4-11.1c1.2-10.1,7.7-21.8,19.6-35.1
			c12.1-13.7,22.6-20.8,31.3-21.5c8.5-0.5,12.7,5.8,12.7,19.1C639,140.8,638.8,144.4,638.4,148.4z"/>
	</g>
	<g>
		<rect x="175.5" y="356.5" fill="none" width="496.2" height="354.8"/>
		<path fill="#D88C07" d="M396.4,367.1c-1,0.4-2.3,0.9-3.7,1.4l-3.7,1.4c0-1.5-0.4-2.3-1.3-2.3c-1.2,0-2.4,0.7-3.6,2.1
			c-0.8,1-1.2,2-1.1,2.9c0.1,0.6,0.7,0.9,1.9,0.9c0.6,0,1.4-0.1,2.4-0.3c1.4-0.3,2.6-0.4,3.7-0.4c2.7,0,4.3,0.9,4.8,2.8
			c0.1,0.6,0.2,1.2,0.2,1.9c0,2.1-0.8,4.3-2.3,6.7c-2,3.2-4.9,5.8-8.5,8c-1.9,1.1-3.8,1.7-5.7,1.7c-1.7,0-3.4-0.5-5-1.4
			c0.8-2,2.1-4.8,3.9-8.6c1,0.7,2.1,1.1,3.3,1.1c0.5,0,1.1-0.1,1.6-0.2c1-0.3,2-0.6,2.9-1.1c1.3-0.7,2-1.4,2-2.2
			c0-0.8-0.7-1.2-2-1.2c-0.9,0-2.2,0.2-4,0.6c-1.7,0.4-3.1,0.6-4,0.6c-1.2,0-2.1-0.2-2.8-0.7c-1.3-0.8-1.8-2.2-1.6-4
			c0.4-3.6,2.8-7.8,7-12.5c4.3-4.9,8.1-7.4,11.2-7.7c3-0.2,4.5,2.1,4.5,6.8C396.6,364.4,396.6,365.7,396.4,367.1z"/>
		<path fill="#D88C07" d="M418.7,356.4l-0.3,9.1c-2.3,0.1-4.4,0.3-6.5,0.5c-2.1,9-3.6,17.3-4.3,24.9l-8.3,2.1l4.5-26
			c-0.9,0.1-1.8,0.3-2.6,0.4l-2.6,0.5l-0.6-9.1L418.7,356.4z"/>
		<path fill="#D88C07" d="M408.8,393.5c4.8-12.2,8.7-24,11.6-35.3l14.8-2.5c-1.7,9.9-2.5,21.5-2.3,35l-10.4,2.4l0.7-6.1l-3.3,0.6
			l-1,4.3L408.8,393.5z M424.1,380.5l2.2-18.4h0l-4.6,18.9L424.1,380.5z"/>
		<path fill="#D88C07" d="M438.1,358.4c5.1-1.5,9.3-2.3,12.5-2.3c4.4,0,6.6,1.5,6.5,4.6c0,4.4-2.8,8.8-8.3,13.2
			c0.5,1.2,2.3,5.1,5.7,11.7c-1.7,1.6-4.2,3.9-7.6,6.9l-5.2-13.5l0,0l-0.1,0c-0.8,4.3-1.4,8.2-1.7,11.8l-7.7,2.2
			c0.1-0.7,0.4-2.9,1.1-6.5L438.1,358.4z M444.3,366.1c-0.3,1.1-0.6,2.2-0.8,3.3l-0.7,3.3c1.1-0.6,2.3-1.4,3.4-2.3
			c1.3-1.1,2.1-2.2,2.5-3.2c0.2-0.3,0.2-0.6,0.2-0.8c0-0.7-0.5-1.1-1.4-1.1C446.8,365.4,445.7,365.6,444.3,366.1z"/>
		<path fill="#D88C07" d="M476.3,356.4l-0.3,9.1c-2.3,0.1-4.4,0.3-6.5,0.5c-2.1,9-3.6,17.3-4.3,24.9l-8.3,2.1l4.5-26
			c-0.9,0.1-1.8,0.3-2.6,0.4l-2.6,0.5l-0.6-9.1L476.3,356.4z"/>
		<path fill="#D88C07" d="M323.1,418.4l9-1.6c-1.6,6.2-2.9,11.9-3.9,17l4-0.9l2.5-14.6l9-1.6c-3.5,13.3-5.6,24.6-6.5,33.9l-8.4,2.1
			l2.2-13.3c-0.9,0.2-2.3,0.5-4.2,0.9c-0.6,4-1.1,7.4-1.3,10.3l-8.4,2.1L323.1,418.4z"/>
		<path fill="#D88C07" d="M358,414.7c3.5,0,5.9,1.9,7.3,5.8c0.7,2,1.1,4.2,1.1,6.5c0,2.3-0.3,4.8-1,7.4c-1.2,4.6-3.3,8.8-6.2,12.6
			c-3.6,4.7-7.4,7-11.5,7c-3.5,0-6-1.9-7.4-5.8c-0.7-1.9-1.1-4-1.1-6.3c0-2.3,0.4-4.8,1.1-7.5c1.2-4.6,3.3-8.8,6.2-12.6
			C350.1,417.1,353.9,414.7,358,414.7z M356.2,426.8c-1.8,0-3.6,1.5-5.5,4.4c-1.5,2.3-2.5,4.6-3.1,6.8c-0.3,1.2-0.4,2.2-0.4,3.2
			c0,1.3,0.3,2.4,1,3.3c0.7,0.9,1.8,1.4,3.1,1.4c1.8,0,3.5-1,4.9-2.9c1.2-1.5,2-3.3,2.5-5.4c0.6-2.4,0.7-4.9,0.4-7.2
			C358.8,428,357.8,426.8,356.2,426.8z"/>
		<path fill="#D88C07" d="M398.3,416.6c-4.4,11.7-7.7,23-9.8,34.1l-10.9,1.9l1.8-17.9l-4.5,16.6l-10.4,1.9
			c1.6-12.2,2.3-23.5,2.3-33.7l9.3-1.8l-1.9,21.4l6.3-23.7l5-0.7l-3.4,30.1l6.8-26.7L398.3,416.6z"/>
		<path fill="#D88C07" d="M425.3,416.4l-0.3,9.1c-2.3,0.1-4.4,0.3-6.5,0.5c-2.1,9-3.6,17.3-4.3,24.9l-8.3,2.1l4.5-26
			c-0.9,0.1-1.8,0.3-2.6,0.4l-2.6,0.5l-0.6-9.1L425.3,416.4z"/>
		<path fill="#D88C07" d="M438.5,414.7c3.5,0,5.9,1.9,7.3,5.8c0.7,2,1.1,4.2,1.1,6.5c0,2.3-0.3,4.8-1,7.4c-1.2,4.6-3.3,8.8-6.2,12.6
			c-3.6,4.7-7.4,7-11.5,7c-3.5,0-6-1.9-7.4-5.8c-0.7-1.9-1.1-4-1.1-6.3c0-2.3,0.4-4.8,1.1-7.5c1.2-4.6,3.3-8.8,6.2-12.6
			C430.6,417.1,434.4,414.7,438.5,414.7z M436.7,426.8c-1.8,0-3.6,1.5-5.5,4.4c-1.5,2.3-2.5,4.6-3.1,6.8c-0.3,1.2-0.4,2.2-0.4,3.2
			c0,1.3,0.3,2.4,1,3.3c0.7,0.9,1.8,1.4,3.1,1.4c1.8,0,3.5-1,4.9-2.9c1.2-1.5,2-3.3,2.5-5.4c0.6-2.4,0.7-4.9,0.4-7.2
			C439.2,428,438.3,426.8,436.7,426.8z"/>
		<path fill="#D88C07" d="M458.7,418.4c5-1.5,9.2-2.3,12.4-2.3c4.4,0,6.6,1.5,6.5,4.6c-0.1,6.2-5.3,12.5-15.5,19.1
			c-0.7,4-1.2,7.6-1.6,11l-7.8,2.1c0.1-0.7,0.5-2.9,1.2-6.5l2.1-11.6C458,424.2,458.9,418.7,458.7,418.4z M464.9,426.2
			c-0.2,0.9-0.4,1.8-0.6,2.7l-0.5,2.7c3-1.5,5-3.1,5.9-4.7c0.1-0.3,0.2-0.5,0.2-0.6c0-0.6-0.4-0.8-1.2-0.8
			C467.8,425.4,466.5,425.7,464.9,426.2z"/>
		<path fill="#D88C07" d="M477,418.4l8.4-1.6c-2.3,9-4.2,17.3-5.4,25l8.6-1.3l-0.7,9.1c-4.4,0.4-10,1.5-16.8,3.4L477,418.4z"/>
		<path fill="#D88C07" d="M483.5,453.5c4.8-12.2,8.7-24,11.6-35.3l14.8-2.5c-1.7,9.9-2.5,21.5-2.3,35l-10.4,2.4l0.7-6.1l-3.3,0.6
			l-1,4.3L483.5,453.5z M498.8,440.5l2.2-18.4h0l-4.6,18.9L498.8,440.5z"/>
		<path fill="#D88C07" d="M525.7,417.7l7.9,1.4c-7,12.3-12.6,23.5-16.7,33.5l-7.5-0.5l5.2-10.9l-4.1-19.6l9.5-4.4
			c-0.1,1.5-0.2,3.4-0.2,5.6c0,2.2,0.1,4.5,0.3,6.7L525.7,417.7z"/>
		<path fill="#D88C07" d="M332.5,478.6c1-0.2,3-0.6,5.9-1.3c2.5-0.6,4.5-1,6-1.1c0.6,0,1.2,0,1.7,0c4.3,0,6.4,1.5,6.4,4.6
			c0,4.3-2.7,8.7-8,13c3.4-0.2,5.3,0.7,5.8,2.8c0.1,0.5,0.1,0.9,0.1,1.4c0,2.4-1.2,4.9-3.5,7.4c-1.8,1.9-4,3.6-6.6,5.1
			c-3.2,1.8-6.8,2.6-10.9,2.6c-0.7,0-1.3,0-2,0c1.3-6.7,2.7-15.6,4.2-26.9C332,482.9,332.3,480.4,332.5,478.6z M337.6,498.9
			c-0.3,1.2-0.5,2.9-0.8,5c4.6-1.4,6.9-3,6.9-4.8c0-0.7-0.6-1-1.7-1C341,498.2,339.5,498.4,337.6,498.9z M340.3,485.8
			c-0.3,1.1-0.5,2.1-0.7,3.2l-0.7,3.2c2.4-1.5,4.1-3.2,5.1-5.1c0.2-0.4,0.3-0.8,0.3-1c0-0.6-0.4-0.8-1.3-0.8
			C342.4,485.3,341.5,485.5,340.3,485.8z"/>
		<path fill="#D88C07" d="M367.5,477.7l7.9,1.4c-7,12.3-12.6,23.5-16.7,33.5l-7.5-0.5l5.2-10.9l-4.1-19.6l9.5-4.4
			c-0.1,1.5-0.2,3.4-0.2,5.6c0,2.2,0.1,4.5,0.3,6.7L367.5,477.7z"/>
		<path fill="#D88C07" d="M401.5,476.4l-0.3,9.1c-2.3,0.1-4.4,0.3-6.5,0.5c-2.1,9-3.6,17.3-4.3,24.9l-8.3,2.1l4.5-26
			c-0.9,0.1-1.8,0.3-2.6,0.4l-2.6,0.5l-0.6-9.1L401.5,476.4z"/>
		<path fill="#D88C07" d="M418.8,487.1c-1,0.4-2.3,0.9-3.7,1.4l-3.7,1.4c0-1.5-0.4-2.3-1.3-2.3c-1.2,0-2.4,0.7-3.6,2.1
			c-0.8,1-1.2,2-1.1,2.9c0.1,0.6,0.7,0.9,1.9,0.9c0.6,0,1.4-0.1,2.4-0.3c1.4-0.3,2.6-0.4,3.7-0.4c2.7,0,4.3,0.9,4.8,2.8
			c0.1,0.6,0.2,1.2,0.2,1.9c0,2.1-0.8,4.3-2.3,6.7c-2,3.2-4.9,5.8-8.5,8c-1.9,1.1-3.8,1.7-5.7,1.7c-1.7,0-3.4-0.5-5-1.4
			c0.8-2,2.1-4.8,3.9-8.6c1,0.7,2.1,1.1,3.3,1.1c0.5,0,1.1-0.1,1.6-0.2c1-0.3,2-0.6,2.9-1.1c1.3-0.7,2-1.4,2-2.2
			c0-0.8-0.7-1.2-2-1.2c-0.9,0-2.2,0.2-4,0.6c-1.7,0.4-3.1,0.6-4,0.6c-1.2,0-2.1-0.2-2.8-0.7c-1.3-0.8-1.8-2.2-1.6-4
			c0.4-3.6,2.8-7.8,7-12.5c4.3-4.9,8.1-7.4,11.2-7.7c3-0.2,4.5,2.1,4.5,6.8C419,484.4,418.9,485.7,418.8,487.1z"/>
		<path fill="#D88C07" d="M414.8,513.2c4.4-11.1,7.7-22.5,10.1-34l11.7-1.9l-1.7,17.9l4.6-16.5l11.2-2c-1.3,10.6-2,20.2-2,28.7
			c0,1.7,0,3.4,0,5l-10,1.8l1.8-21.4l-6.4,23.7l-5.4,0.7l3.2-30.1l-6.9,26.7L414.8,513.2z"/>
		<path fill="#D88C07" d="M458,504.9c1,0,1.8,0.3,2.6,0.8s1.1,1.3,1.1,2.2c0,1.5-0.8,2.9-2.3,4.1c-1.5,1.2-3.2,1.8-5.1,1.8
			c-1,0-1.8-0.2-2.5-0.7c-0.8-0.6-1.2-1.3-1.2-2.2c0-1.5,0.8-2.9,2.3-4.1C454.5,505.5,456.2,504.9,458,504.9z"/>
		<path fill="#D88C07" d="M469.8,478.4l8.4-1.6c-3.4,13.1-5.6,24.4-6.6,33.9l-7.8,2.1L469.8,478.4z"/>
		<path fill="#D88C07" d="M480.2,478.6l8.4-1.7c-0.1,1-0.1,2.4-0.1,4.3c0,4.4,0.1,8.3,0.4,11.7c0.2,1.9,0.4,3.5,0.7,4.6l3.3-19
			l8.4-1.6c-3.4,13.1-5.6,24.4-6.6,33.9l-7.7,2.1c0-0.1-0.2-0.6-0.6-1.7l-2.5-7.2c-0.4-1.2-0.7-1.9-0.7-2.2
			c-0.7,3.8-1.2,7.6-1.6,11.2l-7.8,2.3L480.2,478.6z"/>
		<path fill="#D88C07" d="M514.3,476c3.4,0,5.9,1.8,7.5,5.5l-5.5,6.1c-0.7-0.8-1.6-1.2-2.6-1.2c-1.7,0-3.5,1.5-5.4,4.4
			c-1.5,2.4-2.5,4.7-3,6.8c-0.2,1-0.3,1.9-0.3,2.7c0,2.2,0.8,3.7,2.4,4.5c0.5,0.3,1.1,0.4,1.7,0.4c1.7,0,3.5-1.3,5.3-3.8l1.6,5.8
			c-3.2,3.6-6.5,5.4-9.8,5.4c-3.4,0-5.9-1.8-7.4-5.4c-0.9-2.1-1.4-4.4-1.4-7c0-1.9,0.2-3.9,0.7-6c1-4.3,2.8-8.3,5.6-11.9
			C506.9,478.2,510.5,476,514.3,476z"/>
	</g>
	<g>
		<g>
			<path fill="#FDFDFD" d="M164.8,214.9c3.2,0,3.2-5,0-5C161.6,209.9,161.6,214.9,164.8,214.9L164.8,214.9z"/>
		</g>
	</g>
	<g>
		<g>
			<path fill="#FDFDFD" d="M186.5,290.1c3.2,0,3.2-5,0-5C183.3,285.1,183.3,290.1,186.5,290.1L186.5,290.1z"/>
		</g>
	</g>
	<g>
		<g>
			<path fill="#FDFDFD" d="M245.1,467.4c3.2,0,3.2-5,0-5C241.8,462.4,241.8,467.4,245.1,467.4L245.1,467.4z"/>
		</g>
	</g>
	<g>
		<g>
			<path fill="#FDFDFD" d="M604.6,509.2c3.2,0,3.2-5,0-5C601.4,504.2,601.4,509.2,604.6,509.2L604.6,509.2z"/>
		</g>
	</g>
	<g>
		<g>
			<path fill="#FDFDFD" d="M745.1,530.9c3.2,0,3.2-5,0-5C741.8,525.9,741.8,530.9,745.1,530.9L745.1,530.9z"/>
		</g>
	</g>
	<g>
		<g>
			<path fill="#FDFDFD" d="M756.8,494.1c3.2,0,3.2-5,0-5C753.5,489.1,753.5,494.1,756.8,494.1L756.8,494.1z"/>
		</g>
	</g>
	<g>
		<g>
			<path fill="#FDFDFD" d="M656.4,440.6c3.2,0,3.2-5,0-5C653.2,435.6,653.2,440.6,656.4,440.6L656.4,440.6z"/>
		</g>
	</g>
	<g>
		<g>
			<path fill="#FDFDFD" d="M786.9,420.5c3.2,0,3.2-5,0-5C783.6,415.5,783.6,420.5,786.9,420.5L786.9,420.5z"/>
		</g>
	</g>
	<g>
		<g>
			<path fill="#FDFDFD" d="M783.5,174.7c3.2,0,3.2-5,0-5C780.3,169.7,780.3,174.7,783.5,174.7L783.5,174.7z"/>
		</g>
	</g>
	<g>
		<g>
			<path fill="#FDFDFD" d="M780.2,59.3c3.2,0,3.2-5,0-5C776.9,54.3,776.9,59.3,780.2,59.3L780.2,59.3z"/>
		</g>
	</g>
	<g>
		<g>
			<path fill="#FDFDFD" d="M576.2,46c3.2,0,3.2-5,0-5C572.9,41,572.9,46,576.2,46L576.2,46z"/>
		</g>
	</g>
	<g>
		<g>
			<path fill="#FDFDFD" d="M410.6,77.7c3.2,0,3.2-5,0-5C407.4,72.7,407.4,77.7,410.6,77.7L410.6,77.7z"/>
		</g>
	</g>
	<g>
		<g>
			<path fill="#FDFDFD" d="M298.6,82.7c3.2,0,3.2-5,0-5C295.3,77.7,295.3,82.7,298.6,82.7L298.6,82.7z"/>
		</g>
	</g>
	<g>
		<g>
			<path fill="#FDFDFD" d="M380.5,218.2c3.2,0,3.2-5,0-5C377.3,213.2,377.3,218.2,380.5,218.2L380.5,218.2z"/>
		</g>
	</g>
	<g>
		<g>
			<path fill="#FDFDFD" d="M495.9,256.7c3.2,0,3.2-5,0-5C492.7,251.7,492.7,256.7,495.9,256.7L495.9,256.7z"/>
		</g>
	</g>
	<g>
		<g>
			<path fill="#FDFDFD" d="M358.8,323.5c3.2,0,3.2-5,0-5C355.5,318.5,355.5,323.5,358.8,323.5L358.8,323.5z"/>
		</g>
	</g>
	<g>
		<g>
			<path fill="#FDFDFD" d="M271.8,258.3c3.2,0,3.2-5,0-5C268.6,253.3,268.6,258.3,271.8,258.3L271.8,258.3z"/>
		</g>
	</g>
	<g>
		<g>
			<path fill="#FDFDFD" d="M271.8,403.8c3.2,0,3.2-5,0-5C268.6,398.8,268.6,403.8,271.8,403.8L271.8,403.8z"/>
		</g>
	</g>
	<g>
		<g>
			<path fill="#FDFDFD" d="M133,395.5c3.2,0,3.2-5,0-5C129.8,390.5,129.8,395.5,133,395.5L133,395.5z"/>
		</g>
	</g>
	<g>
		<g>
			<path fill="#FDFDFD" d="M109.6,273.4c3.2,0,3.2-5,0-5C106.4,268.4,106.4,273.4,109.6,273.4L109.6,273.4z"/>
		</g>
	</g>
	<g>
		<g>
			<path fill="#FDFDFD" d="M62.8,360.3c3.2,0,3.2-5,0-5C59.6,355.3,59.6,360.3,62.8,360.3L62.8,360.3z"/>
		</g>
	</g>
	<g>
		<g>
			<path fill="#FDFDFD" d="M111.3,529.2c3.2,0,3.2-5,0-5C108.1,524.2,108,529.2,111.3,529.2L111.3,529.2z"/>
		</g>
	</g>
	<g>
		<g>
			<path fill="#FDFDFD" d="M241.7,527.6c3.2,0,3.2-5,0-5C238.5,522.6,238.5,527.6,241.7,527.6L241.7,527.6z"/>
		</g>
	</g>
	<g>
		<g>
			<path fill="#FDFDFD" d="M128,465.7c3.2,0,3.2-5,0-5C124.8,460.7,124.8,465.7,128,465.7L128,465.7z"/>
		</g>
	</g>
	<g>
		<g>
			<path fill="#FDFDFD" d="M42.7,464c3.2,0,3.2-5,0-5C39.5,459,39.5,464,42.7,464L42.7,464z"/>
		</g>
	</g>
	<g>
		<g>
			<path fill="#FDFDFD" d="M402.2,547.6c3.2,0,3.2-5,0-5C399,542.6,399,547.6,402.2,547.6L402.2,547.6z"/>
		</g>
	</g>
	<g>
		<g>
			<path fill="#FDFDFD" d="M537.7,499.1c3.2,0,3.2-5,0-5C534.5,494.1,534.5,499.1,537.7,499.1L537.7,499.1z"/>
		</g>
	</g>
	<g>
		<g>
			<path fill="#FDFDFD" d="M358.8,449c3.2,0,3.2-5,0-5C355.5,444,355.5,449,358.8,449L358.8,449z"/>
		</g>
	</g>
	<g>
		<g>
			<path fill="#FDFDFD" d="M606.3,423.9c3.2,0,3.2-5,0-5C603,418.9,603,423.9,606.3,423.9L606.3,423.9z"/>
		</g>
	</g>
	<g>
		<g>
			<path fill="#FDFDFD" d="M701.6,514.2c3.2,0,3.2-5,0-5C698.4,509.2,698.3,514.2,701.6,514.2L701.6,514.2z"/>
		</g>
	</g>
	<g>
		<g>
			<path fill="#FDFDFD" d="M626.3,574.4c3.2,0,3.2-5,0-5C623.1,569.4,623.1,574.4,626.3,574.4L626.3,574.4z"/>
		</g>
	</g>
	<g>
		<g>
			<path fill="#FDFDFD" d="M54.4,124.6c3.2,0,3.2-5,0-5C51.2,119.6,51.2,124.6,54.4,124.6L54.4,124.6z"/>
		</g>
	</g>
	<g>
		<g>
			<path fill="#FDFDFD" d="M41,204.8c3.2,0,3.2-5,0-5C37.8,199.8,37.8,204.8,41,204.8L41,204.8z"/>
		</g>
	</g>
	<g>
		<g>
			<path fill="#FDFDFD" d="M149.7,149.6c3.2,0,3.2-5,0-5C146.5,144.6,146.5,149.6,149.7,149.6L149.7,149.6z"/>
		</g>
	</g>
	<g>
		<g>
			<path fill="#FDFDFD" d="M96.2,27.6c3.2,0,3.2-5,0-5C93,22.6,93,27.6,96.2,27.6L96.2,27.6z"/>
		</g>
	</g>
	<g>
		<g>
			<path fill="#FDFDFD" d="M29.3,35.9c3.2,0,3.2-5,0-5C26.1,30.9,26.1,35.9,29.3,35.9L29.3,35.9z"/>
		</g>
	</g>
	<g>
		<g>
			<path fill="#FDFDFD" d="M166.5,76.1c3.2,0,3.2-5,0-5C163.2,71.1,163.2,76.1,166.5,76.1L166.5,76.1z"/>
		</g>
	</g>
	<g>
		<g>
			<path fill="#FDFDFD" d="M260.1,19.2c3.2,0,3.2-5,0-5C256.9,14.2,256.9,19.2,260.1,19.2L260.1,19.2z"/>
		</g>
	</g>
	<g>
		<g>
			<path fill="#FDFDFD" d="M243.4,81.1c3.2,0,3.2-5,0-5C240.2,76.1,240.2,81.1,243.4,81.1L243.4,81.1z"/>
		</g>
	</g>
	<g>
		<g>
			<path fill="#FDFDFD" d="M397.2,39.3c3.2,0,3.2-5,0-5C394,34.3,394,39.3,397.2,39.3L397.2,39.3z"/>
		</g>
	</g>
	<g>
		<g>
			<path fill="#FDFDFD" d="M332,0.8c3.2,0,3.2-5,0-5C328.8-4.2,328.8,0.8,332,0.8L332,0.8z"/>
		</g>
	</g>
	<g>
		<g>
			<path fill="#FDFDFD" d="M377.2,74.4c3.2,0,3.2-5,0-5C373.9,69.4,373.9,74.4,377.2,74.4L377.2,74.4z"/>
		</g>
	</g>
	<g>
		<g>
			<path fill="#FDFDFD" d="M467.5,218.2c3.2,0,3.2-5,0-5C464.2,213.2,464.2,218.2,467.5,218.2L467.5,218.2z"/>
		</g>
	</g>
	<g>
		<g>
			<path fill="#FDFDFD" d="M594.5,218.2c3.2,0,3.2-5,0-5C591.3,213.2,591.3,218.2,594.5,218.2L594.5,218.2z"/>
		</g>
	</g>
	<g>
		<g>
			<path fill="#FDFDFD" d="M753.4,119.5c3.2,0,3.2-5,0-5C750.2,114.5,750.2,119.5,753.4,119.5L753.4,119.5z"/>
		</g>
	</g>
	<g>
		<g>
			<path fill="#FDFDFD" d="M689.9,51c3.2,0,3.2-5,0-5C686.6,46,686.6,51,689.9,51L689.9,51z"/>
		</g>
	</g>
	<g>
		<g>
			<path fill="#FDFDFD" d="M639.7,81.1c3.2,0,3.2-5,0-5C636.5,76.1,636.5,81.1,639.7,81.1L639.7,81.1z"/>
		</g>
	</g>
	<g>
		<g>
			<path fill="#FDFDFD" d="M521,57.7c3.2,0,3.2-5,0-5C517.8,52.7,517.7,57.7,521,57.7L521,57.7z"/>
		</g>
	</g>
	<g>
		<g>
			<path fill="#FDFDFD" d="M502.6,102.8c3.2,0,3.2-5,0-5C499.4,97.8,499.4,102.8,502.6,102.8L502.6,102.8z"/>
		</g>
	</g>
	<g>
		<g>
			<path fill="#FDFDFD" d="M444,12.5c3.2,0,3.2-5,0-5C440.8,7.5,440.8,12.5,444,12.5L444,12.5z"/>
		</g>
	</g>
	<g>
		<g>
			<path fill="#FDFDFD" d="M544.4,27.6c3.2,0,3.2-5,0-5C541.2,22.6,541.2,27.6,544.4,27.6L544.4,27.6z"/>
		</g>
	</g>
	<g>
		<g>
			<path fill="#FDFDFD" d="M679.8,25.9c3.2,0,3.2-5,0-5C676.6,20.9,676.6,25.9,679.8,25.9L679.8,25.9z"/>
		</g>
	</g>
	<g>
		<g>
			<path fill="#FDFDFD" d="M745.1,102.8c3.2,0,3.2-5,0-5C741.8,97.8,741.8,102.8,745.1,102.8L745.1,102.8z"/>
		</g>
	</g>
	<g>
		<g>
			<path fill="#FDFDFD" d="M658.1,99.5c3.2,0,3.2-5,0-5C654.9,94.5,654.9,99.5,658.1,99.5L658.1,99.5z"/>
		</g>
	</g>
	<g>
		<g>
			<path fill="#FDFDFD" d="M582.8,97.8c3.2,0,3.2-5,0-5C579.6,92.8,579.6,97.8,582.8,97.8L582.8,97.8z"/>
		</g>
	</g>
	<g>
		<g>
			<path fill="#FDFDFD" d="M440.7,298.5c3.2,0,3.2-5,0-5C437.5,293.5,437.5,298.5,440.7,298.5L440.7,298.5z"/>
		</g>
	</g>
	<g>
		<g>
			<path fill="#FDFDFD" d="M408.9,238.3c3.2,0,3.2-5,0-5C405.7,233.3,405.7,238.3,408.9,238.3L408.9,238.3z"/>
		</g>
	</g>
	<g>
	</g>
	<g>
	</g>
	<g>
	</g>
	<g>
	</g>
	<g>
	</g>
	<g>
	</g>
</g>
</svg>
