<?xml version="1.0" encoding="utf-8"?>
<!-- Generator: Adobe Illustrator 22.0.1, SVG Export Plug-In . SVG Version: 6.00 Build 0)  -->
<svg version="1.1" xmlns="http://www.w3.org/2000/svg" xmlns:xlink="http://www.w3.org/1999/xlink" x="0px" y="0px" width="841.9px"
	 height="595.3px" viewBox="0 0 841.9 595.3" enable-background="new 0 0 841.9 595.3" xml:space="preserve">
<g id="Layer_1">
	<path fill="#919193" d="M369.9,167.5c0,0-29.6,0.6-45.6-11c-15.8,11.3-45.8,11-45.8,11s-15.3,70.1,45.8,96.3
		C381.8,243.4,369.9,167.5,369.9,167.5z"/>
	<path fill="#3F96D2" d="M364.2,172.6c0,0-25.9,0.5-39.9-9.7c-13.8,10-40,9.7-40,9.7s-13.4,61.7,40,84.9
		C374.5,239.4,364.2,172.6,364.2,172.6z"/>
</g>
<g id="Layer_2">
	<path fill="#104597" d="M324.3,162.9c8.1,41.1,0,94.6,0,94.6s46.1-9.4,39.9-84.9C337.8,170,324.3,162.9,324.3,162.9z"/>
	<g>
	</g>
	<g>
	</g>
	<g>
	</g>
	<g>
	</g>
	<g>
	</g>
	<g>
	</g>
</g>
</svg>
