<?xml version="1.0" encoding="utf-8"?>
<!-- Generator: Adobe Illustrator 22.0.1, SVG Export Plug-In . SVG Version: 6.00 Build 0)  -->
<svg version="1.1" id="Layer_1" xmlns="http://www.w3.org/2000/svg" xmlns:xlink="http://www.w3.org/1999/xlink" x="0px" y="0px"
	 width="841.9px" height="595.3px" viewBox="0 0 841.9 595.3" enable-background="new 0 0 841.9 595.3" xml:space="preserve">
<polygon fill="#3A3A3A" points="265.9,314.8 294.1,363.4 502.8,363.4 535.4,314.8 "/>
<polygon fill="#5F5F5E" points="265.9,314.8 341.9,284.5 500.6,284.5 535.4,314.8 "/>
<polygon fill="#5F5F5E" points="341.9,284.5 363.7,247.6 452.8,247.6 500.6,284.5 "/>
<path fill="#FFFFFF" d="M421.3,247.6"/>
<polygon fill="#5F5F5E" points="430.2,247.6 409.7,187.8 365.3,187.8 363.7,247.6 "/>
<polygon fill="#4D4C4C" points="435.7,253.1 428.7,233 452.3,232.2 450.7,238.7 438.7,238.9 443.7,253.1 "/>
<path fill="#4D4C4C" d="M379.5,356.4h-30.6c-3.8,0-7-3.1-7-7v0c0-13.3,10.8-24.1,24.1-24.1h13.5V356.4z"/>
<rect x="421.3" y="329.9" transform="matrix(-1 -4.511781e-11 4.511781e-11 -1 851.5409 679.5771)" fill="#4D4C4C" width="9" height="19.9"/>
<ellipse fill="#4D4C4C" cx="508.1" cy="339.8" rx="67.6" ry="6.1"/>
<rect x="430.2" y="335.6" transform="matrix(-1 -4.490731e-11 4.490731e-11 -1 889.2501 678.9334)" fill="#4D4C4C" width="28.8" height="7.8"/>
<rect x="400.6" y="166.4" transform="matrix(-1 -4.492374e-11 4.492374e-11 -1 806.4286 354.2211)" fill="#5F5F5E" width="5.1" height="21.4"/>
<rect x="405.8" y="168.8" transform="matrix(-1 -4.491797e-11 4.491797e-11 -1 827.0807 341.6807)" fill="#5F5F5E" width="15.5" height="4.1"/>
<rect x="379.8" y="166.4" transform="matrix(-1 -4.481005e-11 4.481005e-11 -1 764.2404 354.2211)" fill="#5F5F5E" width="4.6" height="21.4"/>
<rect x="373.2" y="166.4" transform="matrix(-1 -4.489354e-11 4.489354e-11 -1 765.7307 337.2293)" fill="#5F5F5E" width="19.4" height="4.5"/>
<rect x="348" y="187.8" transform="matrix(-1 -4.487267e-11 4.487267e-11 -1 718.6248 378.5497)" fill="#5F5F5E" width="22.7" height="2.9"/>
<rect x="355.9" y="181" transform="matrix(-1 -4.461199e-11 4.461199e-11 -1 713.2733 368.8659)" fill="#5F5F5E" width="1.5" height="6.8"/>
<rect x="348.9" y="184.4" transform="matrix(-1 -4.468260e-11 4.468260e-11 -1 701.2097 372.2652)" fill="#5F5F5E" width="3.4" height="3.4"/>
<polygon fill="#BDD3E4" points="389.7,247.6 397,236.8 373.2,236.8 373.2,232.2 400.6,232.2 417.2,209.6 409.7,187.8 365.3,187.8 
	363.7,247.6 "/>
<polygon fill="#BDD3E4" points="360.7,253.1 410,253.1 397,284.5 341.9,284.5 "/>
<polygon fill="#4D4C4C" points="452.3,284.5 440.5,275.8 522.9,275.8 538.2,284.5 "/>
<rect x="308.8" y="284.5" transform="matrix(-1 -4.492285e-11 4.492285e-11 -1 634.957 586.5029)" fill="#4D4C4C" width="17.4" height="17.4"/>
<rect x="326.2" y="291" transform="matrix(-1 -4.502766e-11 4.502766e-11 -1 660.9326 592.9356)" fill="#4D4C4C" width="8.6" height="11"/>
<polygon fill="#4D4C4C" points="474.8,311.1 459.2,303.2 568.4,303.2 588.7,311.1 "/>
<rect x="410" y="293.3" transform="matrix(-1 -4.489754e-11 4.489754e-11 -1 850.5631 592.9205)" fill="#BDD3E4" width="30.5" height="6.4"/>
<rect x="397.5" y="299.7" transform="matrix(-1 -4.488821e-11 4.488821e-11 -1 816.1776 602.9069)" fill="#BDD3E4" width="21.2" height="3.6"/>
<rect x="389.8" y="288.1" transform="matrix(-1 -4.450052e-11 4.450052e-11 -1 783.4166 580.0851)" fill="#BDD3E4" width="3.8" height="3.8"/>
<rect x="381.9" y="288.1" transform="matrix(-1 -4.497392e-11 4.497392e-11 -1 768.4517 579.6807)" fill="#BDD3E4" width="4.7" height="3.4"/>
<polygon fill="#BDD3E4" points="381.9,296.5 376,307.1 348,307.1 "/>
<path fill="#3F3F3F" d="M248.7,93.3"/>
<g>
</g>
<g>
</g>
<g>
</g>
<g>
</g>
<g>
</g>
<g>
</g>
</svg>
