<?xml version="1.0" encoding="utf-8"?>
<!-- Generator: Adobe Illustrator 22.0.1, SVG Export Plug-In . SVG Version: 6.00 Build 0)  -->
<svg version="1.1" id="Layer_1" xmlns="http://www.w3.org/2000/svg" xmlns:xlink="http://www.w3.org/1999/xlink" x="0px" y="0px"
	 width="841.9px" height="595.3px" viewBox="0 0 841.9 595.3" enable-background="new 0 0 841.9 595.3" xml:space="preserve">
<g>
	<polygon fill="#64705E" points="397.8,337 205,337 205,241.1 266.3,271.1 336.6,271.1 397.8,241.1 	"/>
	<polygon fill="#64705E" points="156.1,337 135.8,309.6 135.8,286.9 156.1,150.7 205,150.7 205,196.1 205,337 	"/>
	<rect x="227.5" y="426.5" fill="#C3BE9E" width="150.2" height="18"/>
	<polygon fill="#64705E" points="446.7,337 467,309.6 467,286.9 446.7,150.7 397.8,150.7 397.8,196.1 397.8,337 	"/>
	<polygon fill="#C3BE9E" points="205,166 169.1,166 152.3,287 152.3,307.5 177.8,337 205,337 	"/>
	<polygon fill="#C3BE9E" points="397.8,166 433.7,166 450.5,287 450.5,307.5 425,337 397.8,337 	"/>
	<path fill="#FFFFFF" d="M205,259.3"/>
	<polygon fill="#C3BE9E" points="397.8,360.3 205,360.3 205,264.3 266.3,294.4 336.6,294.4 397.8,264.3 	"/>
	<rect x="197.5" y="337" fill="#C3BE9E" width="208.9" height="89.5"/>
	<rect x="236" y="289" fill="#64705E" width="131.9" height="131.9"/>
	<rect x="205" y="179.5" fill="#64705E" width="6.5" height="27.1"/>
	<rect x="390.9" y="179.5" fill="#64705E" width="6.5" height="27.1"/>
	<polygon fill="#64705E" points="401,410.1 375.1,346 401,346 	"/>
	<polygon fill="#64705E" points="203.7,410.1 229.6,346 203.7,346 	"/>
	<path fill="#C3BE9E" d="M239.7,396.2"/>
</g>
<g>
</g>
<g>
</g>
<g>
</g>
<g>
</g>
<g>
</g>
<g>
</g>
</svg>
